DBRep_DrawableShape

CASCADE Topology V3, (c) Open Cascade
Locations 83
1
-2.22044604925031e-16               1               0               0 
             -1 -2.22044604925031e-16               0               0 
              0               0               1               0 
1
              1               0               0               0 
              0 -2.22044604925031e-16              -1               0 
              0               1 -2.22044604925031e-16               0 
2  2 -1 0
1
              1               0               0               0 
              0               1               0               0 
              0               0               1               0 
1
              1               0               0               0 
              0 2.22044604925031e-16              -1               0 
              0               1 2.22044604925031e-16               0 
1
              1               0               0               0 
              0 -2.22044604925031e-16              -1               0 
              0               1 -2.22044604925031e-16               0 
1
              1               0               0              -0 
              0               1               0 -3.33066907387547e-14 
              0               0               1             -75 
2  4 1 5 1 6 -1 7 1 0
2  2 -1 7 -1 6 1 5 -1 4 -1 0
1
              1               0               0               0 
              0               1               0 6.66133814775094e-14 
              0               0               1             150 
2  4 1 5 1 6 -1 7 1 10 1 0
2  2 -1 10 -1 7 -1 6 1 5 -1 4 -1 0
2  7 -1 6 1 5 -1 4 -1 0
2  10 -1 7 -1 6 1 5 -1 4 -1 0
2  6 -1 7 1 0
2  4 1 5 1 0
2  6 -1 7 1 10 1 0
1
-2.22044604925031e-16               1               0               0 
             -1 -2.22044604925031e-16               0               0 
              0               0               1               0 
1
              1               0               0               0 
              0 -2.22044604925031e-16              -1               0 
              0               1 -2.22044604925031e-16               0 
2  19 -1 0
1
              1               0               0               0 
              0               1               0               0 
              0               0               1               0 
1
              1               0               0               0 
              0 2.22044604925031e-16              -1               0 
              0               1 2.22044604925031e-16               0 
1
              1               0               0               0 
              0 -2.22044604925031e-16              -1               0 
              0               1 -2.22044604925031e-16               0 
1
              1               0               0              -0 
              0               1               0 -3.33066907387547e-14 
              0               0               1             -75 
2  21 1 22 1 23 -1 24 1 0
2  19 -1 24 -1 23 1 22 -1 21 -1 0
1
              1               0               0               0 
              0               1               0 6.66133814775094e-14 
              0               0               1             150 
2  21 1 22 1 23 -1 24 1 27 1 0
2  19 -1 27 -1 24 -1 23 1 22 -1 21 -1 0
2  23 -1 24 1 0
2  21 1 22 1 0
2  23 -1 24 1 27 1 0
1
-2.22044604925031e-16               1               0               0 
             -1 -2.22044604925031e-16               0               0 
              0               0               1               0 
1
              1               0               0               0 
              0 -2.22044604925031e-16              -1               0 
              0               1 -2.22044604925031e-16               0 
2  34 -1 0
1
              1               0               0               0 
              0               1               0               0 
              0               0               1               0 
1
              1               0               0               0 
              0 2.22044604925031e-16              -1               0 
              0               1 2.22044604925031e-16               0 
1
              1               0               0               0 
              0 -2.22044604925031e-16              -1               0 
              0               1 -2.22044604925031e-16               0 
1
              1               0               0              -0 
              0               1               0 -3.33066907387547e-14 
              0               0               1             -75 
2  36 1 37 1 38 -1 39 1 0
2  34 -1 39 -1 38 1 37 -1 36 -1 0
1
              1               0               0               0 
              0               1               0 6.66133814775094e-14 
              0               0               1             150 
2  36 1 37 1 38 -1 39 1 42 1 0
2  34 -1 42 -1 39 -1 38 1 37 -1 36 -1 0
2  39 -1 38 1 37 -1 36 -1 0
2  42 -1 39 -1 38 1 37 -1 36 -1 0
2  38 -1 39 1 0
2  36 1 37 1 0
2  38 -1 39 1 42 1 0
1
-2.22044604925031e-16               1               0               0 
             -1 -2.22044604925031e-16               0               0 
              0               0               1               0 
1
              1               0               0               0 
              0 -2.22044604925031e-16              -1               0 
              0               1 -2.22044604925031e-16               0 
2  51 -1 0
1
              1               0               0               0 
              0               1               0               0 
              0               0               1               0 
1
              1               0               0               0 
              0 2.22044604925031e-16              -1               0 
              0               1 2.22044604925031e-16               0 
1
              1               0               0               0 
              0 -2.22044604925031e-16              -1               0 
              0               1 -2.22044604925031e-16               0 
1
              1               0               0              -0 
              0               1               0 -3.33066907387547e-14 
              0               0               1             -75 
2  53 1 54 1 55 -1 56 1 0
2  51 -1 56 -1 55 1 54 -1 53 -1 0
1
              1               0               0               0 
              0               1               0 6.66133814775094e-14 
              0               0               1             150 
2  53 1 54 1 55 -1 56 1 59 1 0
2  51 -1 59 -1 56 -1 55 1 54 -1 53 -1 0
2  56 -1 55 1 54 -1 53 -1 0
2  59 -1 56 -1 55 1 54 -1 53 -1 0
2  55 -1 56 1 0
2  53 1 54 1 0
2  55 -1 56 1 59 1 0
1
-2.22044604925031e-16               1               0               0 
             -1 -2.22044604925031e-16               0               0 
              0               0               1               0 
1
              1               0               0               0 
              0 -2.22044604925031e-16              -1               0 
              0               1 -2.22044604925031e-16               0 
2  68 -1 0
1
              1               0               0               0 
              0               1               0               0 
              0               0               1               0 
1
              1               0               0               0 
              0 2.22044604925031e-16              -1               0 
              0               1 2.22044604925031e-16               0 
1
              1               0               0               0 
              0 -2.22044604925031e-16              -1               0 
              0               1 -2.22044604925031e-16               0 
1
              1               0               0              -0 
              0               1               0 -3.33066907387547e-14 
              0               0               1             -75 
2  70 1 71 1 72 -1 73 1 0
2  68 -1 73 -1 72 1 71 -1 70 -1 0
1
              1               0               0               0 
              0               1               0 6.66133814775094e-14 
              0               0               1             150 
2  70 1 71 1 72 -1 73 1 76 1 0
2  68 -1 76 -1 73 -1 72 1 71 -1 70 -1 0
2  73 -1 72 1 71 -1 70 -1 0
2  76 -1 73 -1 72 1 71 -1 70 -1 0
2  72 -1 73 1 0
2  70 1 71 1 0
2  72 -1 73 1 76 1 0
Curve2ds 16
8 0 150.00000000000003
1 5.4977871437821371 0 0 -1 
8 0 150.00000000000003
1 7.0685834705770345 0 0 -1 
8 5.4977871437821371 7.0685834705770345
1 0 0 1 0 
8 5.4977871437821371 7.0685834705770345
1 0 -150.00000000000003 1 0 
8 0 150.00000000000003
1 0.78539816339744828 0 0 -1 
8 0 150.00000000000003
1 2.3561944901923448 0 0 -1 
8 0.78539816339744828 2.3561944901923448
1 0 0 1 0 
8 0.78539816339744828 2.3561944901923448
1 0 -150.00000000000003 1 0 
8 0 150.00000000000003
1 3.9269908169872414 0 0 -1 
8 0 150.00000000000003
1 2.3561944901923457 0 0 -1 
8 2.3561944901923457 3.9269908169872414
1 0 0 1 0 
8 2.3561944901923457 3.9269908169872414
1 0 -150.00000000000003 1 0 
8 0 150.00000000000003
1 5.497787143782138 0 0 -1 
8 0 150.00000000000003
1 3.9269908169872418 0 0 -1 
8 3.9269908169872418 5.497787143782138
1 0 0 1 0 
8 3.9269908169872418 5.497787143782138
1 0 -150.00000000000003 1 0 
Curves 60
1 25.000000000000007 75.000000000000028 24.999999999999993 0 -1 2.2204460492503136e-16 
1 25.000000000000007 75 -25.000000000000021 0 -1 2.2204460492503136e-16 
1 25.000000000000007 75.000000000000014 100.00000000000003 0 2.2204460492503126e-16 -1 
1 25.000000000000007 -75.000000000000014 -50.000000000000007 0 2.2204460492503126e-16 -1 
1 35.355339059327349 75.000000000000014 -35.355339059327449 0 -1 2.2204460492503136e-16 
1 25.000000000000007 75.000000000000014 50.000000000000014 0.70710678118654469 1.5700924586837811e-16 -0.70710678118655035 
1 25.000000000000007 -75.000000000000014 -100.00000000000001 0.70710678118654469 1.5700924586837811e-16 -0.70710678118655035 
1 35.355339059327392 75.000000000000014 35.355339059327356 0 -1 2.2204460492503136e-16 
2 0 75.000000000000014 75.000000000000014 0 -1 -2.2204460492503126e-16 1 0 0 0 -2.2204460492503126e-16 1 50.000000000000014
2 0 -75.000000000000014 -75.000000000000014 0 -1 -2.2204460492503126e-16 1 0 0 0 -2.2204460492503126e-16 1 50.000000000000014
1 25.000000000000007 75.000000000000014 100.00000000000003 0.70710678118654802 -1.5700924586837737e-16 0.70710678118654702 
1 25.000000000000007 -75.000000000000014 -50.000000000000007 0.70710678118654802 -1.5700924586837737e-16 0.70710678118654702 
1 -25.000000000000007 75 -25.000000000000021 0 -1 2.2204460492503136e-16 
1 -25.000000000000007 75.000000000000028 24.999999999999993 0 -1 2.2204460492503136e-16 
1 -25.000000000000007 75.000000000000014 50.000000000000007 0 -2.2204460492503126e-16 1 
1 -25.000000000000007 -75.000000000000014 -100.00000000000003 0 -2.2204460492503126e-16 1 
1 25.000000000000007 75.000000000000028 24.999999999999993 0 -1 2.2204460492503136e-16 
1 -25.000000000000007 75.000000000000014 100.00000000000003 1 0 0 
1 -25.000000000000007 -75.000000000000014 -50.000000000000007 1 0 0 
1 25.000000000000007 75 -25.000000000000021 0 -1 2.2204460492503136e-16 
1 25.000000000000007 75.000000000000014 100.00000000000003 0 2.2204460492503126e-16 -1 
1 25.000000000000007 -75.000000000000014 -50.000000000000007 0 2.2204460492503126e-16 -1 
1 25.000000000000007 75.000000000000014 50.000000000000007 -1 -0 0 
1 25.000000000000007 -75.000000000000014 -100.00000000000003 -1 -0 0 
1 -25.000000000000007 75.000000000000028 24.999999999999993 0 -1 2.2204460492503136e-16 
1 25.000000000000007 75.000000000000028 24.999999999999993 0 -1 2.2204460492503136e-16 
1 -25.000000000000007 75.000000000000014 100.00000000000003 1 0 0 
1 -25.000000000000007 -75.000000000000014 -50.000000000000007 1 0 0 
1 35.355339059327385 75.000000000000014 35.355339059327363 0 -1 2.2204460492503136e-16 
1 25.000000000000007 75.000000000000014 100.00000000000003 0.70710678118654757 -1.5700924586837749e-16 0.70710678118654757 
1 25.000000000000007 -75.000000000000014 -50.000000000000007 0.70710678118654757 -1.5700924586837749e-16 0.70710678118654757 
1 -35.355339059327378 75.000000000000014 35.355339059327363 0 -1 2.2204460492503136e-16 
2 3.0839531013483936e-29 75.000000000000014 75.000000000000014 0 -1 -2.2204460492503126e-16 1 0 0 0 -2.2204460492503126e-16 1 50.000000000000014
2 3.0839531013483936e-29 -75.000000000000014 -75.000000000000014 0 -1 -2.2204460492503126e-16 1 0 0 0 -2.2204460492503126e-16 1 50.000000000000014
1 -25.000000000000007 75.000000000000014 100.00000000000003 -0.70710678118654724 -1.5700924586837754e-16 0.70710678118654779 
1 -25.000000000000007 -75.000000000000014 -50.000000000000007 -0.70710678118654724 -1.5700924586837754e-16 0.70710678118654779 
1 -25.000000000000007 75.000000000000028 24.999999999999993 0 -1 2.2204460492503136e-16 
1 -25.000000000000007 75 -25.000000000000021 0 -1 2.2204460492503136e-16 
1 -25.000000000000007 75.000000000000014 100.00000000000003 0 2.2204460492503126e-16 -1 
1 -25.000000000000007 -75.000000000000014 -50.000000000000007 0 2.2204460492503126e-16 -1 
1 -35.355339059327392 75.000000000000014 -35.355339059327399 0 -1 2.2204460492503136e-16 
1 -25.000000000000007 75.000000000000014 50.000000000000007 -0.70710678118654802 1.5700924586837737e-16 -0.70710678118654702 
1 -25.000000000000007 -75.000000000000014 -100.00000000000003 -0.70710678118654802 1.5700924586837737e-16 -0.70710678118654702 
1 -35.355339059327413 75.000000000000014 35.355339059327335 0 -1 2.2204460492503136e-16 
2 0 75.000000000000014 75.000000000000014 0 -1 -2.2204460492503126e-16 1 0 0 0 -2.2204460492503126e-16 1 50.000000000000014
2 0 -75.000000000000014 -75.000000000000014 0 -1 -2.2204460492503126e-16 1 0 0 0 -2.2204460492503126e-16 1 50.000000000000014
1 -25.000000000000007 75.000000000000014 100.00000000000003 -0.70710678118654946 -1.5700924586837705e-16 0.70710678118654557 
1 -25.000000000000007 -75.000000000000014 -50.000000000000007 -0.70710678118654946 -1.5700924586837705e-16 0.70710678118654557 
1 -25.000000000000007 75 -25.000000000000021 0 -1 2.2204460492503136e-16 
1 25.000000000000007 75 -25.000000000000021 0 -1 2.2204460492503136e-16 
1 -25.000000000000007 75.000000000000014 50.000000000000007 1 0 0 
1 -25.000000000000007 -75.000000000000014 -100.00000000000003 1 0 0 
1 35.355339059327378 75.000000000000014 -35.355339059327413 0 -1 2.2204460492503136e-16 
1 25.000000000000007 75.000000000000014 50.000000000000007 0.70710678118654702 1.5700924586837759e-16 -0.70710678118654802 
1 25.000000000000007 -75.000000000000014 -100.00000000000003 0.70710678118654702 1.5700924586837759e-16 -0.70710678118654802 
1 -35.355339059327378 75.000000000000014 -35.355339059327413 0 -1 2.2204460492503136e-16 
2 -1.1528389404624891e-22 75.000000000000014 75.000000000000014 0 -1 -2.2204460492503126e-16 1 0 0 0 -2.2204460492503126e-16 1 50.000000000000014
2 -1.1528389404624891e-22 -75.000000000000014 -75.000000000000014 0 -1 -2.2204460492503126e-16 1 0 0 0 -2.2204460492503126e-16 1 50.000000000000014
1 -25.000000000000007 75.000000000000014 50.000000000000007 -0.70710678118654702 1.5700924586837759e-16 -0.70710678118654802 
1 -25.000000000000007 -75.000000000000014 -100.00000000000003 -0.70710678118654702 1.5700924586837759e-16 -0.70710678118654802 
Polygon3D 0
PolygonOnTriangulations 0
Surfaces 30
1 25.000000000000007 75.000000000000028 24.999999999999993 1 0 0 0 -2.2204460492503136e-16 -1 0 1 -2.2204460492503136e-16 
1 25.000000000000007 75 -25.000000000000018 0.70710678118655035 1.570092458683769e-16 0.70710678118654469 0.70710678118654469 -1.5700924586837816e-16 -0.70710678118655035 0 1 -2.2204460492503136e-16 
2 0 75.000000000000014 -1.6653345456442468e-14 0 1 -2.2204460492503136e-16 1 0 0 -0 2.2204460492503136e-16 1 50.000000000000014
1 25.000000000000007 75.000000000000028 24.999999999999993 -0.70710678118654702 1.5700924586837764e-16 0.70710678118654802 0.70710678118654802 1.5700924586837742e-16 0.70710678118654702 0 1 -2.2204460492503136e-16 
1 35.35824216289943 -74.999999999999986 75.000000000000028 -5.4738221262688167e-48 4.9303806576313238e-32 1 0 -1 4.9303806576313238e-32 1 2.6988026734670139e-79 5.4738221262688167e-48 
1 35.35824216289943 75.000000000000014 -75.000000000000028 -5.4738221262688167e-48 4.9303806576313238e-32 1 0 -1 4.9303806576313238e-32 1 2.6988026734670139e-79 5.4738221262688167e-48 
1 -25.000000000000007 75 -25.000000000000021 -1 -0 0 0 2.2204460492503136e-16 1 -0 1 -2.2204460492503136e-16 
1 -25.000000000000007 75.000000000000028 24.999999999999993 0 2.2204460492503136e-16 1 1 0 -0 -0 1 -2.2204460492503136e-16 
1 25.000000000000007 75.000000000000028 24.999999999999993 1 0 0 0 -2.2204460492503136e-16 -1 0 1 -2.2204460492503136e-16 
1 25.000000000000007 75 -25.000000000000021 0 -2.2204460492503136e-16 -1 -1 -0 0 -0 1 -2.2204460492503136e-16 
1 0 -75 75.000000000000028 0 4.9303806576313238e-32 1 0 -1 4.9303806576313238e-32 1 0 -0 
1 0 75 -75.000000000000028 0 4.9303806576313238e-32 1 0 -1 4.9303806576313238e-32 1 0 -0 
1 -25.000000000000007 75.000000000000028 24.999999999999993 0 2.2204460492503136e-16 1 1 0 -0 -0 1 -2.2204460492503136e-16 
1 25.000000000000007 75.000000000000028 24.999999999999993 -0.70710678118654757 1.5700924586837754e-16 0.70710678118654757 0.70710678118654757 1.5700924586837752e-16 0.70710678118654757 0 1 -2.2204460492503131e-16 
2 3.0839531013483936e-29 75.000000000000014 -1.6653345369377354e-14 0 1 -2.2204460492503136e-16 1 0 0 -0 2.2204460492503136e-16 1 50.000000000000014
1 -25.000000000000007 75.000000000000028 24.999999999999993 -0.70710678118654779 -1.5700924586837747e-16 -0.70710678118654724 -0.70710678118654724 1.5700924586837757e-16 0.70710678118654779 -2.4651903288156619e-32 1 -2.2204460492503131e-16 
1 3.2598888349173739e-15 -110.35824216289944 75.000000000000028 -6.6272745688289311e-96 4.9303806576313238e-32 1 0 -1 4.9303806576313238e-32 1 3.2674986346966133e-127 6.6272745688289311e-96 
1 3.2598888349173739e-15 39.641757837100563 -75.000000000000028 -6.6272745688289311e-96 4.9303806576313238e-32 1 0 -1 4.9303806576313238e-32 1 3.2674986346966133e-127 6.6272745688289311e-96 
1 -25.000000000000007 75.000000000000028 24.999999999999993 1 0 0 0 -2.2204460492503136e-16 -1 0 1 -2.2204460492503136e-16 
1 -25.000000000000007 75 -25.000000000000021 0.70710678118654702 -1.5700924586837764e-16 -0.70710678118654802 -0.70710678118654802 -1.5700924586837742e-16 -0.70710678118654702 0 1 -2.2204460492503136e-16 
2 0 75.000000000000014 -1.6658594000253467e-14 0 1 -2.2204460492503136e-16 1 0 0 -0 2.2204460492503136e-16 1 50.000000000000014
1 -25.000000000000007 75.000000000000028 24.999999999999993 -0.70710678118654557 -1.5700924586837796e-16 -0.70710678118654946 -0.70710678118654946 1.5700924586837707e-16 0.70710678118654557 -2.4651903288156619e-32 1 -2.2204460492503131e-16 
1 -35.35824216289943 -74.999999999999986 75.000000000000028 -1.3684555315672042e-48 4.9303806576313238e-32 1 0 -1 4.9303806576313238e-32 1 6.7470066836675349e-80 1.3684555315672042e-48 
1 -35.35824216289943 75.000000000000014 -75.000000000000028 -1.3684555315672042e-48 4.9303806576313238e-32 1 0 -1 4.9303806576313238e-32 1 6.7470066836675349e-80 1.3684555315672042e-48 
1 -25.000000000000007 75 -25.000000000000021 0 2.2204460492503136e-16 1 1 0 -0 -0 1 -2.2204460492503136e-16 
1 25.000000000000007 75 -25.000000000000021 0.70710678118654802 1.5700924586837742e-16 0.70710678118654702 0.70710678118654702 -1.5700924586837764e-16 -0.70710678118654802 0 1 -2.2204460492503136e-16 
2 -1.1528389404624891e-22 75.000000000000014 -1.6653345369377354e-14 0 1 -2.2204460492503136e-16 1 0 0 -0 2.2204460492503136e-16 1 50.000000000000014
1 -25.000000000000007 75 -25.000000000000021 0.70710678118654802 -1.5700924586837742e-16 -0.70710678118654702 -0.70710678118654702 -1.5700924586837764e-16 -0.70710678118654802 0 1 -2.2204460492503136e-16 
1 0 -39.641757837100563 75.000000000000028 -2.6708009153677772e-97 4.9303806576313238e-32 1 0 -1 4.9303806576313238e-32 1 1.3168065173513323e-128 2.6708009153677772e-97 
1 0 110.35824216289944 -75.000000000000028 -2.6708009153677772e-97 4.9303806576313238e-32 1 0 -1 4.9303806576313238e-32 1 1.3168065173513323e-128 2.6708009153677772e-97 
Triangulations 0

TShapes 171
Ve
1.00000202349831e-07
25 -25 75
0 0

0101101
*
Ve
1.00000202349831e-07
25 -25 -75
0 0

0101101
*
Ed
 1.00000202349831e-07 1 1 0
1  1 0 0 150
0

0101000
+171 3 -170 3 *
Ve
1.00000282796183e-07
25 25 75
0 0

0101101
*
Ve
1.00000282796183e-07
25 25 -75
0 0

0101101
*
Ed
 1.00000282796183e-07 1 1 0
1  2 0 0 150
0

0101000
+168 3 -167 3 *
Ed
 1.00000101095467e-07 1 1 0
1  3 0 0 50
0

0101000
+171 9 -168 9 *
Ed
 1.00000101095467e-07 1 1 0
1  4 0 0 50
0

0101000
+170 12 -167 12 *
Wi

0101100
+169 0 -166 0 -165 8 +164 11 *
Fa
0  1.00000101095467e-07 1 0

0111000
+163 0 *
Ve
1.00000248057696e-07
35.3553390593274 35.3553390593274 75
0 0

0101101
*
Ve
1.00000248057696e-07
35.3553390593274 35.3553390593274 -75
0 0

0101101
*
Ed
 1.00000248057696e-07 1 1 0
1  5 0 0 150
2  1 3 0 0 150
0

0101000
+161 3 -160 3 *
Ed
 1.00000101095467e-07 1 1 0
1  6 0 0 14.6446609406726
0

0101000
+168 9 -161 9 *
Ed
 1.00000101095467e-07 1 1 0
1  7 0 0 14.6446609406726
0

0101000
+167 12 -160 12 *
Wi

0101100
+166 0 -159 0 -158 8 +157 11 *
Fa
0  1.00000101095467e-07 2 0

0111000
+156 0 *
Ve
1.00000202912238e-07
35.3553390593274 -35.3553390593274 75
0 0

0101101
*
Ve
1.00000202912238e-07
35.3553390593274 -35.3553390593274 -75
0 0

0101101
*
Ed
 1.00000202912238e-07 1 1 0
1  8 0 0 150
2  2 3 0 0 150
0

0101000
+154 3 -153 3 *
Ed
 1.00000101095467e-07 1 1 0
1  9 0 5.49778714378214 7.06858347057703
2  3 3 13 5.49778714378214 7.06858347057703
0

0101000
+161 9 -154 9 *
Ed
 1.00000101095467e-07 1 1 0
1  10 0 5.49778714378214 7.06858347057703
2  4 3 14 5.49778714378214 7.06858347057703
0

0101000
+160 12 -153 12 *
Wi

0101100
+159 0 -152 0 -151 8 +150 11 *
Fa
0  1.00000101095467e-07 3 0

0111000
+149 0 *
Ed
 1.00000101095467e-07 1 1 0
1  11 0 0 14.6446609406726
0

0101000
+171 9 -154 9 *
Ed
 1.00000101095467e-07 1 1 0
1  12 0 0 14.6446609406726
0

0101000
+170 12 -153 12 *
Wi

0101100
+169 0 -152 0 -147 8 +146 11 *
Fa
0  1.00000101095467e-07 4 0

0111000
+145 0 *
Wi

0101100
+165 0 +158 0 +151 0 -147 0 *
Fa
0  1e-07 5 0

0111000
-143 16 *
Wi

0101100
+164 0 +157 0 +150 0 -146 0 *
Fa
0  1e-07 6 0

0111000
-141 16 *
Sh

0101100
-162 0 -155 0 -148 0 +144 0 +142 15 -140 17 *
So

0100000
+139 0 *
Ve
1e-07
-25 25 75
0 0

0101101
*
Ve
1e-07
-25 25 -75
0 0

0101101
*
Ed
 1e-07 1 1 0
1  13 0 0 150
0

0101000
+137 20 -136 20 *
Ve
1e-07
-25 -25 75
0 0

0101101
*
Ve
1e-07
-25 -25 -75
0 0

0101101
*
Ed
 1e-07 1 1 0
1  14 0 0 150
0

0101000
+134 20 -133 20 *
Ed
 1e-07 1 1 0
1  15 0 0 50
0

0101000
+137 26 -134 26 *
Ed
 1e-07 1 1 0
1  16 0 0 50
0

0101000
+136 29 -133 29 *
Wi

0101100
+135 0 -132 0 -131 25 +130 28 *
Fa
0  1e-07 7 0

0111000
+129 0 *
Ve
1e-07
25 -25 75
0 0

0101101
*
Ve
1e-07
25 -25 -75
0 0

0101101
*
Ed
 1e-07 1 1 0
1  17 0 0 150
0

0101000
+127 20 -126 20 *
Ed
 1e-07 1 1 0
1  18 0 0 50
0

0101000
+134 26 -127 26 *
Ed
 1e-07 1 1 0
1  19 0 0 50
0

0101000
+133 29 -126 29 *
Wi

0101100
+132 0 -125 0 -124 25 +123 28 *
Fa
0  1e-07 8 0

0111000
+122 0 *
Ve
1e-07
25 25 75
0 0

0101101
*
Ve
1e-07
25 25 -75
0 0

0101101
*
Ed
 1e-07 1 1 0
1  20 0 0 150
0

0101000
+120 20 -119 20 *
Ed
 1e-07 1 1 0
1  21 0 0 50
0

0101000
+127 26 -120 26 *
Ed
 1e-07 1 1 0
1  22 0 0 50
0

0101000
+126 29 -119 29 *
Wi

0101100
+125 0 -118 0 -117 25 +116 28 *
Fa
0  1e-07 9 0

0111000
+115 0 *
Ed
 1e-07 1 1 0
1  23 0 0 50
0

0101000
+120 26 -137 26 *
Ed
 1e-07 1 1 0
1  24 0 0 50
0

0101000
+119 29 -136 29 *
Wi

0101100
+118 0 -135 0 -113 25 +112 28 *
Fa
0  1e-07 10 0

0111000
+111 0 *
Wi

0101100
+131 0 +124 0 +117 0 +113 0 *
Fa
0  1e-07 11 0

0111000
+109 31 *
Wi

0101100
+130 0 +123 0 +116 0 +112 0 *
Fa
0  1e-07 12 0

0111000
+107 31 *
Sh

0101100
+128 0 +121 0 +114 0 +110 0 +108 30 -106 32 *
So

0100000
+105 0 *
Ve
1e-07
-25 -25 75
0 0

0101101
*
Ve
1e-07
-25 -25 -75
0 0

0101101
*
Ed
 1e-07 1 1 0
1  25 0 0 150
0

0101000
+103 35 -102 35 *
Ve
1e-07
25 -25 75
0 0

0101101
*
Ve
1e-07
25 -25 -75
0 0

0101101
*
Ed
 1e-07 1 1 0
1  26 0 0 150
0

0101000
+100 35 -99 35 *
Ed
 1e-07 1 1 0
1  27 0 0 50
0

0101000
+103 41 -100 41 *
Ed
 1e-07 1 1 0
1  28 0 0 50
0

0101000
+102 44 -99 44 *
Wi

0101100
+101 0 -98 0 -97 40 +96 43 *
Fa
0  1e-07 13 0

0111000
+95 0 *
Ve
1e-07
35.3553390593274 -35.3553390593274 75
0 0

0101101
*
Ve
1e-07
35.3553390593274 -35.3553390593274 -75
0 0

0101101
*
Ed
 1e-07 1 1 0
1  29 0 0 150
2  5 15 0 0 150
0

0101000
+93 35 -92 35 *
Ed
 1e-07 1 1 0
1  30 0 0 14.6446609406726
0

0101000
+100 41 -93 41 *
Ed
 1e-07 1 1 0
1  31 0 0 14.6446609406726
0

0101000
+99 44 -92 44 *
Wi

0101100
+98 0 -91 0 -90 40 +89 43 *
Fa
0  1e-07 14 0

0111000
+88 0 *
Ve
1e-07
-35.3553390593274 -35.3553390593274 75
0 0

0101101
*
Ve
1e-07
-35.3553390593274 -35.3553390593274 -75
0 0

0101101
*
Ed
 1e-07 1 1 0
1  32 0 0 150
2  6 15 0 0 150
0

0101000
+86 35 -85 35 *
Ed
 1e-07 1 1 0
1  33 0 0.785398163397448 2.35619449019234
2  7 15 45 0.785398163397448 2.35619449019234
0

0101000
+93 41 -86 41 *
Ed
 1e-07 1 1 0
1  34 0 0.785398163397448 2.35619449019234
2  8 15 46 0.785398163397448 2.35619449019234
0

0101000
+92 44 -85 44 *
Wi

0101100
+91 0 -84 0 -83 40 +82 43 *
Fa
0  1e-07 15 0

0111000
+81 0 *
Ed
 1e-07 1 1 0
1  35 0 0 14.6446609406726
0

0101000
+103 41 -86 41 *
Ed
 1e-07 1 1 0
1  36 0 0 14.6446609406726
0

0101000
+102 44 -85 44 *
Wi

0101100
+101 0 -84 0 -79 40 +78 43 *
Fa
0  1e-07 16 0

0111000
+77 0 *
Wi

0101100
+97 0 +90 0 +83 0 -79 0 *
Fa
0  1e-07 17 0

0111000
-75 48 *
Wi

0101100
+96 0 +89 0 +82 0 -78 0 *
Fa
0  1e-07 18 0

0111000
-73 48 *
Sh

0101100
-94 0 -87 0 -80 0 +76 0 +74 47 -72 49 *
So

0100000
+71 0 *
Ve
1e-07
-25 -25 75
0 0

0101101
*
Ve
1e-07
-25 -25 -75
0 0

0101101
*
Ed
 1e-07 1 1 0
1  37 0 0 150
0

0101000
+69 52 -68 52 *
Ve
1e-07
-25 25 75
0 0

0101101
*
Ve
1e-07
-25 25 -75
0 0

0101101
*
Ed
 1e-07 1 1 0
1  38 0 0 150
0

0101000
+66 52 -65 52 *
Ed
 1e-07 1 1 0
1  39 0 0 50
0

0101000
+69 58 -66 58 *
Ed
 1e-07 1 1 0
1  40 0 0 50
0

0101000
+68 61 -65 61 *
Wi

0101100
+67 0 -64 0 -63 57 +62 60 *
Fa
0  1e-07 19 0

0111000
+61 0 *
Ve
1e-07
-35.3553390593274 35.3553390593274 75
0 0

0101101
*
Ve
1e-07
-35.3553390593274 35.3553390593274 -75
0 0

0101101
*
Ed
 1e-07 1 1 0
1  41 0 0 150
2  9 21 0 0 150
0

0101000
+59 52 -58 52 *
Ed
 1e-07 1 1 0
1  42 0 0 14.6446609406726
0

0101000
+66 58 -59 58 *
Ed
 1e-07 1 1 0
1  43 0 0 14.6446609406726
0

0101000
+65 61 -58 61 *
Wi

0101100
+64 0 -57 0 -56 57 +55 60 *
Fa
0  1e-07 20 0

0111000
+54 0 *
Ve
1e-07
-35.3553390593274 -35.3553390593274 75
0 0

0101101
*
Ve
1e-07
-35.3553390593274 -35.3553390593274 -75
0 0

0101101
*
Ed
 1e-07 1 1 0
1  44 0 0 150
2  10 21 0 0 150
0

0101000
+52 52 -51 52 *
Ed
 1e-07 1 1 0
1  45 0 2.35619449019235 3.92699081698724
2  11 21 62 2.35619449019235 3.92699081698724
0

0101000
+52 58 -59 58 *
Ed
 1e-07 1 1 0
1  46 0 2.35619449019235 3.92699081698724
2  12 21 63 2.35619449019235 3.92699081698724
0

0101000
+51 61 -58 61 *
Wi

0101100
+50 0 -57 0 -49 57 +48 60 *
Fa
0  1e-07 21 0

0111000
+47 0 *
Ed
 1e-07 1 1 0
1  47 0 0 14.6446609406726
0

0101000
+69 58 -52 58 *
Ed
 1e-07 1 1 0
1  48 0 0 14.6446609406726
0

0101000
+68 61 -51 61 *
Wi

0101100
+67 0 -50 0 -45 57 +44 60 *
Fa
0  1e-07 22 0

0111000
+43 0 *
Wi

0101100
+63 0 +56 0 -49 0 -45 0 *
Fa
0  1e-07 23 0

0111000
+41 65 *
Wi

0101100
+62 0 +55 0 -48 0 -44 0 *
Fa
0  1e-07 24 0

0111000
+39 65 *
Sh

0101100
+60 0 +53 0 -46 0 -42 0 +40 64 -38 66 *
So

0100000
+37 0 *
Ve
1e-07
-25 25 75
0 0

0101101
*
Ve
1e-07
-25 25 -75
0 0

0101101
*
Ed
 1e-07 1 1 0
1  49 0 0 150
0

0101000
+35 69 -34 69 *
Ve
1e-07
25 25 75
0 0

0101101
*
Ve
1e-07
25 25 -75
0 0

0101101
*
Ed
 1e-07 1 1 0
1  50 0 0 150
0

0101000
+32 69 -31 69 *
Ed
 1e-07 1 1 0
1  51 0 0 50
0

0101000
+35 75 -32 75 *
Ed
 1e-07 1 1 0
1  52 0 0 50
0

0101000
+34 78 -31 78 *
Wi

0101100
+33 0 -30 0 -29 74 +28 77 *
Fa
0  1e-07 25 0

0111000
+27 0 *
Ve
1e-07
35.3553390593274 35.3553390593274 75
0 0

0101101
*
Ve
1e-07
35.3553390593274 35.3553390593274 -75
0 0

0101101
*
Ed
 1e-07 1 1 0
1  53 0 0 150
2  13 27 0 0 150
0

0101000
+25 69 -24 69 *
Ed
 1e-07 1 1 0
1  54 0 0 14.6446609406726
0

0101000
+32 75 -25 75 *
Ed
 1e-07 1 1 0
1  55 0 0 14.6446609406726
0

0101000
+31 78 -24 78 *
Wi

0101100
+30 0 -23 0 -22 74 +21 77 *
Fa
0  1e-07 26 0

0111000
+20 0 *
Ve
1e-07
-35.3553390593274 35.3553390593274 75
0 0

0101101
*
Ve
1e-07
-35.3553390593274 35.3553390593274 -75
0 0

0101101
*
Ed
 1e-07 1 1 0
1  56 0 0 150
2  14 27 0 0 150
0

0101000
+18 69 -17 69 *
Ed
 1e-07 1 1 0
1  57 0 3.92699081698724 5.49778714378214
2  15 27 79 3.92699081698724 5.49778714378214
0

0101000
+18 75 -25 75 *
Ed
 1e-07 1 1 0
1  58 0 3.92699081698724 5.49778714378214
2  16 27 80 3.92699081698724 5.49778714378214
0

0101000
+17 78 -24 78 *
Wi

0101100
+16 0 -23 0 -15 74 +14 77 *
Fa
0  1e-07 27 0

0111000
+13 0 *
Ed
 1e-07 1 1 0
1  59 0 0 14.6446609406726
0

0101000
+35 75 -18 75 *
Ed
 1e-07 1 1 0
1  60 0 0 14.6446609406726
0

0101000
+34 78 -17 78 *
Wi

0101100
+33 0 -16 0 -11 74 +10 77 *
Fa
0  1e-07 28 0

0111000
+9 0 *
Wi

0101100
+29 0 +22 0 -15 0 -11 0 *
Fa
0  1e-07 29 0

0111000
+7 82 *
Wi

0101100
+28 0 +21 0 -14 0 -10 0 *
Fa
0  1e-07 30 0

0111000
+5 82 *
Sh

0101100
+26 0 +19 0 -12 0 -8 0 +6 81 -4 83 *
So

0100000
+3 0 *
Co

1100000
+138 1 +104 18 +70 33 +36 50 +2 67 *

+1 0 //+
Dilate {{0, 0, 0}, {1/50, 1/50, 1/50}} {
  Volume{5}; Volume{2}; Volume{3}; Volume{4}; Volume{1}; 
}
