DBRep_DrawableShape

CASCADE Topology V1, (c) Matra-Datavision
Locations 9
1
              1               0               0               0 
              0               1               0               0 
              0               0               1               0 
1
              1               0               0               0 
              0 -2.22044604925031e-16              -1               0 
              0               1 -2.22044604925031e-16               0 
2  2 -1 0
1
              1               0               0               0 
              0               1               0               0 
              0               0               1               0 
1
              1               0               0               0 
              0 2.22044604925031e-16              -1               0 
              0               1 2.22044604925031e-16               0 
1
              1               0               0               0 
              0 -2.22044604925031e-16              -1               0 
              0               1 -2.22044604925031e-16               0 
2  4 1 5 1 6 -1 0
2  6 1 5 -1 4 -1 0
2  2 -1 6 1 5 -1 4 -1 0
Curve2ds 12
8 0 6.2831853071795862
1 0 0 1 0 
8 0 6.2831853071795862
1 0 4.7123889803846897 1 0 
8 0 6.2831853071795862
1 0 100.00000000000003 1 0 
8 0 6.2831853071795862
1 0 4.7123889803846897 1 0 
8 0 100.00000000000003
1 6.2831853071795862 0 0 1 
8 0 100.00000000000003
1 0 0 0 1 
8 0 6.2831853071795862
1 0 3.1415926535897931 1 0 
8 3.1415926535897931 4.7123889803846897
1 6.2831853071795862 0 0 1 
8 3.1415926535897931 4.7123889803846897
1 0 0 0 1 
8 0 6.2831853071795862
1 0 6.2831853071795862 1 0 
8 4.7123889803846897 6.2831853071795862
1 6.2831853071795862 0 0 1 
8 4.7123889803846897 6.2831853071795862
1 0 0 0 1 
Curves 7
2 50.000000000000014 0 0 -1 -0 0 0 -2.2204460492503136e-16 -1 0 -1 2.2204460492503136e-16 30.000000000000007
2 -50.000000000000014 0 0 -1 -0 0 0 -2.2204460492503136e-16 -1 0 -1 2.2204460492503136e-16 30.000000000000007
1 50.000000000000014 6.6613381477509392e-15 -30.000000000000007 -1 -0 0 
2 -60.0000000000014 0 0 -1 -0 0 0 -2.2204460492503136e-16 -1 0 -1 2.2204460492503136e-16 20.000000000000004
2 -50.000000000000014 4.4408920985006262e-15 -20.000000000000004 0 -1 -2.2204460492503126e-16 1 0 0 0 -2.2204460492503126e-16 1 10.000000000000002
2 60.000000000005556 0 0 -1 -0 0 0 -2.2204460492503136e-16 -1 0 -1 2.2204460492503136e-16 20.000000000000004
2 50.000000000000014 4.4408920985006262e-15 -20.000000000000004 0 -1 -2.2204460492503126e-16 1 0 0 0 -2.2204460492503126e-16 1 10
Polygon3D 0
PolygonOnTriangulations 0
Surfaces 5
2 50.000000000000014 0 0 -1 0 0 0 -2.2204460492503136e-16 -1 0 -1 2.2204460492503136e-16 30.000000000000007
7 0 0 0 -1 0 0 
8 4.7123889803846897 6.2831853071795862
2 50.000000000000014 -4.4408920985006277e-15 -20.000000000000004 0 -1 2.2204460492503136e-16 1 0 0 0 2.2204460492503136e-16 1 10
7 0 0 0 -1 0 0 
8 3.1415926535897931 4.7123889803846897
2 -50.000000000000014 -4.4408920985006277e-15 -20.000000000000004 0 -1 2.2204460492503136e-16 1 0 0 0 2.2204460492503136e-16 1 10.000000000000002
1 -60.000000000002785 0 0 -1 0 0 0 -2.2204460492503136e-16 -1 0 -1 2.2204460492503136e-16 
1 60.000000000011099 0 0 -1 0 0 0 -2.2204460492503136e-16 -1 0 -1 2.2204460492503136e-16 
Triangulations 0

TShapes 24
Ve
1e-07
50 30 -3.15544362088405e-30
0 0

0101101
*
Ed
 1e-07 1 1 0
1  1 0 0 6.28318530717959
2  1 1 0 0 6.28318530717959
2  2 2 0 0 6.28318530717959
4 G1 1 0 2 0
0

0101000
+24 3 -24 3 *
Ve
1e-07
-50 30 -3.15544362088405e-30
0 0

0101101
*
Ed
 1e-07 1 1 0
1  2 0 0 6.28318530717959
2  3 1 0 0 6.28318530717959
2  4 3 0 0 6.28318530717959
4 G1 1 0 3 0
0

0101000
+22 3 -22 3 *
Ed
 1e-07 1 1 0
1  3 0 0 100
3  5 6CN 1 8 0 100
0

0101000
+24 9 -22 9 *
Wi

0101100
+23 0 -21 0 -20 7 +20 7 *
Fa
0  1e-07 1 0

0111000
+19 0 *
Ve
1.00001385558335e-07
-60.0000000000014 20 -1.57772181044202e-30
0 0

0101101
*
Ed
 1.00001385558335e-07 1 1 0
1  4 0 0 6.28318530717959
2  7 3 0 0 6.28318530717959
4 G1 3 0 4 0
0

0101000
+17 3 -17 3 *
Ed
 1e-07 1 1 0
1  5 0 3.14159265358979 4.71238898038469
3  8 9CN 3 8 3.14159265358979 4.71238898038469
0

0101000
+17 9 -22 9 *
Wi

0101100
+16 0 -21 0 -15 7 +15 7 *
Fa
0  1e-07 3 0

0111000
+14 0 *
Wi

0101100
+16 0 *
Fa
0  1e-07 4 0

0111000
+12 0 *
Ve
1.00005542233624e-07
60.0000000000056 20 -1.57772181044202e-30
0 0

0101101
*
Ed
 1.00005542233624e-07 1 1 0
1  6 0 0 6.28318530717959
2  10 2 0 0 6.28318530717959
4 G1 5 0 2 0
0

0101000
+10 3 -10 3 *
Wi

0101100
+9 0 *
Fa
0  1e-07 5 0

0111000
+8 0 *
Ed
 1e-07 1 1 0
1  7 0 4.71238898038469 6.28318530717959
3  11 12CN 2 8 4.71238898038469 6.28318530717959
0

0101000
+24 9 -10 9 *
Wi

0101100
+23 0 -9 0 -6 7 +6 7 *
Fa
0  1e-07 2 0

0111000
+5 0 *
Sh

0101100
+18 0 -13 0 +11 0 -7 0 -4 0 *
So

0100000
+3 0 *
Co

1100000
+2 1 *

+1 0 