DBRep_DrawableShape

CASCADE Topology V3, (c) Open Cascade
Locations 44
1
              1               0               0               0 
              0               1               0               0 
              0               0               1               0 
1
              1               0               0               0 
              0 -2.22044604925031e-16              -1               0 
              0               1 -2.22044604925031e-16               0 
1
              1               0               0               0 
              0 -2.22044604925031e-16              -1               0 
              0               1 -2.22044604925031e-16               0 
2  2 1 3 -1 0
1
              1               0               0               0 
              0 -2.22044604925031e-16              -1               0 
              0               1 -2.22044604925031e-16               0 
2  5 -1 3 1 2 -1 0
1
              1               0               0               0 
              0               1               0               0 
              0               0               1               0 
1
              1               0               0               0 
              0 2.22044604925031e-16              -1               0 
              0               1 2.22044604925031e-16               0 
1
              1               0               0               0 
              0 -2.22044604925031e-16              -1               0 
              0               1 -2.22044604925031e-16               0 
2  7 1 8 1 9 -1 0
2  9 1 8 -1 7 -1 0
2  5 -1 3 1 2 -1 9 1 8 -1 7 -1 0
1
              1               0               0               0 
              0               1               0 4.44089209850063e-15 
              0               0               1              10 
2  7 1 8 1 9 -1 13 1 0
2  13 -1 9 1 8 -1 7 -1 0
2  5 -1 3 1 2 -1 13 -1 9 1 8 -1 7 -1 0
2  9 -1 2 1 3 -1 0
2  7 1 8 1 9 -1 2 1 3 -1 0
2  5 -1 0
2  9 -1 13 1 2 1 3 -1 0
2  7 1 8 1 9 -1 13 1 2 1 3 -1 0
1
              1               0               0               0 
              0               1               0               0 
              0               0               1               0 
1
              1 -6.0771633572863e-64 8.21073318940323e-48 8.21073318940323e-47 
8.21073318940323e-48 2.22044604925031e-16              -1             -10 
-1.21543267145725e-63               1 2.22044604925031e-16 2.22044604925031e-15 
2  22 1 23 1 3 -1 0
2  3 1 23 -1 22 -1 0
2  5 -1 3 1 23 -1 22 -1 0
1
              1               0               0               0 
              0               1               0               0 
              0               0               1               0 
1
              1               0               0               0 
              0               1               0               0 
              0               0               1               0 
2  28 -1 0
1
              1               0               0               0 
              0               1               0               0 
              0               0               1               0 
1
              1               0               0               0 
              0 2.22044604925031e-16              -1               0 
              0               1 2.22044604925031e-16               0 
1
              1               0               0               0 
              0 -2.22044604925031e-16              -1               0 
              0               1 -2.22044604925031e-16               0 
2  30 1 31 1 32 -1 28 1 0
1
              1               0               0               0 
              0 -2.22044604925031e-16              -1               0 
              0               1 -2.22044604925031e-16               0 
2  34 -1 28 -1 32 1 31 -1 30 -1 0
2  34 -1 0
2  34 -1 28 -1 0
1
              1               0               0               0 
              0               1               0 4.44089209850063e-15 
              0               0               1              10 
2  30 1 31 1 32 -1 38 1 28 1 0
2  34 -1 28 -1 38 -1 32 1 31 -1 30 -1 0
2  32 -1 28 1 0
2  28 -1 32 1 0
2  32 -1 38 1 28 1 0
2  28 -1 38 -1 32 1 0
Curve2ds 48
8 0 10.000000000000002
1 1.9819341891172444 0 0 -1 
8 0 10.000000000000002
1 10.584436425241929 0 0 -1 
8 0 10.000000000000002
1 7.442843771652135 0 0 -1 
8 0 10.000000000000002
1 5.1235268427070384 0 0 -1 
8 1.9819341891172444 7.442843771652135
1 0 0 1 0 
8 1.9819341891172444 7.442843771652135
1 0 -10.000000000000002 1 0 
8 5.1235268427070384 10.584436425241929
1 0 0 1 0 
8 5.1235268427070384 10.584436425241929
1 0 -10.000000000000002 1 0 
8 0 6.2831853071795862
1 0 -10.000000000000004 1 0 
8 0 6.2831853071795862
1 0 -10.000000000000004 1 0 
8 0 6.2831853071795862
1 0 0 1 0 
8 0 6.2831853071795862
1 0 0 1 0 
8 0 10.000000000000004
1 0 0 0 -1 
8 0 10.000000000000004
1 6.2831853071795862 0 0 -1 
8 0 10.000000000000002
1 0 0 0 -1 
8 0 10.000000000000002
1 6.2831853071795862 0 0 -1 
8 0 10.000000000000002
1 0 0 0 1 
8 4.7123889803846897 6.2831853071795862
1 -4.7123889803846897 0 1 0 
8 0 1.5707963267948966
1 0 0 1 0 
8 4.7123889803846897 6.2831853071795862
1 -4.7123889803846897 0 1 0 
8 1.5707963267948966 3.1415926535897931
1 -1.5707963267948966 0 1 0 
8 4.7123889803846897 6.2831853071795862
1 -4.7123889803846897 0 1 0 
8 1.5707963267948966 3.1415926535897931
1 -1.5707963267948966 0 1 0 
8 3.1415926535897931 4.7123889803846897
1 -3.1415926535897931 0 1 0 
8 3.1415926535897931 4.7123889803846897
1 -3.1415926535897931 0 1 0 
8 0 10.000000000000002
1 1.5707963267948966 0 0 1 
8 4.7123889803846897 6.2831853071795862
1 -4.7123889803846897 10.000000000000002 1 0 
8 0 10.000000000000002
1 0 0 0 1 
8 0 1.5707963267948966
1 0 10.000000000000002 1 0 
8 4.7123889803846897 6.2831853071795862
1 -4.7123889803846897 10.000000000000002 1 0 
8 1.5707963267948966 3.1415926535897931
1 -1.5707963267948966 10.000000000000002 1 0 
8 4.7123889803846932 6.2831853071795862
1 -4.7123889803846897 10.000000000000002 1 0 
8 1.5707963267948966 3.1415926535897931
1 -1.5707963267948966 10.000000000000002 1 0 
8 3.1415926535897931 4.7123889803846897
1 -3.1415926535897931 10.000000000000002 1 0 
8 3.1415926535897931 4.7123889803846897
1 -3.1415926535897931 10.000000000000002 1 0 
8 0 10.000000000000002
1 1.5707963267948966 0 0 1 
8 0 10.000000000000002
1 1.5707963267948966 0 0 1 
8 0 10.000000000000002
1 0 0 0 1 
8 0 10.000000000000002
1 0 0 0 1 
8 0 10.000000000000002
1 1.5707963267948966 0 0 1 
8 0 10.000000000000002
1 1.5707963267948966 0 0 1 
8 0 10.000000000000002
1 0 0 0 1 
8 0 10.000000000000002
1 0 0 0 1 
8 0 10.000000000000002
1 1.5707963267948966 0 0 1 
8 0 10.000000000000002
1 1.5707963267948966 0 0 1 
8 0 10.000000000000002
1 0 0 0 1 
8 0 10.000000000000002
1 0 0 0 1 
8 0 10.000000000000002
1 1.5707963267948966 0 0 1 
Curves 72
1 23.204168476687283 5.1070259132757217e-15 23.000000000000004 0 -1 2.2204460492503136e-16 
1 32.795831523312735 5.1070259132757217e-15 23.000000000000004 0 -1 2.2204460492503136e-16 
2 28.000000000000007 -2.6645352591003749e-15 12.000000000000004 0 -1 -2.2204460492503121e-16 1 0 0 0 -2.2204460492503121e-16 1 12.000000000000004
2 28.000000000000007 -10.000000000000004 2.0000000000000036 0 -1 -2.2204460492503121e-16 1 0 0 0 -2.2204460492503121e-16 1 12.000000000000004
2 28.000000000000007 -7.5495165674510629e-15 34.000000000000007 0 -1 -2.2204460492503121e-16 1 0 0 0 -2.2204460492503121e-16 1 12.000000000000004
2 28.000000000000007 -10.000000000000009 24.000000000000007 0 -1 -2.2204460492503121e-16 1 0 0 0 -2.2204460492503121e-16 1 12.000000000000004
2 28.000000000000007 2.6645352591003773e-15 12.000000000000004 8.210733189403225e-48 -1 2.2204460492503136e-16 1 8.210733189403225e-48 -1.2154326714572548e-63 -6.0771633572862712e-64 2.2204460492503136e-16 1 7.5000000000000018
2 28.000000000000007 8.4376949871511929e-15 34.000000000000007 8.210733189403225e-48 -1 2.2204460492503136e-16 1 8.210733189403225e-48 -1.2154326714572548e-63 -6.0771633572862712e-64 2.2204460492503136e-16 1 7.5000000000000018
2 28.000000000000007 -10.000000000000005 2 8.2107331894032275e-48 -1 -2.2204460492503126e-16 1 8.2107331894032262e-48 8.2107331894032275e-48 -8.2107331894032262e-48 -2.2204460492503126e-16 1 7.5000000000000018
2 28.000000000000007 -10.000000000000011 24.000000000000004 8.2107331894032275e-48 -1 -2.2204460492503126e-16 1 8.2107331894032262e-48 8.2107331894032275e-48 -8.2107331894032262e-48 -2.2204460492503126e-16 1 7.5000000000000018
1 35.500000000000007 -10.000000000000002 12.000000000000007 -8.2107331894032262e-48 1 -2.2204460492503136e-16 
1 35.500000000000007 -9.9999999999999947 34.000000000000014 -8.2107331894032262e-48 1 -2.2204460492503136e-16 
1 -1.387778780781446e-17 0 0 0 -2.2204460492503126e-16 1 
1 -2.2204460492503136e-16 2.2204460492503136e-16 1 0 -1 2.2204460492503136e-16 
1 -1.387778780781446e-17 6.6613381477509424e-15 30.000000000000007 0 -1 2.2204460492503136e-16 
1 -1.387778780781446e-17 -10.000000000000002 -10.000000000000002 0 -2.2204460492503126e-16 1 
8 4.7123889803846897 6.2831853071795862
2 1 2.2204460492503136e-16 1 0 -1 2.2204460492503136e-16 0 -2.2204460492503136e-16 -1 1 0 0 1.0000000000000002
1 -1.387778780781446e-17 -6.6613381477509392e-15 30.000000000000007 -1 -0 0 
1 6.0000000000000018 0 0 -1 -0 0 
8 0 1.5707963267948966
2 -5.0000000000000009 6.8833827526759737e-15 31.000000000000007 -0 1 -2.2204460492503136e-16 0 -2.2204460492503136e-16 -1 -1 -0 0 1.0000000000000002
8 4.7123889803846897 6.2831853071795862
2 5.0000000000000009 2.2204460492503136e-16 1 -0 1 -2.2204460492503136e-16 0 -2.2204460492503136e-16 -1 -1 -0 0 1.0000000000000002
1 -6.0000000000000018 -6.6613381477509392e-15 30.000000000000007 0 -2.2204460492503126e-16 1 
1 6.0000000000000018 -6.6613381477433977e-15 29.999999999966043 0 2.2204460492503126e-16 -1 
8 1.5707963267948966 3.1415926535897931
2 -5.0000000000000009 7.7715611723717965e-15 34.999999999980631 -0 1 -2.2204460492503136e-16 0 -2.2204460492503136e-16 -1 -1 -0 0 1.0000000000000002
1 12.000000000000004 -6.6613381477433977e-15 29.999999999966043 -1 -0 0 
1 -6.0000000000000018 -7.9936057772968246e-15 35.999999999980631 1 0 0 
8 4.7123889803846897 6.2831853071795862
2 11.000000000000002 6.8833827526684322e-15 30.999999999966043 -0 1 -2.2204460492503136e-16 0 -2.2204460492503136e-16 -1 -1 -0 0 1.0000000000000002
1 0 -7.9936057772968246e-15 35.999999999980631 0 -2.2204460492503126e-16 1 
1 12.000000000000004 -7.9936057772935856e-15 35.999999999966043 0 2.2204460492503126e-16 -1 
8 1.5707963267948966 3.1415926535897931
2 1 9.5479180117688079e-15 42.999999999966043 -0 1 -2.2204460492503136e-16 0 -2.2204460492503136e-16 -1 -1 -0 0 1.0000000000000002
8 3.1415926535897931 4.7123889803846897
2 11.000000000000002 7.7715611723685574e-15 34.999999999966043 -0 1 -2.2204460492503136e-16 0 -2.2204460492503136e-16 -1 -1 -0 0 1.0000000000000002
1 0 -9.769962616693836e-15 43.999999999966043 1 0 0 
1 6.0000000000000018 -7.9936057772935856e-15 35.999999999966043 1 0 0 
8 3.1415926535897931 4.7123889803846897
2 5.0000000000000009 9.5479180117688079e-15 42.999999999966043 -0 1 -2.2204460492503136e-16 0 -2.2204460492503136e-16 -1 -1 -0 0 1.0000000000000002
1 6.0000000000000018 -9.769962616693836e-15 43.999999999966043 0 2.2204460492503126e-16 -1 
1 0.99999999999999989 -4.930380657631326e-32 -2.2204460492503136e-16 0 -1 2.2204460492503136e-16 
8 4.7123889803846897 6.2831853071795862
2 1 -10.000000000000002 1.0000000000000022 0 -1 2.2204460492503136e-16 0 -2.2204460492503136e-16 -1 1 0 0 1.0000000000000002
1 -5.0000000000000009 6.6613381477509424e-15 30.000000000000007 0 -1 2.2204460492503136e-16 
1 -1.387778780781446e-17 -10.000000000000009 20.000000000000007 -1 -0 0 
1 6.0000000000000018 -10.000000000000002 -10.000000000000002 -1 -0 0 
8 0 1.5707963267948966
2 -5.0000000000000009 -9.9999999999999947 31.000000000000007 -0 1 -2.2204460492503136e-16 0 -2.2204460492503136e-16 -1 -1 -0 0 1.0000000000000002
8 4.7123889803846897 6.2831853071795862
2 5.0000000000000009 -10.000000000000002 1.0000000000000022 -0 1 -2.2204460492503136e-16 0 -2.2204460492503136e-16 -1 -1 -0 0 1.0000000000000002
1 -6.0000000000000018 -10.000000000000009 20.000000000000007 0 -2.2204460492503126e-16 1 
1 6.0000000000000018 -10.000000000000009 19.999999999966043 0 2.2204460492503126e-16 -1 
8 1.5707963267948966 3.1415926535897931
2 -5.0000000000000009 -9.9999999999999929 34.999999999980638 -0 1 -2.2204460492503136e-16 0 -2.2204460492503136e-16 -1 -1 -0 0 1.0000000000000002
1 12.000000000000004 -10.000000000000009 19.999999999966043 -1 -0 0 
1 -6.0000000000000018 -10.000000000000009 25.999999999980631 1 0 0 
8 4.7123889803846932 6.2831853071795862
2 11.000000000000002 -9.9999999999999947 30.999999999966043 -0 1 -2.2204460492503136e-16 0 -2.2204460492503136e-16 -1 -1 -0 0 1.0000000000000002
1 0 -10.000000000000009 25.999999999980631 0 -2.2204460492503126e-16 1 
1 12.000000000000004 -10.000000000000009 25.999999999966043 0 2.2204460492503126e-16 -1 
8 1.5707963267948966 3.1415926535897931
2 1 -9.9999999999999911 42.99999999996605 -0 1 -2.2204460492503136e-16 0 -2.2204460492503136e-16 -1 -1 -0 0 1.0000000000000002
8 3.1415926535897931 4.7123889803846897
2 11.000000000000002 -9.9999999999999929 34.99999999996605 -0 1 -2.2204460492503136e-16 0 -2.2204460492503136e-16 -1 -1 -0 0 1.0000000000000002
1 0 -10.000000000000011 33.999999999966043 1 0 0 
1 6.0000000000000018 -10.000000000000009 25.999999999966043 1 0 0 
8 3.1415926535897931 4.7123889803846897
2 5.0000000000000009 -9.9999999999999911 42.99999999996605 -0 1 -2.2204460492503136e-16 0 -2.2204460492503136e-16 -1 -1 -0 0 1.0000000000000002
1 6.0000000000000018 -10.000000000000011 33.999999999966043 0 2.2204460492503126e-16 -1 
1 5.0000000000000009 -4.930380657631326e-32 -2.2204460492503136e-16 0 -1 2.2204460492503136e-16 
1 -6.0000000000000018 6.8833827526759737e-15 31.000000000000007 0 -1 2.2204460492503136e-16 
1 6.0000000000000018 2.2204460492503136e-16 1 0 -1 2.2204460492503136e-16 
1 -6.0000000000000018 7.7715611723717965e-15 34.999999999980631 0 -1 2.2204460492503136e-16 
1 6.0000000000000018 6.6613381477434009e-15 29.999999999966043 0 -1 2.2204460492503136e-16 
1 -5.0000000000000009 7.9936057772968278e-15 35.999999999980631 0 -1 2.2204460492503136e-16 
1 11.000000000000002 6.6613381477434009e-15 29.999999999966043 0 -1 2.2204460492503136e-16 
1 0 7.9936057772968278e-15 35.999999999980631 0 -1 2.2204460492503136e-16 
1 12.000000000000004 6.8833827526684322e-15 30.999999999966043 0 -1 2.2204460492503136e-16 
1 -2.2204460492503136e-16 9.5479180117688079e-15 42.999999999966043 0 -1 2.2204460492503136e-16 
1 12.000000000000004 7.7715611723685574e-15 34.999999999966043 0 -1 2.2204460492503136e-16 
1 0.99999999999999989 9.7699626166938392e-15 43.999999999966043 0 -1 2.2204460492503136e-16 
1 11.000000000000002 7.9936057772935887e-15 35.999999999966043 0 -1 2.2204460492503136e-16 
1 5.0000000000000009 9.7699626166938392e-15 43.999999999966043 0 -1 2.2204460492503136e-16 
1 6.0000000000000018 7.9936057772935887e-15 35.999999999966043 0 -1 2.2204460492503136e-16 
1 6.0000000000000018 9.5479180117688079e-15 42.999999999966043 0 -1 2.2204460492503136e-16 
Polygon3D 0
PolygonOnTriangulations 0
Surfaces 28
2 28.000000000000007 2.6645352591003773e-15 12.000000000000004 0 1 -2.2204460492503136e-16 1 0 0 -0 2.2204460492503136e-16 1 12.000000000000004
2 28.000000000000007 7.5495165674510676e-15 34.000000000000007 0 1 -2.2204460492503136e-16 1 0 0 -0 2.2204460492503136e-16 1 12.000000000000004
1 28.000000000000011 -23.000000000000007 7.8886090522101198e-31 -8.210733189403225e-48 4.9303806576313238e-32 1 0 -1 4.9303806576313238e-32 1 4.0482040102005209e-79 8.210733189403225e-48 
2 28.000000000000007 -10.000000000000002 12.000000000000007 8.210733189403225e-48 -1 2.2204460492503136e-16 1 8.210733189403225e-48 -1.2154326714572548e-63 -6.0771633572862712e-64 2.2204460492503136e-16 1 7.5000000000000018
2 28.000000000000007 -9.9999999999999947 34.000000000000014 8.210733189403225e-48 -1 2.2204460492503136e-16 1 8.210733189403225e-48 -1.2154326714572548e-63 -6.0771633572862712e-64 2.2204460492503136e-16 1 7.5000000000000018
1 28.000000000000011 -13.000000000000009 -10.000000000000004 -8.210733189403225e-48 4.9303806576313238e-32 1 0 -1 4.9303806576313238e-32 1 4.0482040102005209e-79 8.210733189403225e-48 
1 -1.387778780781446e-17 0 0 -1 -0 0 0 2.2204460492503136e-16 1 -0 1 -2.2204460492503136e-16 
2 1 2.2204460492503136e-16 1 0 -1 2.2204460492503136e-16 -1 0 0 -0 -2.2204460492503136e-16 -1 1.0000000000000002
1 3.0000000000009384 -24.129032258047769 1.577721810442024e-30 -1.4012984643248171e-44 4.9303806576313238e-32 1 0 -1 4.9303806576313238e-32 1 6.9089348440755557e-76 1.4012984643248171e-44 
2 -5.0000000000000009 6.8833827526759737e-15 31.000000000000007 0 -1 2.2204460492503136e-16 0 -2.2204460492503136e-16 -1 -1 -0 -0 1.0000000000000002
2 5.0000000000000009 2.2204460492503136e-16 1 0 -1 2.2204460492503136e-16 1 0 0 0 -2.2204460492503136e-16 -1 1.0000000000000002
2 -5.0000000000000009 7.7715611723717965e-15 34.999999999980631 0 -1 2.2204460492503136e-16 -1 0 0 0 2.2204460492503136e-16 1 1.0000000000000002
2 11.000000000000002 6.8833827526684322e-15 30.999999999966043 0 -1 2.2204460492503136e-16 1 0 0 0 -2.2204460492503136e-16 -1 1.0000000000000002
2 1 9.5479180117688079e-15 42.999999999966043 0 -1 2.2204460492503136e-16 -1 0 0 0 2.2204460492503136e-16 1 1.0000000000000002
2 11.000000000000002 7.7715611723685574e-15 34.999999999966043 0 -1 2.2204460492503136e-16 0 2.2204460492503136e-16 1 1 -0 -0 1.0000000000000002
2 5.0000000000000009 9.5479180117688079e-15 42.999999999966043 0 -1 2.2204460492503136e-16 0 2.2204460492503136e-16 1 1 -0 -0 1.0000000000000002
1 6.0000000000000018 0 0 0 -2.2204460492503136e-16 -1 -1 -0 0 -0 1 -2.2204460492503136e-16 
1 -1.387778780781446e-17 6.6613381477509424e-15 30.000000000000007 0 -2.2204460492503136e-16 -1 -1 -0 0 -0 1 -2.2204460492503136e-16 
1 3.0000000000009384 -14.129032258047769 -10.000000000000004 -1.4012984643248171e-44 4.9303806576313238e-32 1 0 -1 4.9303806576313238e-32 1 6.9089348440755557e-76 1.4012984643248171e-44 
1 -6.0000000000000018 6.6613381477509424e-15 30.000000000000007 -1 -0 0 0 2.2204460492503136e-16 1 -0 1 -2.2204460492503136e-16 
1 6.0000000000000018 6.6613381477434009e-15 29.999999999966043 1 0 0 0 -2.2204460492503136e-16 -1 0 1 -2.2204460492503136e-16 
1 -6.0000000000000018 7.9936057772968278e-15 35.999999999980631 0 2.2204460492503136e-16 1 1 0 -0 -0 1 -2.2204460492503136e-16 
1 12.000000000000004 6.6613381477434009e-15 29.999999999966043 0 -2.2204460492503136e-16 -1 -1 -0 0 -0 1 -2.2204460492503136e-16 
1 12.000000000000004 7.9936057772935887e-15 35.999999999966043 1 0 0 0 -2.2204460492503136e-16 -1 0 1 -2.2204460492503136e-16 
1 0 7.9936057772968278e-15 35.999999999980631 -1 -0 0 0 2.2204460492503136e-16 1 -0 1 -2.2204460492503136e-16 
1 0 9.7699626166938392e-15 43.999999999966043 0 2.2204460492503136e-16 1 1 0 -0 -0 1 -2.2204460492503136e-16 
1 6.0000000000000018 7.9936057772935887e-15 35.999999999966043 0 2.2204460492503136e-16 1 1 0 -0 -0 1 -2.2204460492503136e-16 
1 6.0000000000000018 9.7699626166938392e-15 43.999999999966043 1 0 0 0 -2.2204460492503136e-16 -1 0 1 -2.2204460492503136e-16 
Triangulations 0

TShapes 185
Ve
1.00000001776357e-07
23.2041684766873 -23 3.15544362088405e-30
0 0

0101101
*
Ve
1.00000001776357e-07
23.2041684766873 -23 -10
0 0

0101101
*
Ed
 1.00000001776357e-07 1 1 0
1  1 0 0 10
2  1 1 0 0 10
2  2 2 0 0 10
0

0101000
+185 6 -184 6 *
Ve
1.00000001776357e-07
32.7958315233127 -23 3.15544362088405e-30
0 0

0101101
*
Ve
1.00000001776357e-07
32.7958315233127 -23 -10
0 0

0101101
*
Ed
 1.00000001776357e-07 1 1 0
1  2 0 0 10
2  3 1 0 0 10
2  4 2 0 0 10
0

0101000
+182 6 -181 6 *
Ed
 1e-07 1 1 0
1  3 0 1.98193418911724 7.44284377165213
2  5 1 11 1.98193418911724 7.44284377165213
0

0101000
+185 12 -182 12 *
Ed
 1e-07 1 1 0
1  4 0 1.98193418911724 7.44284377165213
2  6 1 15 1.98193418911724 7.44284377165213
0

0101000
+184 16 -181 16 *
Wi

0101100
+183 0 -180 0 -179 10 +178 14 *
Fa
0  1e-07 1 0

0111000
+177 0 *
Ed
 1e-07 1 1 0
1  5 0 5.12352684270704 10.5844364252419
2  7 2 11 5.12352684270704 10.5844364252419
0

0101000
+182 12 -185 12 *
Ed
 1e-07 1 1 0
1  6 0 5.12352684270704 10.5844364252419
2  8 2 15 5.12352684270704 10.5844364252419
0

0101000
+181 16 -184 16 *
Wi

0101100
+180 0 -183 0 -175 10 +174 14 *
Fa
0  1e-07 2 0

0111000
+173 0 *
Wi

0101100
-179 18 -175 18 *
Ve
1.00000001776357e-07
35.5 -12 1.57772181044202e-30
0 0

0101101
*
Ed
 1e-07 1 1 0
1  7 0 0 6.28318530717959
2  9 4 0 0 6.28318530717959
0

0101100
+170 19 -170 19 *
Wi

0101100
+169 0 *
Ve
1.00000001776357e-07
35.5 -34 -8.88178419700122e-16
0 0

0101101
*
Ed
 1e-07 1 1 0
1  8 0 0 6.28318530717959
2  10 5 0 0 6.28318530717959
0

0101100
+167 19 -167 19 *
Wi

0101100
+166 0 *
Fa
0  1e-07 3 17

0111000
+171 0 +168 0 +165 0 *
Wi

0101100
-178 21 -174 21 *
Ve
1.00000001776357e-07
35.5 -12 -10
0 0

0101101
*
Ed
 1.00000001776357e-07 1 1 0
1  9 0 0 6.28318530717959
2  11 4 25 0 6.28318530717959
0

0101100
+162 26 -162 26 *
Wi

0101100
+161 24 *
Ve
1.00000001776357e-07
35.5 -34 -10
0 0

0101101
*
Ed
 1.00000001776357e-07 1 1 0
1  10 0 0 6.28318530717959
2  12 5 25 0 6.28318530717959
0

0101100
+159 26 -159 26 *
Wi

0101100
+158 24 *
Fa
0  1e-07 6 20

0111000
+163 0 +160 0 +157 0 *
Ed
 1e-07 1 1 0
1  11 0 0 10
3  13 14CN 4 0 0 10
0

0101000
+162 19 -170 19 *
Wi

0101100
-161 24 -155 0 +169 0 +155 0 *
Fa
0  1e-07 4 0

0111000
+154 0 *
Ed
 1e-07 1 1 0
1  12 0 0 10
3  15 16CN 5 0 0 10
0

0101000
+159 19 -167 19 *
Wi

0101100
-158 24 -152 0 +166 0 +152 0 *
Fa
0  1e-07 5 0

0111000
+151 0 *
Sh

0101100
-176 4 -172 4 +164 0 -156 0 -153 0 -150 0 *
So

0100000
+149 0 *
Ve
1e-07
-2.22044604925031e-16 -1 9.86076131526265e-32
0 0

0101101
*
Ve
1e-07
-1.38777878078145e-17 -30 3.15544362088405e-30
0 0

0101101
*
Ed
 1e-07 1 1 0
1  13 0 1 30
0

0101000
+147 35 -146 35 *
Ve
1e-07
-2.22044604925031e-16 -1 -10
0 0

0101101
*
Ed
 1e-07 1 1 0
1  14 0 -0 10
2  17 8 0 -0 10
4 G1 7 28 8 0
0

0101000
+147 36 -144 36 *
Ve
1e-07
-1.38777878078145e-17 -30 -10
0 0

0101101
*
Ed
 1e-07 1 1 0
1  15 0 0 10
0

0101000
+146 37 -142 37 *
Ed
 1e-07 1 1 0
1  16 0 1 30
0

0101000
+144 40 -142 40 *
Wi

0101100
-145 33 +143 0 -141 28 +140 39 *
Fa
0  1e-07 7 0

0111000
+139 29 *
Ve
1e-07
1 2.22044604925031e-16 -2.18952885050753e-47
0 0

0101101
*
Ed
 1e-07 1 1 0
1  17 0 4.71238898038469 6.28318530717959
2  18 8 0 4.71238898038469 6.28318530717959
0

0101000
+147 36 -137 36 *
Ve
1e-07
-5 -30 3.15544362088405e-30
0 0

0101101
*
Ed
 1e-07 1 1 0
1  18 0 0 5
0

0101000
-135 35 +146 35 *
Ve
1e-07
5 2.22044604925031e-16 -2.18952885050753e-47
0 0

0101101
*
Ed
 1e-07 1 1 0
1  19 0 1 5
0

0101000
+133 35 -137 35 *
Ve
1e-07
-6 -31 3.15544362088405e-30
0 0

0101101
*
Ed
 1e-07 1 1 0
1  20 0 0 1.5707963267949
2  19 10 0 0 1.5707963267949
0

0101000
+135 36 -131 36 *
Ve
1e-07
6 -1 9.86076131526265e-32
0 0

0101101
*
Ed
 1e-07 1 1 0
1  21 0 4.71238898038469 6.28318530717959
2  20 11 0 4.71238898038469 6.28318530717959
0

0101000
+129 36 -133 36 *
Ve
1e-07
-6 -34.9999999999806 3.15544362088405e-30
0 0

0101101
*
Ed
 1e-07 1 1 0
1  22 0 1 4.99999999998062
0

0101000
+131 35 -127 35 *
Ve
1e-07
6 -29.9999999999661 3.15544362088405e-30
0 0

0101101
*
Ed
 1e-07 1 1 0
1  23 0 0 28.999999999966
0

0101000
-129 35 +125 35 *
Ve
1e-07
-5 -35.9999999999806 3.15544362088405e-30
0 0

0101101
*
Ed
 1e-07 1 1 0
1  24 0 1.5707963267949 3.14159265358979
2  21 12 0 1.5707963267949 3.14159265358979
0

0101000
+127 36 -123 36 *
Ve
1e-07
11 -29.9999999999661 3.15544362088405e-30
0 0

0101101
*
Ed
 1e-07 1 1 0
1  25 0 1 6
0

0101000
+121 35 -125 35 *
Ve
1e-07
0 -35.9999999999806 3.15544362088405e-30
0 0

0101101
*
Ed
 1e-07 1 1 0
1  26 0 1 6
0

0101000
+123 35 -119 35 *
Ve
1e-07
12 -30.9999999999661 3.15544362088405e-30
0 0

0101101
*
Ed
 1e-07 1 1 0
1  27 0 4.71238898038469 6.28318530717959
2  22 13 0 4.71238898038469 6.28318530717959
0

0101000
+117 36 -121 36 *
Ve
1e-07
-2.22044604925031e-16 -42.9999999999661 3.15544362088405e-30
0 0

0101101
*
Ed
 1e-07 1 1 0
1  28 0 0 6.99999999998541
0

0101000
-115 35 +119 35 *
Ve
1e-07
12 -34.9999999999661 3.15544362088405e-30
0 0

0101101
*
Ed
 1e-07 1 1 0
1  29 0 1 5
0

0101000
+113 35 -117 35 *
Ve
1e-07
1 -43.9999999999661 3.15544362088405e-30
0 0

0101101
*
Ed
 1e-07 1 1 0
1  30 0 1.5707963267949 3.14159265358979
2  23 14 0 1.5707963267949 3.14159265358979
0

0101000
+115 36 -111 36 *
Ve
1e-07
11 -35.9999999999661 3.15544362088405e-30
0 0

0101101
*
Ed
 1e-07 1 1 0
1  31 0 3.14159265358979 4.71238898038469
2  24 15 0 3.14159265358979 4.71238898038469
0

0101000
+109 36 -113 36 *
Ve
1e-07
5 -43.9999999999661 3.15544362088405e-30
0 0

0101101
*
Ed
 1e-07 1 1 0
1  32 0 1 5
0

0101000
+111 35 -107 35 *
Ve
1e-07
6 -35.9999999999661 3.15544362088405e-30
0 0

0101101
*
Ed
 1e-07 1 1 0
1  33 0 0 5
0

0101000
-109 35 +105 35 *
Ve
1e-07
6 -42.9999999999661 3.15544362088405e-30
0 0

0101101
*
Ed
 1e-07 1 1 0
1  34 0 3.14159265358979 4.71238898038469
2  25 16 0 3.14159265358979 4.71238898038469
0

0101000
+107 36 -103 36 *
Ed
 1e-07 1 1 0
1  35 0 1 8
0

0101000
+103 35 -105 35 *
Wi

0101100
+145 33 -136 0 +134 33 +132 33 +130 0 +128 0 +126 33 +124 33 +122 0 +120 33 
+118 33 +116 0 +114 33 +112 33 +110 0 +108 0 +106 33 +104 33 +102 0 +101 33 
*
Fa
0  1e-07 9 0

0111000
+100 42 *
Ve
1e-07
1 2.22044604925031e-16 -10
0 0

0101101
*
Ed
 1e-07 1 1 0
1  36 0 -0 10
2  26 8 0 -0 10
4 G1 8 0 17 28
0

0101000
+137 36 -98 36 *
Ed
 1e-07 1 1 0
1  37 0 4.71238898038469 6.28318530717959
2  27 8 0 4.71238898038469 6.28318530717959
0

0101000
+144 36 -98 36 *
Wi

0101100
+136 0 -143 0 +97 0 -96 0 *
Fa
0  1e-07 8 0

0111000
+95 0 *
Ve
1e-07
-5 -30 -10
0 0

0101101
*
Ed
 1e-07 1 1 0
1  38 0 -0 10
2  28 10 0 -0 10
4 G1 18 28 10 0
0

0101000
+135 36 -93 36 *
Ed
 1e-07 1 1 0
1  39 0 0 5
0

0101000
-93 40 +142 40 *
Wi

0101100
-134 33 -92 0 +141 28 +91 39 *
Fa
0  1e-07 18 0

0111000
+90 29 *
Ve
1e-07
5 2.22044604925031e-16 -10
0 0

0101101
*
Ed
 1e-07 1 1 0
1  40 0 1 5
0

0101000
+88 40 -98 40 *
Ve
1e-07
-6 -31 -10
0 0

0101101
*
Ed
 1e-07 1 1 0
1  41 0 0 1.5707963267949
2  29 10 0 0 1.5707963267949
0

0101000
+93 36 -86 36 *
Ve
1e-07
6 -1 -10
0 0

0101101
*
Ed
 1e-07 1 1 0
1  42 0 4.71238898038469 6.28318530717959
2  30 11 0 4.71238898038469 6.28318530717959
0

0101000
+84 36 -88 36 *
Ve
1e-07
-6 -34.9999999999806 -10
0 0

0101101
*
Ed
 1e-07 1 1 0
1  43 0 1 4.99999999998063
0

0101000
+86 40 -82 40 *
Ve
1e-07
6 -29.9999999999661 -10
0 0

0101101
*
Ed
 1e-07 1 1 0
1  44 0 0 28.999999999966
0

0101000
-84 40 +80 40 *
Ve
1e-07
-5 -35.9999999999806 -10
0 0

0101101
*
Ed
 1e-07 1 1 0
1  45 0 1.5707963267949 3.14159265358979
2  31 12 0 1.5707963267949 3.14159265358979
0

0101000
+82 36 -78 36 *
Ve
1e-07
11 -29.999999999966 -10
0 0

0101101
*
Ed
 1e-07 1 1 0
1  46 0 1 6
0

0101000
+76 40 -80 40 *
Ve
1e-07
0 -35.9999999999806 -10
0 0

0101101
*
Ed
 1e-07 1 1 0
1  47 0 1 6
0

0101000
+78 40 -74 40 *
Ve
1e-07
12 -30.999999999966 -10
0 0

0101101
*
Ed
 1e-07 1 1 0
1  48 0 4.71238898038469 6.28318530717959
2  32 13 0 4.71238898038469 6.28318530717959
0

0101000
+72 36 -76 36 *
Ve
1e-07
-2.22044604925031e-16 -42.9999999999661 -10
0 0

0101101
*
Ed
 1e-07 1 1 0
1  49 0 0 6.99999999998541
0

0101000
-70 40 +74 40 *
Ve
1e-07
12 -34.9999999999661 -10
0 0

0101101
*
Ed
 1e-07 1 1 0
1  50 0 1 5
0

0101000
+68 40 -72 40 *
Ve
1e-07
1 -43.9999999999661 -10
0 0

0101101
*
Ed
 1e-07 1 1 0
1  51 0 1.5707963267949 3.14159265358979
2  33 14 0 1.5707963267949 3.14159265358979
0

0101000
+70 36 -66 36 *
Ve
1e-07
11 -35.9999999999661 -10
0 0

0101101
*
Ed
 1e-07 1 1 0
1  52 0 3.14159265358979 4.71238898038469
2  34 15 0 3.14159265358979 4.71238898038469
0

0101000
+64 36 -68 36 *
Ve
1e-07
5 -43.9999999999661 -10
0 0

0101101
*
Ed
 1e-07 1 1 0
1  53 0 1 5
0

0101000
+66 40 -62 40 *
Ve
1e-07
6 -35.9999999999661 -10
0 0

0101101
*
Ed
 1e-07 1 1 0
1  54 0 0 5
0

0101000
-64 40 +60 40 *
Ve
1e-07
6 -42.9999999999661 -10
0 0

0101101
*
Ed
 1e-07 1 1 0
1  55 0 3.14159265358979 4.71238898038469
2  35 16 0 3.14159265358979 4.71238898038469
0

0101000
+62 36 -58 36 *
Ed
 1e-07 1 1 0
1  56 0 1 8
0

0101000
+58 40 -60 40 *
Wi

0101100
+140 39 -96 0 +91 39 +87 39 +85 0 +83 0 +81 39 +79 39 +77 0 +75 39 
+73 39 +71 0 +69 39 +67 39 +65 0 +63 0 +61 39 +59 39 +57 0 +56 39 
*
Fa
0  1e-07 19 0

0111000
+55 44 *
Ed
 1e-07 1 1 0
1  57 0 -0 10
2  36 11 0 -0 10
4 G1 17 28 11 0
0

0101000
+133 36 -88 36 *
Wi

0101100
-132 33 +53 0 -97 0 +87 39 *
Fa
0  1e-07 17 0

0111000
+52 29 *
Ed
 1e-07 1 1 0
1  58 0 -0 10
2  37 10 0 -0 10
4 G1 10 0 20 28
0

0101000
+131 36 -86 36 *
Wi

0101100
+130 0 -92 0 +50 0 -85 0 *
Fa
0  1e-07 10 0

0111000
+49 0 *
Ed
 1e-07 1 1 0
1  59 0 -0 10
2  38 11 0 -0 10
4 G1 11 0 21 28
0

0101000
+129 36 -84 36 *
Wi

0101100
+128 0 -47 0 +53 0 -83 0 *
Fa
0  1e-07 11 0

0111000
+46 0 *
Ed
 1e-07 1 1 0
1  60 0 -0 10
2  39 12 0 -0 10
4 G1 20 28 12 0
0

0101000
+127 36 -82 36 *
Wi

0101100
-126 33 +50 0 -44 0 +81 39 *
Fa
0  1e-07 20 0

0111000
+43 29 *
Ed
 1e-07 1 1 0
1  61 0 0 10
0

0101000
+125 37 -80 37 *
Wi

0101100
-124 33 -47 0 +41 28 +79 39 *
Fa
0  1e-07 21 0

0111000
+40 29 *
Ed
 1e-07 1 1 0
1  62 0 -0 10
2  40 12 0 -0 10
4 G1 12 0 22 28
0

0101000
+123 36 -78 36 *
Wi

0101100
+122 0 -44 0 +38 0 -77 0 *
Fa
0  1e-07 12 0

0111000
+37 0 *
Ed
 1e-07 1 1 0
1  63 0 -0 10
2  41 13 0 -0 10
4 G1 23 28 13 0
0

0101000
+121 36 -76 36 *
Wi

0101100
-120 33 +35 0 -41 28 +75 39 *
Fa
0  1e-07 23 0

0111000
+34 29 *
Ed
 1e-07 1 1 0
1  64 0 0 10
0

0101000
+119 37 -74 37 *
Wi

0101100
-118 33 +38 0 -32 28 +73 39 *
Fa
0  1e-07 22 0

0111000
+31 29 *
Ed
 1e-07 1 1 0
1  65 0 -0 10
2  42 13 0 -0 10
4 G1 13 0 24 28
0

0101000
+117 36 -72 36 *
Wi

0101100
+116 0 -29 0 +35 0 -71 0 *
Fa
0  1e-07 13 0

0111000
+28 0 *
Ed
 1e-07 1 1 0
1  66 0 -0 10
2  43 14 0 -0 10
4 G1 25 28 14 0
0

0101000
+115 36 -70 36 *
Wi

0101100
-114 33 -26 0 +32 28 +69 39 *
Fa
0  1e-07 25 0

0111000
+25 29 *
Ed
 1e-07 1 1 0
1  67 0 -0 10
2  44 15 0 -0 10
4 G1 24 28 15 0
0

0101000
+113 36 -68 36 *
Wi

0101100
-112 33 +23 0 -29 0 +67 39 *
Fa
0  1e-07 24 0

0111000
+22 29 *
Ed
 1e-07 1 1 0
1  68 0 -0 10
2  45 14 0 -0 10
4 G1 14 0 26 28
0

0101000
+111 36 -66 36 *
Wi

0101100
+110 0 -26 0 +20 0 -65 0 *
Fa
0  1e-07 14 0

0111000
+19 0 *
Ed
 1e-07 1 1 0
1  69 0 -0 10
2  46 15 0 -0 10
4 G1 15 0 27 28
0

0101000
+109 36 -64 36 *
Wi

0101100
+108 0 -17 0 +23 0 -63 0 *
Fa
0  1e-07 15 0

0111000
+16 0 *
Ed
 1e-07 1 1 0
1  70 0 -0 10
2  47 16 0 -0 10
4 G1 26 28 16 0
0

0101000
+107 36 -62 36 *
Wi

0101100
-106 33 +20 0 -14 0 +61 39 *
Fa
0  1e-07 26 0

0111000
+13 29 *
Ed
 1e-07 1 1 0
1  71 0 0 10
0

0101000
+105 37 -60 37 *
Wi

0101100
-104 33 -17 0 +11 28 +59 39 *
Fa
0  1e-07 27 0

0111000
+10 29 *
Ed
 1e-07 1 1 0
1  72 0 -0 10
2  48 16 0 -0 10
4 G1 16 0 28 28
0

0101000
+103 36 -58 36 *
Wi

0101100
+102 0 -14 0 +8 0 -57 0 *
Fa
0  1e-07 16 0

0111000
+7 0 *
Wi

0101100
-101 33 +8 0 -11 28 +56 39 *
Fa
0  1e-07 28 0

0111000
+5 29 *
Sh

0101100
+138 28 +99 41 +94 0 +89 28 -54 43 +51 28 -48 0 -45 0 +42 28 +39 28 
-36 0 +33 28 +30 28 -27 0 +24 28 +21 28 -18 0 -15 0 +12 28 +9 28 
-6 0 +4 28 *
So

0100000
+3 0 *
Co

1100000
+148 1 +2 27 *

+1 0 