DBRep_DrawableShape

CASCADE Topology V1, (c) Matra-Datavision
Locations 0
Curve2ds 70
1 0 0 0 1 
1 1 0 0 1 
1 0 0 1 0 
7 0 0  3 15 9  0 0  -0.0094326564608749885 0.082797762267681818  0.054499792885057186 0.25782594326392028  0.284027766766351 0.45171943718190977  0.44019063484084003 0.55338251237134184  0.61521881583707927 0.48945006302541028  0.88247741556187465 0.35215250787267183  1.0349720283460222 0.11790820576093944  0.93907335432712591 -0.14463406573341892  0.70954538044583004 -0.33852755965140796  0.55338251237134173 -0.44019063484084003  0.37835433137510299 -0.37625818549490814  0.11109573165030728 -0.23896063034217058  0.0094326564608750441 -0.082797762267681818  0 0 
 0 4 0.125 1 0.25 3 0.375 1 0.5 1 0.625 1 0.75 3 0.875 1 1 4
1 0.16666666666666666 0 0 1 
1 0.16666666666666666 0 0 1 
1 0 0.49554284647320168 1 0 
1 0 0.49554284647320168 1 0 
7 0 0  3 15 9  0 0  -0.0094326564608749885 0.082797762267681818  0.054499792885057186 0.25782594326392028  0.284027766766351 0.45171943718190977  0.44019063484084003 0.55338251237134184  0.61521881583707927 0.48945006302541028  0.88247741556187465 0.35215250787267183  1.0349720283460222 0.11790820576093944  0.93907335432712591 -0.14463406573341892  0.70954538044583004 -0.33852755965140796  0.55338251237134173 -0.44019063484084003  0.37835433137510299 -0.37625818549490814  0.11109573165030728 -0.23896063034217058  0.0094326564608750441 -0.082797762267681818  0 0 
 0 4 0.125 1 0.25 3 0.375 1 0.5 1 0.625 1 0.75 3 0.875 1 1 4
1 0 0 1 0 
1 0.25 0 0 1 
1 0.25 0 0 1 
1 0 0.49554284647320168 1 0 
1 0 0.49554284647320168 1 0 
1 0 0 1 0 
7 0 0  3 15 9  0 0  -0.0094326564608749885 0.082797762267681818  0.054499792885057186 0.25782594326392028  0.284027766766351 0.45171943718190977  0.44019063484084003 0.55338251237134184  0.61521881583707927 0.48945006302541028  0.88247741556187465 0.35215250787267183  1.0349720283460222 0.11790820576093944  0.93907335432712591 -0.14463406573341892  0.70954538044583004 -0.33852755965140796  0.55338251237134173 -0.44019063484084003  0.37835433137510299 -0.37625818549490814  0.11109573165030728 -0.23896063034217058  0.0094326564608750441 -0.082797762267681818  0 0 
 0 4 0.125 1 0.25 3 0.375 1 0.5 1 0.625 1 0.75 3 0.875 1 1 4
1 0.33333333333333331 0 0 1 
1 0.33333333333333331 0 0 1 
1 0 0.49554284647320168 1 0 
1 0 0.49554284647320168 1 0 
1 0 0 1 0 
7 0 0  3 15 9  0 0  -0.0094326564608749885 0.082797762267681818  0.054499792885057186 0.25782594326392028  0.284027766766351 0.45171943718190977  0.44019063484084003 0.55338251237134184  0.61521881583707927 0.48945006302541028  0.88247741556187465 0.35215250787267183  1.0349720283460222 0.11790820576093944  0.93907335432712591 -0.14463406573341892  0.70954538044583004 -0.33852755965140796  0.55338251237134173 -0.44019063484084003  0.37835433137510299 -0.37625818549490814  0.11109573165030728 -0.23896063034217058  0.0094326564608750441 -0.082797762267681818  0 0 
 0 4 0.125 1 0.25 3 0.375 1 0.5 1 0.625 1 0.75 3 0.875 1 1 4
1 0.66666666666666663 0 0 1 
1 0.66666666666666663 0 0 1 
1 0 0.49554284647320168 1 0 
1 0 0.49554284647320168 1 0 
7 0 0  3 15 9  0 0  -0.0094326564608749885 0.082797762267681818  0.054499792885057186 0.25782594326392028  0.284027766766351 0.45171943718190977  0.44019063484084003 0.55338251237134184  0.61521881583707927 0.48945006302541028  0.88247741556187465 0.35215250787267183  1.0349720283460222 0.11790820576093944  0.93907335432712591 -0.14463406573341892  0.70954538044583004 -0.33852755965140796  0.55338251237134173 -0.44019063484084003  0.37835433137510299 -0.37625818549490814  0.11109573165030728 -0.23896063034217058  0.0094326564608750441 -0.082797762267681818  0 0 
 0 4 0.125 1 0.25 3 0.375 1 0.5 1 0.625 1 0.75 3 0.875 1 1 4
1 0 0 1 0 
1 0.75 0 0 1 
1 0.75 0 0 1 
1 0 0.49554284647320168 1 0 
1 0 0.49554284647320168 1 0 
1 0 0 1 0 
7 0 0  3 15 9  0 0  -0.0094326564608749885 0.082797762267681818  0.054499792885057186 0.25782594326392028  0.284027766766351 0.45171943718190977  0.44019063484084003 0.55338251237134184  0.61521881583707927 0.48945006302541028  0.88247741556187465 0.35215250787267183  1.0349720283460222 0.11790820576093944  0.93907335432712591 -0.14463406573341892  0.70954538044583004 -0.33852755965140796  0.55338251237134173 -0.44019063484084003  0.37835433137510299 -0.37625818549490814  0.11109573165030728 -0.23896063034217058  0.0094326564608750441 -0.082797762267681818  0 0 
 0 4 0.125 1 0.25 3 0.375 1 0.5 1 0.625 1 0.75 3 0.875 1 1 4
1 0.83333333333333326 0 0 1 
1 0.83333333333333326 0 0 1 
1 0 0.49554284647320168 1 0 
1 0 0.49554284647320168 1 0 
7 0 0  3 15 9  0 0  -0.0094326564608749885 0.082797762267681818  0.054499792885057186 0.25782594326392028  0.284027766766351 0.45171943718190977  0.44019063484084003 0.55338251237134184  0.61521881583707927 0.48945006302541028  0.88247741556187465 0.35215250787267183  1.0349720283460222 0.11790820576093944  0.93907335432712591 -0.14463406573341892  0.70954538044583004 -0.33852755965140796  0.55338251237134173 -0.44019063484084003  0.37835433137510299 -0.37625818549490814  0.11109573165030728 -0.23896063034217058  0.0094326564608750441 -0.082797762267681818  0 0 
 0 4 0.125 1 0.25 3 0.375 1 0.5 1 0.625 1 0.75 3 0.875 1 1 4
1 0 0 1 0 
1 0 0.49554284647320168 1 0 
1 0 0.49554284647320168 1 0 
1 1 0 0 1 
1 0 0 0 1 
1 0.16666666666666666 0 0 1 
1 0.16666666666666666 0 0 1 
1 0 0.99999999999999956 1 0 
7 0 0  3 21 11  0 0  0.02946278254943948 -0.029462782549439501  0.088388347648318474 -0.088388347648318391  0.14731391274719743 -0.14731391274719741  0.17677669529663692 -0.17677669529663687  0.20623947784607644 -0.14731391274719741  0.2651650429449553 -0.088388347648318363  0.32409060804383438 -0.029462782549439459  0.35355339059327384 4.163336342344337e-17  0.29462782549439481 0.058925565098879043  0.17677669529663687 0.17677669529663687  0.058925565098878918 0.29462782549439487  -4.163336342344337e-17 0.35355339059327379  -0.029462782549439556 0.32409060804383433  -0.088388347648318447 0.2651650429449553  -0.14731391274719746 0.20623947784607635  -0.17677669529663687 0.17677669529663687  -0.14731391274719741 0.14731391274719738  -0.088388347648318419 0.088388347648318447  -0.029462782549439501 0.029462782549439466  0 0 
 0 4 0.083333333333333329 1 0.16666666666666666 3 0.25 1 0.33333333333333331 3 0.5 1 0.66666666666666663 3 0.75 1 0.83333333333333326 3 0.91666666666666652 1 0.99999999999999978 4
1 0.25 0 0 1 
1 0.25 0 0 1 
1 0 0.99999999999999956 1 0 
7 0 0  3 21 11  0 0  0.02946278254943948 -0.029462782549439501  0.088388347648318474 -0.088388347648318391  0.14731391274719743 -0.14731391274719741  0.17677669529663692 -0.17677669529663687  0.20623947784607644 -0.14731391274719741  0.2651650429449553 -0.088388347648318363  0.32409060804383438 -0.029462782549439459  0.35355339059327384 4.163336342344337e-17  0.29462782549439481 0.058925565098879043  0.17677669529663687 0.17677669529663687  0.058925565098878918 0.29462782549439487  -4.163336342344337e-17 0.35355339059327379  -0.029462782549439556 0.32409060804383433  -0.088388347648318447 0.2651650429449553  -0.14731391274719746 0.20623947784607635  -0.17677669529663687 0.17677669529663687  -0.14731391274719741 0.14731391274719738  -0.088388347648318419 0.088388347648318447  -0.029462782549439501 0.029462782549439466  0 0 
 0 4 0.083333333333333329 1 0.16666666666666666 3 0.25 1 0.33333333333333331 3 0.5 1 0.66666666666666663 3 0.75 1 0.83333333333333326 3 0.91666666666666652 1 0.99999999999999978 4
1 0.33333333333333331 0 0 1 
1 0.33333333333333331 0 0 1 
1 0 0.99999999999999956 1 0 
7 0 0  3 21 11  0 0  0.02946278254943948 -0.029462782549439501  0.088388347648318474 -0.088388347648318391  0.14731391274719743 -0.14731391274719741  0.17677669529663692 -0.17677669529663687  0.20623947784607644 -0.14731391274719741  0.2651650429449553 -0.088388347648318363  0.32409060804383438 -0.029462782549439459  0.35355339059327384 4.163336342344337e-17  0.29462782549439481 0.058925565098879043  0.17677669529663687 0.17677669529663687  0.058925565098878918 0.29462782549439487  -4.163336342344337e-17 0.35355339059327379  -0.029462782549439556 0.32409060804383433  -0.088388347648318447 0.2651650429449553  -0.14731391274719746 0.20623947784607635  -0.17677669529663687 0.17677669529663687  -0.14731391274719741 0.14731391274719738  -0.088388347648318419 0.088388347648318447  -0.029462782549439501 0.029462782549439466  0 0 
 0 4 0.083333333333333329 1 0.16666666666666666 3 0.25 1 0.33333333333333331 3 0.5 1 0.66666666666666663 3 0.75 1 0.83333333333333326 3 0.91666666666666652 1 0.99999999999999978 4
1 0.66666666666666663 0 0 1 
1 0.66666666666666663 0 0 1 
7 0 0  3 21 11  0 0  0.02946278254943948 -0.029462782549439501  0.088388347648318474 -0.088388347648318391  0.14731391274719743 -0.14731391274719741  0.17677669529663692 -0.17677669529663687  0.20623947784607644 -0.14731391274719741  0.2651650429449553 -0.088388347648318363  0.32409060804383438 -0.029462782549439459  0.35355339059327384 4.163336342344337e-17  0.29462782549439481 0.058925565098879043  0.17677669529663687 0.17677669529663687  0.058925565098878918 0.29462782549439487  -4.163336342344337e-17 0.35355339059327379  -0.029462782549439556 0.32409060804383433  -0.088388347648318447 0.2651650429449553  -0.14731391274719746 0.20623947784607635  -0.17677669529663687 0.17677669529663687  -0.14731391274719741 0.14731391274719738  -0.088388347648318419 0.088388347648318447  -0.029462782549439501 0.029462782549439466  0 0 
 0 4 0.083333333333333329 1 0.16666666666666666 3 0.25 1 0.33333333333333331 3 0.5 1 0.66666666666666663 3 0.75 1 0.83333333333333326 3 0.91666666666666652 1 0.99999999999999978 4
1 0 0.99999999999999956 1 0 
1 0.75 0 0 1 
1 0.75 0 0 1 
1 0 0.99999999999999956 1 0 
7 0 0  3 21 11  0 0  0.02946278254943948 -0.029462782549439501  0.088388347648318474 -0.088388347648318391  0.14731391274719743 -0.14731391274719741  0.17677669529663692 -0.17677669529663687  0.20623947784607644 -0.14731391274719741  0.2651650429449553 -0.088388347648318363  0.32409060804383438 -0.029462782549439459  0.35355339059327384 4.163336342344337e-17  0.29462782549439481 0.058925565098879043  0.17677669529663687 0.17677669529663687  0.058925565098878918 0.29462782549439487  -4.163336342344337e-17 0.35355339059327379  -0.029462782549439556 0.32409060804383433  -0.088388347648318447 0.2651650429449553  -0.14731391274719746 0.20623947784607635  -0.17677669529663687 0.17677669529663687  -0.14731391274719741 0.14731391274719738  -0.088388347648318419 0.088388347648318447  -0.029462782549439501 0.029462782549439466  0 0 
 0 4 0.083333333333333329 1 0.16666666666666666 3 0.25 1 0.33333333333333331 3 0.5 1 0.66666666666666663 3 0.75 1 0.83333333333333326 3 0.91666666666666652 1 0.99999999999999978 4
1 0.83333333333333326 0 0 1 
1 0.83333333333333326 0 0 1 
1 0 0.99999999999999956 1 0 
7 0 0  3 21 11  0 0  0.02946278254943948 -0.029462782549439501  0.088388347648318474 -0.088388347648318391  0.14731391274719743 -0.14731391274719741  0.17677669529663692 -0.17677669529663687  0.20623947784607644 -0.14731391274719741  0.2651650429449553 -0.088388347648318363  0.32409060804383438 -0.029462782549439459  0.35355339059327384 4.163336342344337e-17  0.29462782549439481 0.058925565098879043  0.17677669529663687 0.17677669529663687  0.058925565098878918 0.29462782549439487  -4.163336342344337e-17 0.35355339059327379  -0.029462782549439556 0.32409060804383433  -0.088388347648318447 0.2651650429449553  -0.14731391274719746 0.20623947784607635  -0.17677669529663687 0.17677669529663687  -0.14731391274719741 0.14731391274719738  -0.088388347648318419 0.088388347648318447  -0.029462782549439501 0.029462782549439466  0 0 
 0 4 0.083333333333333329 1 0.16666666666666666 3 0.25 1 0.33333333333333331 3 0.5 1 0.66666666666666663 3 0.75 1 0.83333333333333326 3 0.91666666666666652 1 0.99999999999999978 4
1 0 0.99999999999999956 1 0 
7 0 0  3 21 11  0 0  0.02946278254943948 -0.029462782549439501  0.088388347648318474 -0.088388347648318391  0.14731391274719743 -0.14731391274719741  0.17677669529663692 -0.17677669529663687  0.20623947784607644 -0.14731391274719741  0.2651650429449553 -0.088388347648318363  0.32409060804383438 -0.029462782549439459  0.35355339059327384 4.163336342344337e-17  0.29462782549439481 0.058925565098879043  0.17677669529663687 0.17677669529663687  0.058925565098878918 0.29462782549439487  -4.163336342344337e-17 0.35355339059327379  -0.029462782549439556 0.32409060804383433  -0.088388347648318447 0.2651650429449553  -0.14731391274719746 0.20623947784607635  -0.17677669529663687 0.17677669529663687  -0.14731391274719741 0.14731391274719738  -0.088388347648318419 0.088388347648318447  -0.029462782549439501 0.029462782549439466  0 0 
 0 4 0.083333333333333329 1 0.16666666666666666 3 0.25 1 0.33333333333333331 3 0.5 1 0.66666666666666663 3 0.75 1 0.83333333333333326 3 0.91666666666666652 1 0.99999999999999978 4
Curves 33
7 0 0  2 3 2  -0.5 9.5714217473173736e-17 0.5  0.0043783907719335269 1.7197634509854695e-16 0.59127238717425001  0.5 7.8640797577615247e-17 0.49999999999999978 
 0 3 0.49554284647320168 3
7 0 0  3 6 4  -0.5 9.5714217473173736e-17 0.5  -0.5 0.055555555555555643 0.49999999999999994  -0.5 0.13888888888888884 0.47222222222222193  -0.5 0.24999999999999992 0.37962962962962932  -0.5 0.30555555555555558 0.31481481481481471  -0.5 0.33333333333333337 0.27777777777777779 
 0 4 0.083333333333333329 1 0.125 1 0.16666666666666666 4
7 0 0  2 3 2  -0.5 0.33333333333333337 0.27777777777777779  0.0043783907719335269 0.44539057267772847 0.27825302974872157  0.5 0.42592592592592571 0.24074074074074067 
 0 3 0.49554284647320168 3
7 0 0  3 6 4  0.5 7.8640797577615247e-17 0.49999999999999978  0.5 0.083333333333333343 0.49999999999999978  0.5 0.20833333333333304 0.45833333333333337  0.5 0.34722222222222177 0.34722222222222232  0.5 0.40277777777777746 0.27777777777777779  0.5 0.42592592592592571 0.24074074074074067 
 0 4 0.083333333333333329 1 0.125 1 0.16666666666666666 4
8 0 1
7 0 0  3 15 9  -0.5 9.5714217473173736e-17 0.5  -0.5 0.083333333333333412 0.49999999999999989  -0.5 0.24999999999999972 0.41666666666666591  -0.5 0.41666666666666696 0.16666666666666718  -0.5 0.50000000000000011 0  -0.5 0.4166666666666668 -0.16666666666666707  -0.5 0.24999999999999989 -0.41666666666666669  -0.5 2.7626911859560386e-16 -0.5416666666666663  -0.5 -0.25 -0.41666666666666718  -0.5 -0.41666666666666657 -0.16666666666666641  -0.5 -0.49999999999999989 0  -0.5 -0.41666666666666619 0.16666666666666663  -0.5 -0.25000000000000017 0.41666666666666669  -0.5 -0.083333333333333218 0.50000000000000011  -0.5 9.5714217473173736e-17 0.5 
 0 4 0.125 1 0.25 3 0.375 1 0.5 1 0.625 1 0.75 3 0.875 1 1 4
7 0 0  2 3 2  -0.5 0.50000000000000011 0  0.0043783907719335269 0.56084825811616712 -2.3649327890717055e-16  0.5 0.50000000000000011 -2.4286128663675299e-16 
 0 3 0.49554284647320168 3
7 0 0  3 4 2  0.5 0.42592592592592571 0.24074074074074067  0.5 0.4722222222222221 0.16666666666666652  0.5 0.50000000000000022 0.083333333333333093  0.5 0.50000000000000011 -2.4286128663675299e-16 
 0.16666666666666666 4 0.25 4
7 0 0  3 4 2  -0.5 0.50000000000000011 0  -0.5 0.44444444444444453 -0.11111111111111135  -0.5 0.38888888888888895 -0.20370370370370394  -0.5 0.33333333333333337 -0.27777777777777796 
 0.25 4 0.33333333333333331 4
7 0 0  2 3 2  -0.5 0.33333333333333337 -0.27777777777777796  0.0043783907719335269 0.44539057267772869 -0.27825302974872157  0.5 0.42592592592592593 -0.24074074074074064 
 0 3 0.49554284647320168 3
7 0 0  3 4 2  0.5 0.50000000000000011 -2.4286128663675299e-16  0.5 0.50000000000000033 -0.083333333333333565  0.5 0.47222222222222243 -0.16666666666666671  0.5 0.42592592592592593 -0.24074074074074064 
 0.25 4 0.33333333333333331 4
7 0 0  3 7 5  -0.5 0.33333333333333337 -0.27777777777777796  -0.5 0.30555555555555558 -0.31481481481481499  -0.5 0.19444444444444442 -0.44444444444444436  -0.5 2.7626911859560386e-16 -0.5416666666666663  -0.5 -0.19444444444444436 -0.44444444444444481  -0.5 -0.30555555555555547 -0.31481481481481499  -0.5 -0.33333333333333326 -0.2777777777777779 
 0.33333333333333331 4 0.375 1 0.5 1 0.625 1 0.66666666666666663 4
7 0 0  2 3 2  -0.5 -0.33333333333333326 -0.2777777777777779  0.0043783907719335269 -0.4453905726777283 -0.27825302974872168  0.5 -0.42592592592592571 -0.24074074074074076 
 0 3 0.49554284647320168 3
7 0 0  3 7 5  0.5 0.42592592592592593 -0.24074074074074064  0.5 0.40277777777777779 -0.27777777777777768  0.5 0.29166666666666641 -0.4166666666666663  0.5 3.7331393041583721e-16 -0.56249999999999978  0.5 -0.29166666666666663 -0.41666666666666646  0.49999999999999994 -0.40277777777777768 -0.27777777777777779  0.5 -0.42592592592592571 -0.24074074074074076 
 0.33333333333333331 4 0.375 1 0.5 1 0.625 1 0.66666666666666663 4
7 0 0  2 3 2  -0.5 -0.49999999999999989 0  0.0043783907719335269 -0.56084825811616645 2.6910043348218458e-17  0.5 -0.49999999999999967 4.163336342344337e-17 
 0 3 0.49554284647320168 3
7 0 0  3 4 2  0.5 -0.42592592592592571 -0.24074074074074076  0.5 -0.47222222222222199 -0.16666666666666666  0.5 -0.49999999999999972 -0.083333333333333343  0.5 -0.49999999999999967 4.163336342344337e-17 
 0.66666666666666663 4 0.75 4
7 0 0  3 4 2  -0.5 -0.49999999999999989 0  -0.5 -0.4444444444444442 0.11111111111111099  -0.5 -0.38888888888888873 0.20370370370370353  -0.5 -0.33333333333333326 0.27777777777777757 
 0.75 4 0.83333333333333326 4
7 0 0  2 3 2  -0.5 -0.33333333333333326 0.27777777777777757  0.0043783907719335269 -0.44539057267772852 0.27825302974872157  0.5 -0.42592592592592593 0.2407407407407407 
 0 3 0.49554284647320168 3
7 0 0  3 4 2  0.5 -0.49999999999999967 4.163336342344337e-17  0.5 -0.49999999999999967 0.083333333333333315  0.5 -0.47222222222222199 0.1666666666666666  0.5 -0.42592592592592593 0.2407407407407407 
 0.75 4 0.83333333333333326 4
7 0 0  3 6 4  0.5 -0.42592592592592593 0.2407407407407407  0.5 -0.40277777777777779 0.27777777777777779  0.5 -0.34722222222222232 0.34722222222222215  0.5 -0.20833333333333343 0.4583333333333332  0.5 -0.08333333333333337 0.49999999999999989  0.5 6.9388939039072296e-17 0.49999999999999989 
 0.83333333333333326 4 0.875 1 0.91666666666666652 1 1 4
7 0 0  2 3 2  0.5 6.9388939039072296e-17 0.49999999999999989  1.0045373331427601 -2.570883487609881e-17 0.40708571628627455  1.5 -2.8714265241952118e-16 0.125 
 0.49554284647320168 3 0.99999999999999956 3
7 0 0  2 3 2  0.5 0.42592592592592571 0.24074074074074067  1.0045373331427601 0.40611113016264944 0.20255364416590599  1.5 0.24999999999999972 0.125 
 0.49554284647320168 3 0.99999999999999956 3
7 0 0  3 6 4  1.5 -2.8714265241952118e-16 0.125  1.5 0.04166666666666638 0.12500000000000003  1.5 0.10416666666666637 0.12499999999999997  1.5 0.18749999999999972 0.125  1.5 0.22916666666666641 0.125  1.5 0.24999999999999972 0.125 
 0 4 0.083333333333333329 1 0.125 1 0.16666666666666666 4
7 0 0  2 3 2  0.5 0.50000000000000011 -2.4286128663675299e-16  1.0045373331427601 0.43805714419084985 -2.4934384828760615e-16  1.5 0.24999999999999972 -1.7347234759768071e-17 
 0.49554284647320168 3 0.99999999999999956 3
7 0 0  3 4 2  1.5 0.24999999999999972 0.125  1.5 0.24999999999999978 0.083333333333333315  1.5 0.24999999999999972 0.041666666666666657  1.5 0.24999999999999972 -1.7347234759768071e-17 
 0.16666666666666666 4 0.25 4
7 0 0  2 3 2  0.5 0.42592592592592593 -0.24074074074074064  1.0045373331427601 0.40611113016264966 -0.20255364416590591  1.5 0.24999999999999972 -0.125 
 0.49554284647320168 3 0.99999999999999956 3
7 0 0  3 4 2  1.5 0.24999999999999972 -1.7347234759768071e-17  1.5 0.24999999999999972 -0.041666666666666678  1.5 0.24999999999999978 -0.083333333333333356  1.5 0.24999999999999972 -0.125 
 0.25 4 0.33333333333333331 4
7 0 0  2 3 2  0.5 -0.42592592592592571 -0.24074074074074076  1.0045373331427601 -0.40611113016264966 -0.20255364416590604  1.5 -0.25000000000000028 -0.125 
 0.49554284647320168 3 0.99999999999999956 3
8 0 0.99999999999999978
7 0 0  3 21 11  1.5 -2.8714265241952118e-16 0.125  1.5 0.04166666666666638 0.12500000000000003  1.5 0.12499999999999969 0.12499999999999996  1.5 0.20833333333333307 0.12500000000000003  1.5 0.24999999999999972 0.125  1.5 0.24999999999999978 0.083333333333333315  1.5 0.24999999999999964 1.7578531223231644e-17  1.5 0.24999999999999978 -0.083333333333333356  1.5 0.24999999999999972 -0.125  1.5 0.16666666666666635 -0.12500000000000003  1.5 -2.5198558997305792e-16 -0.12499999999999996  1.5 -0.16666666666666699 -0.12500000000000003  1.5 -0.25000000000000028 -0.125  1.5 -0.25000000000000033 -0.083333333333333315  1.5 -0.25000000000000022 -1.7578531223231644e-17  1.5 -0.25000000000000033 0.083333333333333356  1.5 -0.25000000000000028 0.125  1.5 -0.20833333333333362 0.12500000000000003  1.5 -0.12500000000000028 0.12499999999999996  1.5 -0.041666666666666963 0.12500000000000003  1.5 -2.8714265241952118e-16 0.125 
 0 4 0.083333333333333329 1 0.16666666666666666 3 0.25 1 0.33333333333333331 3 0.5 1 0.66666666666666663 3 0.75 1 0.83333333333333326 3 0.91666666666666652 1 0.99999999999999978 4
7 0 0  2 3 2  0.5 -0.49999999999999967 4.163336342344337e-17  1.0045373331427601 -0.43805714419084951 5.662154091096478e-17  1.5 -0.25000000000000028 5.8980598183211441e-17 
 0.49554284647320168 3 0.99999999999999956 3
7 0 0  3 4 2  1.5 -0.25000000000000028 -0.125  1.5 -0.25000000000000033 -0.083333333333333315  1.5 -0.25000000000000028 -0.041666666666666637  1.5 -0.25000000000000028 5.8980598183211441e-17 
 0.66666666666666663 4 0.75 4
7 0 0  2 3 2  0.5 -0.42592592592592593 0.2407407407407407  1.0045373331427601 -0.40611113016264988 0.20255364416590604  1.5 -0.25000000000000028 0.125 
 0.49554284647320168 3 0.99999999999999956 3
7 0 0  3 4 2  1.5 -0.25000000000000028 5.8980598183211441e-17  1.5 -0.25000000000000028 0.041666666666666699  1.5 -0.25000000000000033 0.083333333333333356  1.5 -0.25000000000000028 0.125 
 0.75 4 0.83333333333333326 4
7 0 0  3 6 4  1.5 -0.25000000000000028 0.125  1.5 -0.22916666666666691 0.125  1.5 -0.18750000000000022 0.125  1.5 -0.10416666666666689 0.12499999999999997  1.5 -0.041666666666666963 0.12500000000000003  1.5 -2.8714265241952118e-16 0.125 
 0.83333333333333326 4 0.875 1 0.91666666666666652 1 1 4
Polygon3D 0
PolygonOnTriangulations 0
Surfaces 16
9 0 0 0 0 3 2 6 3 4 2 -0.5 9.5714217473173736e-17 0.5  0.0043783907719335269 1.7197634509854695e-16 0.59127238717425001  0.5 7.8640797577615247e-17 0.49999999999999978  
-0.5 0.055555555555555643 0.49999999999999994  0.0043783907719335269 0.086468360331489053 0.59127238717425001  0.5 0.083333333333333343 0.49999999999999978  
-0.5 0.13888888888888884 0.47222222222222193  0.0043783907719335269 0.21617090082872215 0.54296751883215855  0.5 0.20833333333333304 0.45833333333333337  
-0.5 0.24999999999999992 0.37962962962962932  0.0043783907719335269 0.36157527549999791 0.40948363701688806  0.5 0.34722222222222177 0.34722222222222232  
-0.5 0.30555555555555558 0.31481481481481471  0.0043783907719335269 0.42051128983978514 0.32430462354370937  0.5 0.40277777777777746 0.27777777777777779  
-0.5 0.33333333333333337 0.27777777777777779  0.0043783907719335269 0.44539057267772847 0.27825302974872157  0.5 0.42592592592592571 0.24074074074074067  

0 4
0.083333333333333329 1
0.125 1
0.16666666666666666 4

0 3
0.49554284647320168 3

9 0 0 0 0 3 2 6 3 4 2 -0.5 -0.33333333333333326 0.27777777777777757  0.0043783907719335269 -0.44539057267772852 0.27825302974872157  0.5 -0.42592592592592593 0.2407407407407407  
-0.5 -0.30555555555555547 0.31481481481481466  0.0043783907719335269 -0.42051128983978531 0.32430462354370931  0.5 -0.40277777777777779 0.27777777777777779  
-0.5 -0.25000000000000011 0.37962962962962943  0.0043783907719335269 -0.36157527549999846 0.40948363701688795  0.5 -0.34722222222222232 0.34722222222222215  
-0.5 -0.13888888888888895 0.47222222222222221  0.0043783907719335269 -0.21617090082872242 0.54296751883215844  0.5 -0.20833333333333343 0.4583333333333332  
-0.5 -0.055555555555555546 0.5  0.0043783907719335269 -0.0864683603314889 0.59127238717425012  0.5 -0.08333333333333337 0.49999999999999989  
-0.5 9.5714217473173736e-17 0.5  0.0043783907719335269 1.6280623176596687e-16 0.59127238717425012  0.5 6.9388939039072296e-17 0.49999999999999989  

0.83333333333333326 4
0.875 1
0.91666666666666652 1
1 4

0 3
0.49554284647320168 3

1 -0.5 9.5714217473173736e-17 0.5 1 0 0 0 -0.11319187753050172 -0.99357314721218182 0 0.99357314721218182 -0.11319187753050172 
9 0 0 0 0 3 2 4 3 2 2 -0.5 0.33333333333333337 0.27777777777777779  0.0043783907719335269 0.44539057267772847 0.27825302974872157  0.5 0.42592592592592571 0.24074074074074067  
-0.5 0.38888888888888901 0.20370370370370391  0.0043783907719335269 0.50529051470630948 0.19629121851144068  0.5 0.4722222222222221 0.16666666666666652  
-0.5 0.44444444444444464 0.11111111111111147  0.0043783907719335269 0.5468355594070895 0.10048105904056652  0.5 0.50000000000000022 0.083333333333333093  
-0.5 0.50000000000000011 0  0.0043783907719335269 0.56084825811616712 -2.3649327890717055e-16  0.5 0.50000000000000011 -2.4286128663675299e-16  

0.16666666666666666 4
0.25 4

0 3
0.49554284647320168 3

9 0 0 0 0 3 2 6 3 4 2 0.5 7.8640797577615247e-17 0.49999999999999978  1.0045373331427601 -1.637376061926229e-17 0.40708571628627443  1.5 -2.8714265241952118e-16 0.125  
0.5 0.083333333333333343 0.49999999999999978  1.0045373331427601 0.08014191041809042 0.40708571628627455  1.5 0.04166666666666638 0.12500000000000003  
0.5 0.20833333333333304 0.45833333333333337  1.0045373331427601 0.20035477604522589 0.37217666572799196  1.5 0.10416666666666637 0.12499999999999997  
0.5 0.34722222222222177 0.34722222222222232  1.0045373331427601 0.33261097225169672 0.28384078849675964  1.5 0.18749999999999972 0.125  
0.5 0.40277777777777746 0.27777777777777779  1.0045373331427601 0.38472525804007746 0.23041396182380974  1.5 0.22916666666666641 0.125  
0.5 0.42592592592592571 0.24074074074074067  1.0045373331427601 0.40611113016264944 0.20255364416590599  1.5 0.24999999999999972 0.125  

0 4
0.083333333333333329 1
0.125 1
0.16666666666666666 4

0.49554284647320168 3
0.99999999999999956 3

9 0 0 0 0 3 2 4 3 2 2 -0.5 0.50000000000000011 0  0.0043783907719335269 0.56084825811616712 -2.3649327890717055e-16  0.5 0.50000000000000011 -2.4286128663675299e-16  
-0.5 0.44444444444444453 -0.11111111111111135  0.0043783907719335269 0.5468355594070895 -0.10048105904056695  0.5 0.50000000000000033 -0.083333333333333565  
-0.5 0.38888888888888895 -0.20370370370370394  0.0043783907719335269 0.50529051470630981 -0.19629121851144088  0.5 0.47222222222222243 -0.16666666666666671  
-0.5 0.33333333333333337 -0.27777777777777796  0.0043783907719335269 0.44539057267772869 -0.27825302974872157  0.5 0.42592592592592593 -0.24074074074074064  

0.25 4
0.33333333333333331 4

0 3
0.49554284647320168 3

9 0 0 0 0 3 2 4 3 2 2 0.5 0.42592592592592571 0.24074074074074067  1.0045373331427601 0.40611113016264944 0.20255364416590599  1.5 0.24999999999999972 0.125  
0.5 0.4722222222222221 0.16666666666666652  1.0045373331427601 0.43855906510626841 0.13650919954857346  1.5 0.24999999999999978 0.083333333333333315  
0.5 0.50000000000000022 0.083333333333333093  1.0045373331427601 0.45232191696341428 0.06587713764552576  1.5 0.24999999999999972 0.041666666666666657  
0.5 0.50000000000000011 -2.4286128663675299e-16  1.0045373331427601 0.43805714419084985 -2.4934384828760615e-16  1.5 0.24999999999999972 -1.7347234759768071e-17  

0.16666666666666666 4
0.25 4

0.49554284647320168 3
0.99999999999999956 3

9 0 0 0 0 3 2 7 3 5 2 -0.5 0.33333333333333337 -0.27777777777777796  0.0043783907719335269 0.44539057267772869 -0.27825302974872157  0.5 0.42592592592592593 -0.24074074074074064  
-0.5 0.30555555555555558 -0.31481481481481499  0.0043783907719335269 0.42051128983978547 -0.32430462354370926  0.5 0.40277777777777779 -0.27777777777777768  
-0.5 0.19444444444444442 -0.44444444444444436  0.0043783907719335269 0.30263926116021111 -0.49466265049006641  0.5 0.29166666666666641 -0.4166666666666663  
-0.5 2.7626911859560386e-16 -0.5416666666666663  0.0043783907719335269 5.1400911611915559e-16 -0.66372968968738744  0.5 3.7331393041583721e-16 -0.56249999999999978  
-0.5 -0.19444444444444436 -0.44444444444444481  0.0043783907719335269 -0.30263926116021123 -0.49466265049006675  0.5 -0.29166666666666663 -0.41666666666666646  
-0.5 -0.30555555555555547 -0.31481481481481499  0.0043783907719334714 -0.42051128983978514 -0.32430462354370937  0.49999999999999994 -0.40277777777777768 -0.27777777777777779  
-0.5 -0.33333333333333326 -0.2777777777777779  0.0043783907719335269 -0.4453905726777283 -0.27825302974872168  0.5 -0.42592592592592571 -0.24074074074074076  

0.33333333333333331 4
0.375 1
0.5 1
0.625 1
0.66666666666666663 4

0 3
0.49554284647320168 3

9 0 0 0 0 3 2 4 3 2 2 0.5 0.50000000000000011 -2.4286128663675299e-16  1.0045373331427601 0.43805714419084985 -2.4934384828760615e-16  1.5 0.24999999999999972 -1.7347234759768071e-17  
0.5 0.50000000000000033 -0.083333333333333565  1.0045373331427601 0.45232191696341439 -0.065877137645526274  1.5 0.24999999999999972 -0.041666666666666678  
0.5 0.47222222222222243 -0.16666666666666671  1.0045373331427601 0.43855906510626869 -0.13650919954857366  1.5 0.24999999999999978 -0.083333333333333356  
0.5 0.42592592592592593 -0.24074074074074064  1.0045373331427601 0.40611113016264966 -0.20255364416590591  1.5 0.24999999999999972 -0.125  

0.25 4
0.33333333333333331 4

0.49554284647320168 3
0.99999999999999956 3

9 0 0 0 0 3 2 4 3 2 2 -0.5 -0.33333333333333326 -0.2777777777777779  0.0043783907719335269 -0.4453905726777283 -0.27825302974872168  0.5 -0.42592592592592571 -0.24074074074074076  
-0.5 -0.38888888888888878 -0.20370370370370372  0.0043783907719335269 -0.50529051470630915 -0.19629121851144077  0.5 -0.47222222222222199 -0.16666666666666666  
-0.5 -0.44444444444444431 -0.11111111111111099  0.0043783907719335269 -0.54683555940708872 -0.10048105904056666  0.5 -0.49999999999999972 -0.083333333333333343  
-0.5 -0.49999999999999989 0  0.0043783907719335269 -0.56084825811616645 2.6910043348218458e-17  0.5 -0.49999999999999967 4.163336342344337e-17  

0.66666666666666663 4
0.75 4

0 3
0.49554284647320168 3

9 0 0 0 0 3 2 7 3 5 2 0.5 0.42592592592592593 -0.24074074074074064  1.0045373331427601 0.40611113016264966 -0.20255364416590591  1.5 0.24999999999999972 -0.125  
0.5 0.40277777777777779 -0.27777777777777768  1.0045373331427601 0.38472525804007773 -0.23041396182380952  1.5 0.22916666666666638 -0.125  
0.5 0.29166666666666641 -0.4166666666666663  1.0045373331427601 0.28049668646331638 -0.33726761516970888  1.5 0.14583333333333301 -0.12500000000000003  
0.5 3.7331393041583721e-16 -0.56249999999999978  1.0045373331427601 2.3008778276795984e-16 -0.45944929212369862  1.5 -3.0531133177191805e-16 -0.12499999999999996  
0.5 -0.29166666666666663 -0.41666666666666646  1.0045373331427601 -0.28049668646331682 -0.33726761516970893  1.5 -0.14583333333333368 -0.125  
0.49999999999999994 -0.40277777777777768 -0.27777777777777779  1.0045373331427601 -0.38472525804007779 -0.23041396182380963  1.5000000000000002 -0.22916666666666699 -0.125  
0.5 -0.42592592592592571 -0.24074074074074076  1.0045373331427601 -0.40611113016264966 -0.20255364416590604  1.5 -0.25000000000000028 -0.125  

0.33333333333333331 4
0.375 1
0.5 1
0.625 1
0.66666666666666663 4

0.49554284647320168 3
0.99999999999999956 3

9 0 0 0 0 3 2 4 3 2 2 -0.5 -0.49999999999999989 0  0.0043783907719335269 -0.56084825811616645 2.6910043348218458e-17  0.5 -0.49999999999999967 4.163336342344337e-17  
-0.5 -0.4444444444444442 0.11111111111111099  0.0043783907719335269 -0.54683555940708861 0.10048105904056662  0.5 -0.49999999999999967 0.083333333333333315  
-0.5 -0.38888888888888873 0.20370370370370353  0.0043783907719335269 -0.50529051470630915 0.19629121851144066  0.5 -0.47222222222222199 0.1666666666666666  
-0.5 -0.33333333333333326 0.27777777777777757  0.0043783907719335269 -0.44539057267772852 0.27825302974872157  0.5 -0.42592592592592593 0.2407407407407407  

0.75 4
0.83333333333333326 4

0 3
0.49554284647320168 3

9 0 0 0 0 3 2 4 3 2 2 0.5 -0.42592592592592571 -0.24074074074074076  1.0045373331427601 -0.40611113016264966 -0.20255364416590604  1.5 -0.25000000000000028 -0.125  
0.5 -0.47222222222222199 -0.16666666666666666  1.0045373331427601 -0.43855906510626846 -0.13650919954857366  1.5 -0.25000000000000033 -0.083333333333333315  
0.5 -0.49999999999999972 -0.083333333333333343  1.0045373331427601 -0.45232191696341395 -0.065877137645526121  1.5 -0.25000000000000028 -0.041666666666666637  
0.5 -0.49999999999999967 4.163336342344337e-17  1.0045373331427601 -0.43805714419084951 5.662154091096478e-17  1.5 -0.25000000000000028 5.8980598183211441e-17  

0.66666666666666663 4
0.75 4

0.49554284647320168 3
0.99999999999999956 3

9 0 0 0 0 3 2 4 3 2 2 0.5 -0.49999999999999967 4.163336342344337e-17  1.0045373331427601 -0.43805714419084951 5.662154091096478e-17  1.5 -0.25000000000000028 5.8980598183211441e-17  
0.5 -0.49999999999999967 0.083333333333333315  1.0045373331427601 -0.45232191696341395 0.065877137645526107  1.5 -0.25000000000000028 0.041666666666666699  
0.5 -0.47222222222222199 0.1666666666666666  1.0045373331427601 -0.43855906510626846 0.13650919954857366  1.5 -0.25000000000000033 0.083333333333333356  
0.5 -0.42592592592592593 0.2407407407407407  1.0045373331427601 -0.40611113016264988 0.20255364416590604  1.5 -0.25000000000000028 0.125  

0.75 4
0.83333333333333326 4

0.49554284647320168 3
0.99999999999999956 3

9 0 0 0 0 3 2 6 3 4 2 0.5 -0.42592592592592593 0.2407407407407407  1.0045373331427601 -0.40611113016264988 0.20255364416590604  1.5 -0.25000000000000028 0.125  
0.5 -0.40277777777777779 0.27777777777777779  1.0045373331427601 -0.3847252580400779 0.23041396182380974  1.5 -0.22916666666666691 0.125  
0.5 -0.34722222222222232 0.34722222222222215  1.0045373331427601 -0.33261097225169739 0.28384078849675942  1.5 -0.18750000000000022 0.125  
0.5 -0.20833333333333343 0.4583333333333332  1.0045373331427601 -0.20035477604522636 0.37217666572799174  1.5 -0.10416666666666689 0.12499999999999997  
0.5 -0.08333333333333337 0.49999999999999989  1.0045373331427601 -0.080141910418090601 0.40708571628627455  1.5 -0.041666666666666963 0.12500000000000003  
0.5 6.9388939039072296e-17 0.49999999999999989  1.0045373331427601 -2.570883487609881e-17 0.40708571628627455  1.5 -2.8714265241952118e-16 0.125  

0.83333333333333326 4
0.875 1
0.91666666666666652 1
1 4

0.49554284647320168 3
0.99999999999999956 3

1 1.5 -2.8714265241952118e-16 0.125 -1 9.8607613152626476e-32 -8.8817841970012523e-16 6.2803698347351007e-16 0.70710678118654768 -0.70710678118654746 6.2803698347351007e-16 -0.70710678118654746 -0.70710678118654768 
Triangulations 0

TShapes 90
Ve
1e-07
-0.5 9.57142174731737e-17 0.5
0 0

0101101
*
Ve
1e-07
0.5 7.86407975776152e-17 0.5
0 0

0101101
*
Ed
 1e-07 1 1 0
1  1 0 0 0.495542846473202
2  1 1 0 0 0.495542846473202
2  2 2 0 0 0.495542846473202
4 G2 1 0 2 0
0

0101000
+90 0 -89 0 *
Ve
1e-07
-0.5 0.333333333333333 0.277777777777778
0 0

0101101
*
Ed
 1e-07 1 1 0
1  2 0 0 0.166666666666667
2  3 1 0 0 0.166666666666667
2  4 3 0 0 0.166666666666667
4 C0 1 0 3 0
0

0101000
+90 0 -87 0 *
Ve
1e-07
0.5 0.425925925925926 0.240740740740741
0 0

0101101
*
Ed
 1e-07 1 1 0
1  3 0 0 0.495542846473202
2  5 1 0 0 0.495542846473202
2  6 4 0 0 0.495542846473202
4 C0 1 0 4 0
0

0101000
+87 0 -85 0 *
Ed
 1e-07 1 1 0
1  4 0 0 0.166666666666667
2  7 1 0 0 0.166666666666667
2  8 5 0 0 0.166666666666667
4 C2 1 0 5 0
0

0101000
+89 0 -85 0 *
Wi

0101100
-88 0 +86 0 +84 0 -83 0 *
Fa
1  1e-07 1 0

0111000
+82 0 *
Ve
1e-07
-0.5 0.5 0
0 0

0101101
*
Ed
 1e-07 1 1 0
1  5 0 0.166666666666667 0.25
2  9 3 0 0.166666666666667 0.25
2  10 4 0 0.166666666666667 0.25
4 C0 4 0 3 0
0

0101000
+87 0 -80 0 *
Ve
1e-07
0.5 0.5 -2.42861286636753e-16
0 0

0101101
*
Ed
 1e-07 1 1 0
1  6 0 0 0.495542846473202
2  11 4 0 0 0.495542846473202
2  12 6 0 0 0.495542846473202
4 C0 4 0 6 0
0

0101000
+80 0 -78 0 *
Ed
 1e-07 1 1 0
1  7 0 0.166666666666667 0.25
2  13 4 0 0.166666666666667 0.25
2  14 7 0 0.166666666666667 0.25
4 C2 4 0 7 0
0

0101000
+85 0 -78 0 *
Wi

0101100
-84 0 +79 0 +77 0 -76 0 *
Fa
1  1e-07 4 0

0111000
+75 0 *
Ve
1e-07
-0.5 0.333333333333333 -0.277777777777778
0 0

0101101
*
Ed
 1e-07 1 1 0
1  8 0 0.25 0.333333333333333
2  15 6 0 0.25 0.333333333333333
2  16 3 0 0.25 0.333333333333333
4 C0 6 0 3 0
0

0101000
+80 0 -73 0 *
Ve
1e-07
0.5 0.425925925925926 -0.240740740740741
0 0

0101101
*
Ed
 1e-07 1 1 0
1  9 0 0 0.495542846473202
2  17 6 0 0 0.495542846473202
2  18 8 0 0 0.495542846473202
4 C0 6 0 8 0
0

0101000
+73 0 -71 0 *
Ed
 1e-07 1 1 0
1  10 0 0.25 0.333333333333333
2  19 6 0 0.25 0.333333333333333
2  20 9 0 0.25 0.333333333333333
4 C2 6 0 9 0
0

0101000
+78 0 -71 0 *
Wi

0101100
-77 0 +72 0 +70 0 -69 0 *
Fa
1  1e-07 6 0

0111000
+68 0 *
Ve
1e-07
-0.5 -0.333333333333333 -0.277777777777778
0 0

0101101
*
Ed
 1e-07 1 1 0
1  11 0 0.333333333333333 0.666666666666667
2  21 8 0 0.333333333333333 0.666666666666667
2  22 3 0 0.333333333333333 0.666666666666667
4 C0 8 0 3 0
0

0101000
+73 0 -66 0 *
Ve
1e-07
0.5 -0.425925925925926 -0.240740740740741
0 0

0101101
*
Ed
 1e-07 1 1 0
1  12 0 0 0.495542846473202
2  23 8 0 0 0.495542846473202
2  24 10 0 0 0.495542846473202
4 C0 8 0 10 0
0

0101000
+66 0 -64 0 *
Ed
 1e-07 1 1 0
1  13 0 0.333333333333333 0.666666666666667
2  25 8 0 0.333333333333333 0.666666666666667
2  26 11 0 0.333333333333333 0.666666666666667
4 C2 8 0 11 0
0

0101000
+71 0 -64 0 *
Wi

0101100
-70 0 +65 0 +63 0 -62 0 *
Fa
1  1e-07 8 0

0111000
+61 0 *
Ve
1e-07
-0.5 -0.5 0
0 0

0101101
*
Ed
 1e-07 1 1 0
1  5 0 0.666666666666667 0.75
2  27 3 0 0.666666666666667 0.75
2  28 10 0 0.666666666666667 0.75
4 C0 10 0 3 0
0

0101000
+66 0 -59 0 *
Ve
1e-07
0.5 -0.5 4.16333634234434e-17
0 0

0101101
*
Ed
 1e-07 1 1 0
1  14 0 0 0.495542846473202
2  29 10 0 0 0.495542846473202
2  30 12 0 0 0.495542846473202
4 C0 10 0 12 0
0

0101000
+59 0 -57 0 *
Ed
 1e-07 1 1 0
1  15 0 0.666666666666667 0.75
2  31 10 0 0.666666666666667 0.75
2  32 13 0 0.666666666666667 0.75
4 C2 10 0 13 0
0

0101000
+64 0 -57 0 *
Wi

0101100
-63 0 +58 0 +56 0 -55 0 *
Fa
1  1e-07 10 0

0111000
+54 0 *
Ve
1e-07
-0.5 -0.333333333333333 0.277777777777778
0 0

0101101
*
Ed
 1e-07 1 1 0
1  16 0 0.75 0.833333333333333
2  33 12 0 0.75 0.833333333333333
2  34 3 0 0.75 0.833333333333333
4 C0 12 0 3 0
0

0101000
+59 0 -52 0 *
Ve
1e-07
0.5 -0.425925925925926 0.240740740740741
0 0

0101101
*
Ed
 1e-07 1 1 0
1  17 0 0 0.495542846473202
2  35 12 0 0 0.495542846473202
2  36 2 0 0 0.495542846473202
4 C0 12 0 2 0
0

0101000
+52 0 -50 0 *
Ed
 1e-07 1 1 0
1  18 0 0.75 0.833333333333333
2  37 12 0 0.75 0.833333333333333
2  38 14 0 0.75 0.833333333333333
4 C2 12 0 14 0
0

0101000
+57 0 -50 0 *
Wi

0101100
-56 0 +51 0 +49 0 -48 0 *
Fa
1  1e-07 12 0

0111000
+47 0 *
Ed
 1e-07 1 1 0
1  5 0 0.833333333333333 1
2  39 3 0 0.833333333333333 1
2  40 2 0 0.833333333333333 1
4 C0 2 0 3 0
0

0101000
+52 0 -90 0 *
Ed
 1e-07 1 1 0
1  19 0 0.833333333333333 1
2  41 2 0 0.833333333333333 1
2  42 15 0 0.833333333333333 1
4 C2 2 0 15 0
0

0101000
+50 0 -89 0 *
Wi

0101100
-49 0 +45 0 +88 0 -44 0 *
Fa
1  1e-07 2 0

0111000
+43 0 *
Ve
1e-07
1.5 -2.87142652419521e-16 0.125
0 0

0101101
*
Ed
 1e-07 1 1 0
1  20 0 0.495542846473202 1
2  43 15 0 0.495542846473202 1
2  44 5 0 0.495542846473202 1
4 G2 5 0 15 0
0

0101000
+89 0 -41 0 *
Ve
1e-07
1.5 0.25 0.125
0 0

0101101
*
Ed
 1e-07 1 1 0
1  21 0 0.495542846473202 1
2  45 5 0 0.495542846473202 1
2  46 7 0 0.495542846473202 1
4 C0 5 0 7 0
0

0101000
+85 0 -39 0 *
Ed
 1e-07 1 1 0
1  22 0 0 0.166666666666667
2  47 5 0 0 0.166666666666667
2  48 16 0 0 0.166666666666667
4 C0 5 0 16 0
0

0101000
+41 0 -39 0 *
Wi

0101100
-40 0 +83 0 +38 0 -37 0 *
Fa
1  1e-07 5 0

0111000
+36 0 *
Ve
1e-07
1.5 0.25 -1.73472347597681e-17
0 0

0101101
*
Ed
 1e-07 1 1 0
1  23 0 0.495542846473202 1
2  49 7 0 0.495542846473202 1
2  50 9 0 0.495542846473202 1
4 C0 7 0 9 0
0

0101000
+78 0 -34 0 *
Ed
 1e-07 1 1 0
1  24 0 0.166666666666667 0.25
2  51 7 0 0.166666666666667 0.25
2  52 16 0 0.166666666666667 0.25
4 C0 7 0 16 0
0

0101000
+39 0 -34 0 *
Wi

0101100
-38 0 +76 0 +33 0 -32 0 *
Fa
1  1e-07 7 0

0111000
+31 0 *
Ve
1e-07
1.5 0.25 -0.125
0 0

0101101
*
Ed
 1e-07 1 1 0
1  25 0 0.495542846473202 1
2  53 9 0 0.495542846473202 1
2  54 11 0 0.495542846473202 1
4 C0 9 0 11 0
0

0101000
+71 0 -29 0 *
Ed
 1e-07 1 1 0
1  26 0 0.25 0.333333333333333
2  55 9 0 0.25 0.333333333333333
2  56 16 0 0.25 0.333333333333333
4 C0 9 0 16 0
0

0101000
+34 0 -29 0 *
Wi

0101100
-33 0 +69 0 +28 0 -27 0 *
Fa
1  1e-07 9 0

0111000
+26 0 *
Ve
1e-07
1.5 -0.25 -0.125
0 0

0101101
*
Ed
 1e-07 1 1 0
1  27 0 0.495542846473202 1
2  57 11 0 0.495542846473202 1
2  58 13 0 0.495542846473202 1
4 C0 11 0 13 0
0

0101000
+64 0 -24 0 *
Ed
 1e-07 1 1 0
1  28 0 0.333333333333333 0.666666666666667
2  59 16 0 0.333333333333333 0.666666666666667
2  60 11 0 0.333333333333333 0.666666666666667
4 C0 11 0 16 0
0

0101000
+29 0 -24 0 *
Wi

0101100
-28 0 +62 0 +23 0 -22 0 *
Fa
1  1e-07 11 0

0111000
+21 0 *
Ve
1e-07
1.5 -0.25 5.89805981832114e-17
0 0

0101101
*
Ed
 1e-07 1 1 0
1  29 0 0.495542846473202 1
2  61 13 0 0.495542846473202 1
2  62 14 0 0.495542846473202 1
4 C0 13 0 14 0
0

0101000
+57 0 -19 0 *
Ed
 1e-07 1 1 0
1  30 0 0.666666666666667 0.75
2  63 13 0 0.666666666666667 0.75
2  64 16 0 0.666666666666667 0.75
4 C0 13 0 16 0
0

0101000
+24 0 -19 0 *
Wi

0101100
-23 0 +55 0 +18 0 -17 0 *
Fa
1  1e-07 13 0

0111000
+16 0 *
Ve
1e-07
1.5 -0.25 0.125
0 0

0101101
*
Ed
 1e-07 1 1 0
1  31 0 0.495542846473202 1
2  65 14 0 0.495542846473202 1
2  66 15 0 0.495542846473202 1
4 C0 14 0 15 0
0

0101000
+50 0 -14 0 *
Ed
 1e-07 1 1 0
1  32 0 0.75 0.833333333333333
2  67 14 0 0.75 0.833333333333333
2  68 16 0 0.75 0.833333333333333
4 C0 14 0 16 0
0

0101000
+19 0 -14 0 *
Wi

0101100
-18 0 +48 0 +13 0 -12 0 *
Fa
1  1e-07 14 0

0111000
+11 0 *
Ed
 1e-07 1 1 0
1  33 0 0.833333333333333 1
2  69 15 0 0.833333333333333 1
2  70 16 0 0.833333333333333 1
4 C0 15 0 16 0
0

0101000
+14 0 -41 0 *
Wi

0101100
-13 0 +44 0 +40 0 -9 0 *
Fa
1  1e-07 15 0

0111000
+8 0 *
Wi

0101100
+86 0 +79 0 +72 0 +65 0 +58 0 +51 0 +45 0 *
Fa
0  1e-07 3 0

0111000
-6 0 *
Wi

0101100
+37 0 +32 0 +27 0 +22 0 +17 0 +12 0 +9 0 *
Fa
0  1e-07 16 0

0111000
+4 0 *
Sh

0101100
+81 0 +74 0 +67 0 +60 0 +53 0 +46 0 +42 0 +35 0 +30 0 +25 0 
+20 0 +15 0 +10 0 +7 0 +5 0 +3 0 *
So

1100000
-2 0 *

+1 0 