DBRep_DrawableShape

CASCADE Topology V3, (c) Open Cascade
Locations 80
1
              1               0               0               0 
              0               1               0               0 
              0               0               1               0 
1
              1               0               0               0 
              0               1               0               0 
              0               0               1               0 
2  2 -1 0
1
              1               0               0               0 
              0               1               0               0 
              0               0               1               0 
1
              1               0               0               0 
              0               0              -1               0 
              0               1               0               0 
1
              1               0               0               0 
              0              -0              -1               0 
              0               1              -0               0 
2  4 1 5 1 6 -1 2 1 0
1
              1               0               0               0 
              0              -0              -1               0 
              0               1              -0               0 
2  8 -1 2 -1 6 1 5 -1 4 -1 0
2  8 -1 0
1
              1               0               0               0 
              0               1               0           4e-15 
              0               0               1              10 
2  4 1 5 1 6 -1 11 1 2 1 0
2  8 -1 2 -1 11 -1 6 1 5 -1 4 -1 0
2  6 -1 2 1 0
2  2 -1 6 1 0
2  6 -1 11 1 2 1 0
2  2 -1 11 -1 6 1 0
1
              1               0               0               0 
              0               1               0               0 
              0               0               1               0 
1
              1               0               0               0 
              0               1               0               0 
              0               0               1               0 
2  19 -1 0
1
              1               0               0               0 
              0               1               0               0 
              0               0               1               0 
1
              1               0               0               0 
              0               0              -1               0 
              0               1               0               0 
1
              1               0               0               0 
              0              -0              -1               0 
              0               1              -0               0 
2  21 1 22 1 23 -1 19 1 0
1
              1               0               0               0 
              0              -0              -1               0 
              0               1              -0               0 
2  25 -1 19 -1 23 1 22 -1 21 -1 0
2  25 -1 0
1
              1               0               0               0 
              0               1               0           4e-15 
              0               0               1              10 
2  21 1 22 1 23 -1 28 1 19 1 0
2  25 -1 19 -1 28 -1 23 1 22 -1 21 -1 0
2  23 -1 19 1 0
2  19 -1 23 1 0
2  23 1 22 -1 21 -1 0
2  23 -1 28 1 19 1 0
2  19 -1 28 -1 23 1 0
2  28 -1 23 1 22 -1 21 -1 0
2  25 -1 19 -1 0
1
              1               0               0               0 
              0               1               0               0 
              0               0               1               0 
1
              1               0               0               0 
              0               1               0               0 
              0               0               1               0 
2  39 -1 0
1
              1               0               0               0 
              0               1               0               0 
              0               0               1               0 
1
              1               0               0               0 
              0 -2.22044604925031e-16              -1               0 
              0               1 -2.22044604925031e-16               0 
1
              1               0               0               0 
              0 -2.22044604925031e-16              -1               0 
              0               1 -2.22044604925031e-16               0 
2  41 1 42 1 43 -1 39 1 0
1
              1               0               0               0 
              0 -2.22044604925031e-16              -1               0 
              0               1 -2.22044604925031e-16               0 
2  45 -1 39 -1 43 1 42 -1 41 -1 0
2  45 -1 0
1
              1               0               0               0 
              0               1               0               0 
              0               0               1              10 
2  41 1 42 1 43 -1 48 1 39 1 0
2  45 -1 39 -1 48 -1 43 1 42 -1 41 -1 0
2  43 -1 39 1 0
2  39 -1 43 1 0
2  43 -1 48 1 39 1 0
2  39 -1 48 -1 43 1 0
1
              1               0               0               0 
              0               1               0               0 
              0               0               1               0 
1
              1               0               0               0 
              0              -0              -1               0 
              0               1              -0               0 
1
              1               0               0               0 
              0              -0              -1               0 
              0               1              -0               0 
2  56 1 57 -1 0
1
              1               0               0               0 
              0              -0              -1               0 
              0               1              -0               0 
2  59 -1 57 1 56 -1 0
1
              1               0               0               0 
              0               1               0               0 
              0               0               1               0 
1
              1               0               0               0 
              0               0              -1               0 
              0               1               0               0 
1
              1               0               0               0 
              0              -0              -1               0 
              0               1              -0               0 
2  61 1 62 1 63 -1 0
2  63 1 62 -1 61 -1 0
2  59 -1 57 1 56 -1 63 1 62 -1 61 -1 0
1
              1               0               0               0 
              0               1               0           4e-15 
              0               0               1              10 
2  61 1 62 1 63 -1 67 1 0
2  67 -1 63 1 62 -1 61 -1 0
2  59 -1 57 1 56 -1 67 -1 63 1 62 -1 61 -1 0
2  63 -1 56 1 57 -1 0
2  61 1 62 1 63 -1 56 1 57 -1 0
2  59 -1 0
2  63 -1 67 1 56 1 57 -1 0
2  61 1 62 1 63 -1 67 1 56 1 57 -1 0
1
              1               0               0               0 
              0               1               0               0 
              0               0               1               0 
1
              1               0              -0              -0 
             -0               0              -1             -10 
              0               1               0           2e-15 
2  76 1 77 1 57 -1 0
2  59 -1 57 1 77 -1 76 -1 0
2  57 1 77 -1 76 -1 0
Curve2ds 96
8 0 10
1 0 0 0 1 
8 0 10.000000000000002
1 0 0 0 1 
8 1.2679114584199249 3.1415926535897931
1 -1.2679114584199249 0 1 0 
8 5.0152738487596604 6.2831853071795862
1 -5.0152738487596604 0 1 0 
8 1.8736811951698684 3.1415926535897931
1 -1.873681195169868 0 1 0 
8 0 1.2679114584199251
1 0 0 1 0 
8 5.0152738487596595 7.5510967655995112
1 -5.0152738487596586 0 1 0 
8 1.2679114584199236 3.1415926535897931
1 -1.2679114584199231 0 1 0 
8 3.1415926535897931 4.4095041120097171
1 -3.1415926535897931 0 1 0 
8 0 10.000000000000002
1 1.873681195169868 0 0 1 
8 1.2679114584199249 3.1415926535897931
1 -1.2679114584199249 10 1 0 
8 0 10.000000000000002
1 1.2679114584199251 0 0 1 
8 5.0152738487596604 6.2831853071795862
1 -5.0152738487596604 10.000000000000002 1 0 
8 1.8736811951698618 3.1415926535897931
1 -1.873681195169862 10.000000000000002 1 0 
8 0 1.2679114584199251
1 0 10.000000000000002 1 0 
8 5.0152738487596631 7.5510967655995112
1 -5.0152738487596604 10.000000000000002 1 0 
8 1.2679114584199236 3.1415926535897931
1 -1.2679114584199231 10.000000000000002 1 0 
8 3.1415926535897931 4.4095041120097234
1 -3.1415926535897931 10.000000000000002 1 0 
8 0 10.000000000000002
1 1.2679114584199251 0 0 1 
8 0 10.000000000000002
1 0 0 0 1 
8 0 10.000000000000002
1 0 0 0 1 
8 0 10.000000000000002
1 1.2679114584199251 0 0 1 
8 0 10.000000000000002
1 2.5358229168398503 0 0 1 
8 0 10.000000000000002
1 0 0 0 1 
8 0 10.000000000000002
1 0 0 0 1 
8 0 10.000000000000002
1 1.873681195169868 0 0 1 
8 0 10.000000000000002
1 1.2679114584199254 0 0 1 
8 0 10.000000000000002
1 0 0 0 1 
8 0 10.000000000000002
1 0 0 0 1 
8 0 10.000000000000002
1 0 0 0 1 
8 0 1.6709637479564403
1 0 0 1 0 
8 0 1.4274487578895245
1 0 0 1 0 
8 5.5143518978937172 9.3246105396078214
1 0 0 1 0 
8 5.5143518978937172 9.2814303918640153
1 0 0 1 0 
8 0 2.3396297360807661
1 0 0 1 0 
8 3.9435555710988206 4.7123889803846906
1 -3.9435555710988206 0 1 0 
8 1.5707963267948966 3.1415926535897931
1 -1.5707963267948966 0 1 0 
8 4.7123889803846897 6.2831853071795862
1 -4.7123889803846897 -0 1 0 
8 0 1.5707963267948966
1 0 0 1 0 
8 0 10.000000000000004
1 1.6709637479564401 0 0 1 
8 0 10.000000000000004
1 9.3246105396078214 0 0 -1 
8 0 1.6709637479564403
1 0 10.000000000000002 1 0 
8 0 10.000000000000002
1 1.4274487578895247 0 0 1 
8 0 10.000000000000002
1 9.2814303918640153 0 0 -1 
8 0 1.4274487578895245
1 0 10.000000000000002 1 0 
8 5.5143518978937172 9.3246105396078214
1 0 -10.000000000000002 1 0 
8 5.5143518978937172 9.2814303918640153
1 0 -10.000000000000002 1 0 
8 0 2.3396297360807661
1 0 10.000000000000002 1 0 
8 3.9435555710988206 4.7123889803846897
1 -3.9435555710988206 10.000000000000002 1 0 
8 1.5707963267948966 3.1415926535897931
1 -1.5707963267948966 10.000000000000002 1 0 
8 4.7123889803846897 6.2831853071795862
1 -4.7123889803846897 10.000000000000002 1 0 
8 0 1.5707963267948968
1 0 10.000000000000002 1 0 
8 0 10.000000000000002
1 5.5143518978937172 0 0 -1 
8 0 10.000000000000002
1 5.5143518978937172 0 0 -1 
8 0 10.000000000000004
1 2.3396297360807656 0 0 1 
8 0 10.000000000000002
1 0 0 0 1 
8 0 10.000000000000002
1 0 0 0 1 
8 0 10.000000000000002
1 0.76883340928586907 0 0 1 
8 0 10.000000000000002
1 1.5707963267948966 0 0 1 
8 0 10.000000000000002
1 0 0 0 1 
8 0 10.000000000000002
1 0 0 0 1 
8 0 10.000000000000002
1 1.5707963267948966 0 0 1 
8 0 10.000000000000002
1 1.5707963267948966 0 0 1 
8 0 10.000000000000002
1 0 0 0 1 
1 0 0 0 1 
1 0 0 0 1 
1 0 0 1 0 
1 0 0 1 0 
1 -3.1415926535897931 0 1 0 
1 -1.5707963267948966 0 1 0 
1 1.5707963267948966 0 0 1 
1 0 10 1 0 
1 1.5707963267948966 0 0 1 
1 0 10 1 0 
1 -3.1415926535897931 10 1 0 
1 -1.5707963267948966 10 1 0 
1 1.5707963267948966 0 0 1 
1 0 0 0 1 
1 0 0 0 1 
1 1.5707963267948966 0 0 1 
8 0 10.000000000000002
1 3.1415926535897936 0 0 -1 
8 0 10.000000000000002
1 6.2831853071795862 0 0 -1 
8 3.1415926535897936 6.2831853071795862
1 0 0 1 0 
8 3.1415926535897936 6.2831853071795862
1 0 -10.000000000000002 1 0 
8 0 10.000000000000002
1 3.1415926535897936 0 0 -1 
8 0 10.000000000000002
1 1.1e-16 0 0 -1 
8 1.1e-16 3.1415926535897936
1 0 0 1 0 
8 3.1415926535897927 6.2831853071795871
1 0 -10.000000000000004 1 0 
8 0 3.1415926535897931
1 0 -10.000000000000004 1 0 
8 1.1e-16 3.1415926535897936
1 0 -10.000000000000002 1 0 
8 3.1415926535897931 6.2831853071795871
1 0 0 1 0 
8 1.7999999999999999e-16 3.1415926535897931
1 0 0 1 0 
8 0 10.000000000000004
1 1.7999999999999999e-16 0 0 -1 
8 0 10.000000000000004
1 6.2831853071795871 0 0 -1 
8 0 10.000000000000004
1 3.1415926535897931 0 0 -1 
8 0 10.000000000000004
1 3.1415926535897931 0 0 -1 
Curves 138
1 -40.937500000000007 -7.7699999999999996e-15 35.000000000000007 0.2982749931359468 2.1000000000000001e-16 -0.95447997803502971 
1 -40.531789064645025 7.4800000000000001e-15 33.701725006864059 0 -1 2.2e-16 
1 -30.219289064645022 1.6000000000000001e-16 0.70172500686405337 0 -1 2.2e-16 
1 -40.937500000000007 -10.000000000000009 25.000000000000007 0.2982749931359468 2.1000000000000001e-16 -0.95447997803502971 
8 1.2679114584199249 3.1415926535897931
2 -39.577309086609993 7.55e-15 34.000000000000007 -0 1 -2.2e-16 0 -2.2e-16 -1 -1 -0 0 1.0000000000000002
8 5.0152738487596604 6.2831853071795862
2 -29.264809086609993 2.2e-16 1.0000000000000002 0 -1 2.2e-16 0 -2.2e-16 -1 1 0 0 1.0000000000000002
1 -35.937500000000007 -7.7699999999999996e-15 35.000000000000007 -1 -0 0 
1 -30.000000000000007 0 0 1 0 0 
8 1.8736811951698684 3.1415926535897931
2 -36.672690913390021 7.55e-15 34.000000000000007 0 -1 2.2e-16 0 -2.2e-16 -1 1 0 0 1.0000000000000002
8 0 1.2679114584199251
2 -25.735190913390021 2.2e-16 1.0000000000000002 0 -1 2.2e-16 0 -2.2e-16 -1 1 0 0 1.0000000000000002
1 -27.500000000000007 -1.7800000000000001e-15 8.0000000000000018 -0.2982749931359468 -2.1000000000000001e-16 0.95447997803502982 
1 -25.000000000000007 0 0 0.2982749931359468 -2.1000000000000001e-16 0.95447997803502982 
8 5.0152738487596595 7.5510967655995112
2 -27.500000000000007 2.5199999999999999e-15 11.352610922848047 -0 1 -2.2e-16 0 -2.2e-16 -1 -1 -0 0 1.0000000000000002
8 1.2679114584199236 3.1415926535897931
2 -15.422690913390017 7.55e-15 34.000000000000007 0 -1 2.2e-16 0 -2.2e-16 -1 1 0 0 1.0000000000000002
1 -19.062500000000007 -7.7699999999999996e-15 35.000000000000007 -0.29827499313594669 2.1000000000000001e-16 -0.95447997803502982 
1 -14.062500000000005 -7.7699999999999996e-15 35.000000000000007 -1 -0 0 
8 3.1415926535897931 4.4095041120097171
2 -18.327309086609993 7.55e-15 34.000000000000007 0 -1 2.2e-16 0 -2.2e-16 -1 1 0 0 1.0000000000000002
1 -39.577309086609993 7.7699999999999996e-15 35.000000000000007 0 -1 2.2e-16 
8 1.2679114584199249 3.1415926535897931
2 -39.577309086609993 -9.9999999999999947 34.000000000000014 -0 1 -2.2e-16 0 -2.2e-16 -1 -1 -0 0 1.0000000000000002
1 -29.264809086609993 0 0 0 -1 2.2e-16 
8 5.0152738487596604 6.2831853071795862
2 -29.264809086609993 -10.000000000000002 1.0000000000000024 0 -1 2.2e-16 0 -2.2e-16 -1 1 0 0 1.0000000000000002
1 -35.937500000000007 -10.000000000000009 25.000000000000007 -1 -0 0 
1 -30.000000000000007 -10.000000000000002 -10.000000000000002 1 0 0 
8 1.8736811951698618 3.1415926535897931
2 -36.672690913390021 -9.9999999999999947 34.000000000000014 0 -1 2.2e-16 0 -2.2e-16 -1 1 0 0 1.0000000000000002
8 0 1.2679114584199251
2 -25.735190913390021 -10.000000000000002 1.0000000000000024 0 -1 2.2e-16 0 -2.2e-16 -1 1 0 0 1.0000000000000002
1 -27.500000000000007 -10.000000000000004 -2 -0.2982749931359468 -2.1000000000000001e-16 0.95447997803502982 
1 -25.000000000000007 -10.000000000000002 -10.000000000000002 0.2982749931359468 -2.1000000000000001e-16 0.95447997803502982 
8 5.0152738487596631 7.5510967655995112
2 -27.500000000000007 -9.9999999999999982 11.352610922848051 -0 1 -2.2e-16 0 -2.2e-16 -1 -1 -0 0 1.0000000000000002
8 1.2679114584199236 3.1415926535897931
2 -15.422690913390017 -9.9999999999999947 34.000000000000014 0 -1 2.2e-16 0 -2.2e-16 -1 1 0 0 1.0000000000000002
1 -19.062500000000007 -10.000000000000009 25.000000000000007 -0.29827499313594669 2.1000000000000001e-16 -0.95447997803502982 
1 -14.062500000000005 -10.000000000000009 25.000000000000007 -1 -0 0 
8 3.1415926535897931 4.4095041120097234
2 -18.327309086609993 -9.9999999999999947 34.000000000000014 0 -1 2.2e-16 0 -2.2e-16 -1 1 0 0 1.0000000000000002
1 -36.672690913390021 7.7699999999999996e-15 35.000000000000007 0 -1 2.2e-16 
1 -25.735190913390021 0 0 0 -1 2.2e-16 
1 -35.718210935354989 7.62e-15 34.298274993135955 0 -1 2.2e-16 
1 -24.780710935354993 1.6000000000000001e-16 0.70172500686405326 0 -1 2.2e-16 
1 -28.454479978035035 2.45e-15 11.054335929712099 0 -1 2.2e-16 
1 -14.468210935354987 7.4800000000000001e-15 33.701725006864059 0 -1 2.2e-16 
1 -26.545520021964979 2.45e-15 11.054335929712101 0 -1 2.2e-16 
1 -15.422690913390017 7.7699999999999996e-15 35.000000000000007 0 -1 2.2e-16 
1 -19.281789064645022 7.62e-15 34.298274993135955 0 -1 2.2e-16 
1 -18.327309086609993 7.7699999999999996e-15 35.000000000000007 0 -1 2.2e-16 
1 -12.000000000000004 -5.5499999999999999e-15 25.000000000000014 1 0 0 
1 -10.949874371066201 5.5499999999999999e-15 25.000000000000014 0 -1 2.2e-16 
1 -7.9282032302755105 5.5499999999999999e-15 25.000000000000014 0 -1 2.2e-16 
1 -12.000000000000004 -10.000000000000007 15.000000000000012 1 0 0 
8 0 1.6709637479564403
2 -10.949874371066201 5.7700000000000003e-15 26.000000000000014 0 1 -2.2e-16 0 -2.2e-16 -1 -1 0 -0 1.0000000000000002
8 0 1.4274487578895245
2 -7.9282032302755105 5.7700000000000003e-15 26.000000000000014 0 -1 2.2e-16 0 -2.2e-16 -1 1 0 0 1.0000000000000002
2 -1 -5.5499999999999999e-15 25.000000000000014 0 -1 -2.2e-16 1 0 0 0 -2.2e-16 1 11.000000000000002
2 -1 -5.5499999999999999e-15 25.000000000000014 0 -1 -2.2e-16 1 0 0 0 -2.2e-16 1 6.0000000000000018
1 6.9059451439922315 -3.8499999999999998e-15 17.351730170804274 -0.69529725719961155 1.6000000000000001e-16 -0.71872228581747577 
1 3.3123337149048533 -4.6200000000000001e-15 20.828216456802334 -0.69529725719961166 1.6000000000000001e-16 -0.71872228581747577 
8 0 2.3396297360807661
2 -2.6844446188497249 1.3299999999999999e-15 6 -0 1 -2.2e-16 0 -2.2e-16 -1 -1 -0 0 1.0000000000000002
8 3.9435555710988206 4.7123889803846906
2 -11.000000000000005 1.02e-15 4.595456890890949 0 -1 2.2e-16 0 -2.2e-16 -1 1 0 0 1.0000000000000002
1 10.000000000000002 -1.1100000000000001e-15 5.0000000000000009 -1 -0 0 
1 -12.000000000000004 -1.1100000000000001e-15 5.0000000000000009 0 2.2e-16 -1 
8 1.5707963267948966 3.1415926535897931
2 9.0000000000000018 8.9000000000000007e-16 4.0000000000000009 0 -1 2.2e-16 0 -2.2e-16 -1 1 0 0 1.0000000000000002
8 4.7123889803846897 6.2831853071795862
2 -11.000000000000002 2.2e-16 1 0 -1 2.2e-16 0 -2.2e-16 -1 1 0 0 1.0000000000000002
1 10.000000000000002 0 0 0 -2.2e-16 1 
1 -12.000000000000004 0 0 1 0 0 
8 0 1.5707963267948966
2 9.0000000000000018 2.2e-16 1 0 -1 2.2e-16 0 -2.2e-16 -1 1 0 0 1.0000000000000002
1 -11.944861808172822 5.8000000000000004e-15 26.099999999999998 0 -1 2.2e-16 
8 0 1.6709637479564403
2 -10.949874371066201 -9.9999999999999947 26.000000000000014 0 1 -2.2e-16 0 -2.2e-16 -1 -1 0 -0 1.0000000000000002
1 -6.9384599116647241 5.7400000000000002e-15 25.857142857142865 0 -1 2.2e-16 
8 0 1.4274487578895245
2 -7.9282032302755105 -9.9999999999999947 26.000000000000014 0 -1 2.2e-16 0 -2.2e-16 -1 1 0 0 1.0000000000000002
2 -1 -10.000000000000007 15.000000000000012 0 -1 -2.2e-16 1 0 0 0 -2.2e-16 1 11.000000000000002
2 -1 -10.000000000000007 15.000000000000012 0 -1 -2.2e-16 1 0 0 0 -2.2e-16 1 6.0000000000000018
1 6.9059451439922315 -10.000000000000005 7.3517301708042719 -0.69529725719961155 1.6000000000000001e-16 -0.71872228581747577 
1 3.3123337149048533 -10.000000000000007 10.828216456802332 -0.69529725719961166 1.6000000000000001e-16 -0.71872228581747577 
8 0 2.3396297360807661
2 -2.6844446188497249 -10.000000000000002 6.0000000000000036 -0 1 -2.2e-16 0 -2.2e-16 -1 -1 -0 0 1.0000000000000002
8 3.9435555710988206 4.7123889803846897
2 -11.000000000000005 -10.000000000000002 4.5954568908909517 0 -1 2.2e-16 0 -2.2e-16 -1 1 0 0 1.0000000000000002
1 10.000000000000002 -10.000000000000004 -5.0000000000000009 -1 -0 0 
1 -12.000000000000004 -10.000000000000004 -5.0000000000000009 0 2.2e-16 -1 
8 1.5707963267948966 3.1415926535897931
2 9.0000000000000018 -10.000000000000002 4.0000000000000036 0 -1 2.2e-16 0 -2.2e-16 -1 1 0 0 1.0000000000000002
8 4.7123889803846897 6.2831853071795862
2 -11.000000000000002 -10.000000000000002 1.0000000000000022 0 -1 2.2e-16 0 -2.2e-16 -1 1 0 0 1.0000000000000002
1 10.000000000000002 -10.000000000000002 -10.000000000000002 0 -2.2e-16 1 
1 -12.000000000000004 -10.000000000000002 -10.000000000000002 1 0 0 
8 0 1.5707963267948968
2 9.0000000000000018 -10.000000000000002 1.0000000000000022 0 -1 2.2e-16 0 -2.2e-16 -1 1 0 0 1.0000000000000002
1 6.9059451439922315 3.8499999999999998e-15 17.351730170804277 0 -1 2.2e-16 
1 3.3123337149048533 4.6200000000000001e-15 20.828216456802338 0 -1 2.2e-16 
1 -3.4031669046672008 1.49e-15 6.6952972571996128 0 -1 2.2e-16 
1 -11.718722285817481 1.1700000000000001e-15 5.2907541480905609 0 -1 2.2e-16 
1 -2.6844446188497249 1.1100000000000001e-15 5 0 -1 2.2e-16 
1 -12.000000000000007 1.02e-15 4.595456890890949 0 -1 2.2e-16 
1 9.0000000000000018 1.1100000000000001e-15 5.0000000000000009 0 -1 2.2e-16 
1 -12.000000000000004 2.2e-16 1 0 -1 2.2e-16 
1 10.000000000000002 8.9000000000000007e-16 4.0000000000000009 0 -1 2.2e-16 
1 -11.000000000000002 -0 -2.2e-16 0 -1 2.2e-16 
1 10.000000000000002 2.2e-16 0.99999999999999989 0 -1 2.2e-16 
1 9.0000000000000018 -0 -2.2e-16 0 -1 2.2e-16 
1 12.5 0 0 1 0 0 
1 14.5 9.8607613152626476e-32 -4.4408920985006262e-16 0 -1 -2.2204460492503131e-16 
1 15.5 9.8607613152626476e-32 -4.4408920985006262e-16 0 -1 -2.2204460492503131e-16 
1 12.5 -10 -10.000000000000002 1 0 0 
8 0 1.5707963267948966
2 14.5 -4.4408920985006252e-16 1.9999999999999996 0 1 2.2204460492503131e-16 0 2.2204460492503131e-16 -1 -1 0 0 2
8 0 1.5707963267948966
2 15.5 -4.4408920985006252e-16 1.9999999999999996 0 -1 -2.2204460492503131e-16 0 2.2204460492503131e-16 -1 1 0 0 2
1 12.5 -1.1102230246251565e-15 5 0 2.2204460492503131e-16 -1 
1 17.5 0 0 0 -2.2204460492503131e-16 1 
8 3.1415926535897931 4.7123889803846897
2 14.5 -6.6613381477509402e-16 3.0000000000000004 0 -1 -2.2204460492503131e-16 0 2.2204460492503131e-16 -1 1 0 0 2
8 1.5707963267948966 3.1415926535897931
2 15.5 -6.6613381477509402e-16 3.0000000000000004 0 -1 -2.2204460492503131e-16 0 2.2204460492503131e-16 -1 1 0 0 2
1 17.5 -1.1102230246251565e-15 5 -1 -0 0 
1 12.5 -4.4408920985006247e-16 1.9999999999999993 0 -1 -2.2204460492503131e-16 
8 0 1.5707963267948966
2 14.5 -10 1.9999999999999973 0 1 2.2204460492503131e-16 0 2.2204460492503131e-16 -1 -1 0 0 2
1 17.5 -4.4408920985006247e-16 1.9999999999999993 0 -1 -2.2204460492503131e-16 
8 0 1.5707963267948966
2 15.5 -10 1.9999999999999973 0 -1 -2.2204460492503131e-16 0 2.2204460492503131e-16 -1 1 0 0 2
1 12.5 -10.000000000000002 -5.0000000000000018 0 2.2204460492503131e-16 -1 
1 17.5 -10 -10.000000000000002 0 -2.2204460492503131e-16 1 
8 3.1415926535897931 4.7123889803846897
2 14.5 -10 2.9999999999999982 0 -1 -2.2204460492503131e-16 0 2.2204460492503131e-16 -1 1 0 0 2
8 1.5707963267948966 3.1415926535897931
2 15.5 -10 2.9999999999999982 0 -1 -2.2204460492503131e-16 0 2.2204460492503131e-16 -1 1 0 0 2
1 17.5 -10.000000000000002 -5.0000000000000018 -1 -0 0 
1 12.5 -6.6613381477509402e-16 3.0000000000000004 0 -1 -2.2204460492503131e-16 
1 17.5 -6.6613381477509402e-16 3.0000000000000004 0 -1 -2.2204460492503131e-16 
1 14.5 -1.1102230246251565e-15 5 0 -1 -2.2204460492503131e-16 
1 15.5 -1.1102230246251565e-15 5 0 -1 -2.2204460492503131e-16 
1 18.000000000000004 2.6599999999999998e-15 11.999999999999998 0 -1 2.2e-16 
1 42.000000000000007 2.6599999999999998e-15 11.999999999999998 0 -1 2.2e-16 
2 30.000000000000007 -2.6599999999999998e-15 12.000000000000004 0 -1 -2.2e-16 1 0 0 0 -2.2e-16 1 12.000000000000004
2 30.000000000000007 -10.000000000000004 2.0000000000000036 0 -1 -2.2e-16 1 0 0 0 -2.2e-16 1 12.000000000000004
1 18 5.3300000000000002e-15 24 0 -1 2.2e-16 
1 18 -5.3300000000000002e-15 24 2.9999999999999999e-16 2.2e-16 -1 
1 18 -10.000000000000007 14 2.9999999999999999e-16 2.2e-16 -1 
1 42.000000000000007 5.3300000000000002e-15 24.000000000000007 0 -1 2.2e-16 
1 42.000000000000007 -2.6599999999999998e-15 11.999999999999998 0 -2.2e-16 1 
1 42.000000000000007 -10.000000000000004 1.9999999999999982 0 -2.2e-16 1 
2 30.000000000000004 -5.3300000000000002e-15 24.000000000000007 0 -1 -2.2e-16 1 0 0 0 -2.2e-16 1 12.000000000000004
1 36.000000000000007 3.5500000000000001e-15 14.000000000000007 0 -2.2e-16 -1 
2 30.000000000000007 3.11e-15 10.000000000000002 -0 -1 2.2e-16 1 0 0 -0 2.2e-16 1 6.0000000000000018
1 24.000000000000007 4.5500000000000002e-15 21.500000000000004 0 2.2e-16 1 
2 30.000000000000007 5.1099999999999998e-15 25.000000000000007 -0 -1 2.2e-16 1 0 0 -0 2.2e-16 1 6.0000000000000018
2 30.000000000000004 -10.000000000000007 14.000000000000007 0 -1 -2.2e-16 1 0 0 0 -2.2e-16 1 12.000000000000004
1 36.000000000000007 -10.000000000000005 1.7800000000000001e-15 0 -2.2e-16 1 
2 30.000000000000007 -10.000000000000005 -1.7800000000000001e-15 -0 -1 -2.2e-16 1 -0 0 -0 -2.2e-16 1 6.0000000000000018
1 24.000000000000007 -10.000000000000009 15.000000000000004 -0 2.2e-16 -1 
2 30.000000000000007 -10.000000000000009 15.000000000000004 -0 -1 -2.2e-16 1 -0 0 -0 -2.2e-16 1 6.0000000000000018
1 36.000000000000007 -9.9999999999999982 25.000000000000007 0 1 -2.2e-16 
1 36.000000000000007 -10 10.000000000000009 0 1 -2.2e-16 
1 24.000000000000007 -10 10.000000000000005 0 1 -2.2e-16 
1 24.000000000000007 -9.9999999999999982 25.000000000000007 0 1 -2.2e-16 
Polygon3D 0
PolygonOnTriangulations 0
Surfaces 54
1 -40.937500000000007 7.7699999999999996e-15 35.000000000000007 0.95447997803502971 7.0000000000000003e-17 0.2982749931359468 0.2982749931359468 -2.0999999999999999e-16 -0.95447997803502971 -4.1758499039032533e-18 1 -2.2132004490687251e-16 
2 -39.577309086609993 7.55e-15 34.000000000000007 0 -1 2.2e-16 -0.95447997803502971 -6.5620498489908298e-17 -0.2982749931359468 -0.2982749931359468 2.0998559516770654e-16 0.95447997803502971 1.0000000000000002
2 -29.264809086609993 2.2e-16 1.0000000000000002 0 -1 2.2e-16 -0.95447997803502971 -6.5620498489908298e-17 -0.2982749931359468 0.2982749931359468 -2.0998559516770654e-16 -0.95447997803502971 1.0000000000000002
1 -27.500000000000004 -19.665435670990462 0 -0 0 1 0 -1 0 1 0 0 
2 -36.672690913390021 7.55e-15 34.000000000000007 0 -1 2.2e-16 0.95447997803502982 6.5620498489908298e-17 0.2982749931359468 -0.2982749931359468 2.0998559516770657e-16 0.95447997803502982 1.0000000000000002
2 -25.735190913390021 2.2e-16 1.0000000000000002 0 -1 2.2e-16 0 -2.2e-16 -1 1 0 0 1.0000000000000002
2 -27.500000000000007 2.5199999999999999e-15 11.352610922848047 0 -1 2.2e-16 0.95447997803502982 -6.5620498489908273e-17 -0.29827499313594669 -0.29827499313594669 -2.0998559516770657e-16 -0.95447997803502982 1.0000000000000002
2 -15.422690913390017 7.55e-15 34.000000000000007 0 -1 2.2e-16 0.95447997803502982 -6.5620498489908298e-17 -0.2982749931359468 0.2982749931359468 2.0998559516770657e-16 0.95447997803502982 1.0000000000000002
2 -18.327309086609993 7.55e-15 34.000000000000007 0 -1 2.2e-16 0 2.2e-16 1 -1 0 0 1.0000000000000002
1 -35.937500000000007 7.7699999999999996e-15 35.000000000000007 0 -2.2e-16 -1 -1 -0 0 -0 1 -2.2e-16 
1 -30.000000000000007 0 0 0 2.2e-16 1 1 0 -0 -0 1 -2.2e-16 
1 -27.500000000000004 -9.6654356709904619 -10.000000000000004 -0 0 1 0 -1 0 1 0 0 
1 -27.500000000000007 1.7800000000000001e-15 8.0000000000000018 -0.95447997803502982 -7.0000000000000003e-17 -0.2982749931359468 -0.2982749931359468 2.1000000000000006e-16 0.95447997803502982 -4.175849903903241e-18 1 -2.2132004490687259e-16 
1 -25.000000000000007 0 0 -0.95447997803502982 7.0000000000000003e-17 0.2982749931359468 0.2982749931359468 2.1000000000000006e-16 0.95447997803502982 4.175849903903241e-18 1 -2.2132004490687259e-16 
1 -19.062500000000007 7.7699999999999996e-15 35.000000000000007 0.95447997803502982 -7.0000000000000003e-17 -0.29827499313594669 -0.29827499313594669 -2.1000000000000006e-16 -0.95447997803502982 4.1758499039032656e-18 1 -2.2132004490687259e-16 
1 -14.062500000000005 7.7699999999999996e-15 35.000000000000007 0 -2.2e-16 -1 -1 -0 0 -0 1 -2.2e-16 
1 -12.000000000000004 5.5499999999999999e-15 25.000000000000014 0 2.2e-16 1 1 0 -0 -0 1 -2.2e-16 
2 -10.949874371066201 5.7700000000000003e-15 26.000000000000014 0 -1 2.2e-16 0 -2.2e-16 -1 -1 -0 -0 1.0000000000000002
2 -7.9282032302755105 5.7700000000000003e-15 26.000000000000014 0 -1 2.2e-16 0 -2.2e-16 -1 1 0 0 1.0000000000000002
1 -0.63320196363107994 -16.085029183110301 0 0 0 1 0 -1 0 1 0 -0 
2 -1 5.5499999999999999e-15 25.000000000000014 0 1 -2.2e-16 1 0 0 -0 2.2e-16 1 11.000000000000002
2 -1 5.5499999999999999e-15 25.000000000000014 0 1 -2.2e-16 1 0 0 -0 2.2e-16 1 6.0000000000000018
2 -2.6844446188497249 1.3299999999999999e-15 6 0 -1 2.2e-16 0 -2.2e-16 -1 -1 -0 -0 1.0000000000000002
2 -11.000000000000005 1.02e-15 4.595456890890949 0 -1 2.2e-16 -0.71872228581747577 1.5296539658391456e-16 0.69529725719961166 -0.69529725719961166 -1.5811890287984468e-16 -0.71872228581747577 1.0000000000000002
2 9.0000000000000018 8.9000000000000007e-16 4.0000000000000009 0 -1 2.2e-16 1 0 0 -0 2.2e-16 1 1.0000000000000002
2 -11.000000000000002 2.2e-16 1 0 -1 2.2e-16 -1 0 0 -0 -2.2e-16 -1 1.0000000000000002
2 9.0000000000000018 2.2e-16 1 0 -1 2.2e-16 0 -2.2e-16 -1 1 0 0 1.0000000000000002
1 -0.63320196363107994 -6.0850291831103007 -10.000000000000004 0 0 1 0 -1 0 1 0 -0 
1 6.9059451439922315 3.8499999999999998e-15 17.351730170804274 0.71872228581747577 -1.5e-16 -0.69529725719961155 -0.69529725719961155 -1.6000000000000004e-16 -0.71872228581747577 -3.4392182793164949e-18 1 -2.1929015431073787e-16 
1 3.3123337149048533 4.6200000000000001e-15 20.828216456802334 0.71872228581747577 -1.5e-16 -0.69529725719961166 -0.69529725719961166 -1.6000000000000006e-16 -0.71872228581747577 -3.4392182793165435e-18 1 -2.1929015431073784e-16 
1 10.000000000000002 1.1100000000000001e-15 5.0000000000000009 0 -2.2e-16 -1 -1 -0 0 -0 1 -2.2e-16 
1 -12.000000000000004 1.1100000000000001e-15 5.0000000000000009 1 0 0 0 -2.2e-16 -1 0 1 -2.2e-16 
1 10.000000000000002 0 0 -1 -0 0 0 2.2e-16 1 -0 1 -2.2e-16 
1 -12.000000000000004 0 0 0 2.2e-16 1 1 0 -0 -0 1 -2.2e-16 
1 12.5 0 0 0 -2.2204460492503131e-16 1 1 0 0 -0 1 2.2204460492503131e-16 
2 14.5 -4.4408920985006252e-16 1.9999999999999996 0 -1 -2.2204460492503131e-16 0 2.2204460492503131e-16 -1 -1 -0 -0 2
2 15.5 -4.4408920985006252e-16 1.9999999999999996 0 -1 -2.2204460492503131e-16 0 2.2204460492503131e-16 -1 1 0 0 2
1 15 -2.5 -1.1102230246251565e-15 0 -4.4408920985006262e-16 1 0 -1 -4.4408920985006262e-16 1 0 0 
2 14.5 -6.6613381477509402e-16 3.0000000000000004 0 -1 -2.2204460492503131e-16 0 -2.2204460492503131e-16 1 -1 -0 0 2
2 15.5 -6.6613381477509402e-16 3.0000000000000004 0 -1 -2.2204460492503131e-16 1 0 0 0 -2.2204460492503131e-16 1 2
1 12.5 -1.1102230246251565e-15 5 1 0 0 0 2.2204460492503131e-16 -1 -0 1 2.2204460492503131e-16 
1 17.5 0 0 -1 -0 0 0 -2.2204460492503131e-16 1 0 1 2.2204460492503131e-16 
1 15 7.5000000000000036 -10 0 -4.4408920985006262e-16 1 0 -1 -4.4408920985006262e-16 1 0 0 
1 17.5 -1.1102230246251565e-15 5 0 2.2204460492503131e-16 -1 -1 0 -0 0 1 2.2204460492503131e-16 
2 30.000000000000007 2.6599999999999998e-15 12.000000000000004 0 1 -2.2e-16 1 0 0 -0 2.2e-16 1 12.000000000000004
1 18 5.3300000000000002e-15 24 1 0 2.9999999999999999e-16 2.9999999999999999e-16 -2.2e-16 -1 6.5999999999999994e-32 1 -2.2e-16 
1 42.000000000000007 2.6599999999999998e-15 11.999999999999998 -1 -0 0 0 2.2e-16 1 -0 1 -2.2e-16 
2 30.000000000000004 5.3300000000000002e-15 24.000000000000007 0 1 -2.2e-16 1 0 0 -0 2.2e-16 1 12.000000000000004
1 30.000000000000007 -18.000000000000004 0 0 0 1 0 -1 0 1 0 -0 
2 30.000000000000007 -10 10.000000000000005 -0 -1 2.2e-16 1 0 0 -0 2.2e-16 1 6.0000000000000018
2 30.000000000000007 -9.9999999999999982 25.000000000000007 -0 -1 2.2e-16 1 0 0 -0 2.2e-16 1 6.0000000000000018
1 30.000000000000007 -8.0000000000000053 -10.000000000000004 0 0 1 0 -1 0 1 0 -0 
1 36.000000000000007 -10 10.000000000000009 1 -0 0 0 2.2e-16 1 -0 -1 2.2e-16 
1 24.000000000000007 -9.9999999999999982 25.000000000000007 -1 0 -0 0 -2.2e-16 -1 -0 -1 2.2e-16 
Triangulations 0

TShapes 349
Ve
1e-07
-40.531789064645 -33.7017250068641 0
0 0

0101101
*
Ve
1e-07
-30.219289064645 -0.701725006864053 0
0 0

0101101
*
Ed
 1e-07 1 1 0
1  1 0 1.36019091339001 35.9339910552605
0

0101000
+349 9 -348 9 *
Ve
1e-07
-40.531789064645 -33.7017250068641 -10
0 0

0101101
*
Ed
 1e-07 1 1 0
1  2 0 -0 10
2  1 2 0 -0 10
4 G1 1 2 2 0
0

0101000
+349 10 -346 10 *
Ve
1e-07
-30.219289064645 -0.701725006864053 -10
0 0

0101101
*
Ed
 1e-07 1 1 0
1  3 0 -0 10
2  2 3 0 -0 10
4 G1 1 2 3 0
0

0101000
+348 10 -344 10 *
Ed
 1e-07 1 1 0
1  4 0 1.36019091339001 35.9339910552605
0

0101000
+346 13 -344 13 *
Wi

0101100
-347 7 +345 0 -343 0 +342 12 *
Fa
0  1e-07 1 0

0111000
+341 3 *
Ve
1e-07
-39.57730908661 -35 0
0 0

0101101
*
Ed
 1e-07 1 1 0
1  5 0 1.26791145841992 3.14159265358979
2  3 2 0 1.26791145841992 3.14159265358979
0

0101000
+349 10 -339 10 *
Ve
1e-07
-29.26480908661 0 0
0 0

0101101
*
Ed
 1e-07 1 1 0
1  6 0 5.01527384875966 6.28318530717959
2  4 3 0 5.01527384875966 6.28318530717959
0

0101000
+348 10 -337 10 *
Ve
1e-07
-36.67269091339 -35 0
0 0

0101101
*
Ed
 1e-07 1 1 0
1  7 0 0.735190913390014 3.63980908660999
0

0101000
+335 9 -339 9 *
Ve
1e-07
-25.73519091339 0 0
0 0

0101101
*
Ed
 1e-07 1 1 0
1  8 0 0.735190913390014 4.26480908660999
0

0101000
+337 9 -333 9 *
Ve
1e-07
-35.718210935355 -34.298274993136 0
0 0

0101101
*
Ed
 1e-07 1 1 0
1  9 0 1.87368119516987 3.14159265358979
2  5 5 0 1.87368119516987 3.14159265358979
0

0101000
+331 10 -335 10 *
Ve
1e-07
-24.780710935355 -0.701725006864053 0
0 0

0101101
*
Ed
 1e-07 1 1 0
1  10 0 0 1.26791145841992
2  6 6 0 0 1.26791145841992
0

0101000
+333 10 -329 10 *
Ve
1e-07
-28.454479978035 -11.0543359297121 0
0 0

0101101
*
Ed
 1e-07 1 1 0
1  11 0 3.2 27.5524637481403
0

0101000
+327 9 -331 9 *
Ve
1e-07
-14.468210935355 -33.7017250068641 0
0 0

0101101
*
Ed
 1e-07 1 1 0
1  12 0 0.735190913390013 35.3089910552604
0

0101000
+329 9 -325 9 *
Ve
1e-07
-26.545520021965 -11.0543359297121 0
0 0

0101101
*
Ed
 1e-07 1 1 0
1  13 0 5.01527384875966 7.55109676559951
2  7 7 0 5.01527384875966 7.55109676559951
0

0101000
+323 10 -327 10 *
Ve
1e-07
-15.42269091339 -35 0
0 0

0101101
*
Ed
 1e-07 1 1 0
1  14 0 1.26791145841992 3.14159265358979
2  8 8 0 1.26791145841992 3.14159265358979
0

0101000
+325 10 -321 10 *
Ve
1e-07
-19.281789064645 -34.298274993136 0
0 0

0101101
*
Ed
 1e-07 1 1 0
1  15 0 0.735190913390014 25.0876546615304
0

0101000
+319 9 -323 9 *
Ve
1e-07
-18.32730908661 -35 0
0 0

0101101
*
Ed
 1e-07 1 1 0
1  16 0 1.36019091339001 4.26480908660999
0

0101000
+321 9 -317 9 *
Ed
 1e-07 1 1 0
1  17 0 3.14159265358979 4.40950411200972
2  9 9 0 3.14159265358979 4.40950411200972
0

0101000
+317 10 -319 10 *
Wi

0101100
-347 7 +338 0 -336 0 -334 7 -332 7 -330 0 -328 0 -326 7 -324 7 -322 0 
-320 0 -318 7 -316 7 -315 0 *
Fa
0  1e-07 4 0

0111000
+314 15 *
Ve
1e-07
-39.57730908661 -35 -10
0 0

0101101
*
Ed
 1e-07 1 1 0
1  18 0 -0 10
2  10 2 0 -0 10
4 G1 2 0 10 2
0

0101000
+339 10 -312 10 *
Ed
 1e-07 1 1 0
1  19 0 1.26791145841992 3.14159265358979
2  11 2 0 1.26791145841992 3.14159265358979
0

0101000
+346 10 -312 10 *
Wi

0101100
+338 0 -345 0 +311 0 -310 0 *
Fa
0  1e-07 2 0

0111000
+309 0 *
Ve
1e-07
-29.26480908661 -0 -10
0 0

0101101
*
Ed
 1e-07 1 1 0
1  20 0 -0 10
2  12 3 0 -0 10
4 G1 3 0 11 2
0

0101000
+337 10 -307 10 *
Ed
 1e-07 1 1 0
1  21 0 5.01527384875966 6.28318530717959
2  13 3 0 5.01527384875966 6.28318530717959
0

0101000
+344 10 -307 10 *
Wi

0101100
+336 0 -343 0 +306 0 -305 0 *
Fa
0  1e-07 3 0

0111000
+304 0 *
Ve
1e-07
-36.67269091339 -35 -10
0 0

0101101
*
Ed
 1e-07 1 1 0
1  22 0 0.735190913390014 3.63980908660999
0

0101000
+302 13 -312 13 *
Ve
1e-07
-25.73519091339 -0 -10
0 0

0101101
*
Ed
 1e-07 1 1 0
1  23 0 0.735190913390014 4.26480908660999
0

0101000
+307 13 -300 13 *
Ve
1e-07
-35.718210935355 -34.298274993136 -10
0 0

0101101
*
Ed
 1e-07 1 1 0
1  24 0 1.87368119516986 3.14159265358979
2  14 5 0 1.87368119516986 3.14159265358979
0

0101000
+298 10 -302 10 *
Ve
1e-07
-24.780710935355 -0.701725006864053 -10
0 0

0101101
*
Ed
 1e-07 1 1 0
1  25 0 0 1.26791145841992
2  15 6 0 0 1.26791145841992
0

0101000
+300 10 -296 10 *
Ve
1e-07
-28.454479978035 -11.0543359297121 -10
0 0

0101101
*
Ed
 1e-07 1 1 0
1  26 0 3.2 27.5524637481403
0

0101000
+294 13 -298 13 *
Ve
1e-07
-14.468210935355 -33.7017250068641 -10
0 0

0101101
*
Ed
 1e-07 1 1 0
1  27 0 0.735190913390013 35.3089910552604
0

0101000
+296 13 -292 13 *
Ve
1e-07
-26.545520021965 -11.0543359297121 -10
0 0

0101101
*
Ed
 1e-07 1 1 0
1  28 0 5.01527384875966 7.55109676559951
2  16 7 0 5.01527384875966 7.55109676559951
0

0101000
+290 10 -294 10 *
Ve
1e-07
-15.42269091339 -35 -10
0 0

0101101
*
Ed
 1e-07 1 1 0
1  29 0 1.26791145841992 3.14159265358979
2  17 8 0 1.26791145841992 3.14159265358979
0

0101000
+292 10 -288 10 *
Ve
1e-07
-19.281789064645 -34.298274993136 -10
0 0

0101101
*
Ed
 1e-07 1 1 0
1  30 0 0.735190913390008 25.0876546615304
0

0101000
+286 13 -290 13 *
Ve
1e-07
-18.32730908661 -35 -10
0 0

0101101
*
Ed
 1e-07 1 1 0
1  31 0 1.36019091339001 4.26480908660999
0

0101000
+288 13 -284 13 *
Ed
 1e-07 1 1 0
1  32 0 3.14159265358979 4.40950411200972
2  18 9 0 3.14159265358979 4.40950411200972
0

0101000
+284 10 -286 10 *
Wi

0101100
-342 12 +310 0 -305 0 -301 12 -299 12 -297 0 -295 0 -293 12 -291 12 -289 0 
-287 0 -285 12 -283 12 -282 0 *
Fa
0  1e-07 12 0

0111000
+281 17 *
Ed
 1e-07 1 1 0
1  33 0 -0 10
2  19 5 0 -0 10
4 G1 10 2 5 0
0

0101000
+335 10 -302 10 *
Wi

0101100
-334 7 +279 0 -311 0 +301 12 *
Fa
0  1e-07 10 0

0111000
+278 3 *
Ed
 1e-07 1 1 0
1  34 0 -0 10
2  20 6 0 -0 10
4 G1 11 2 6 0
0

0101000
+333 10 -300 10 *
Wi

0101100
-332 7 +306 0 -276 0 +299 12 *
Fa
0  1e-07 11 0

0111000
+275 3 *
Ed
 1e-07 1 1 0
1  35 0 -0 10
2  21 5 0 -0 10
4 G1 5 0 13 2
0

0101000
+331 10 -298 10 *
Wi

0101100
+330 0 -273 0 +279 0 -297 0 *
Fa
0  1e-07 5 0

0111000
+272 0 *
Ed
 1e-07 1 1 0
1  36 0 -0 10
2  22 6 0 -0 10
4 G1 6 0 14 2
0

0101000
+329 10 -296 10 *
Wi

0101100
+328 0 -276 0 +270 0 -295 0 *
Fa
0  1e-07 6 0

0111000
+269 0 *
Ed
 1e-07 1 1 0
1  37 0 -0 10
2  23 7 0 -0 10
4 G1 13 2 7 0
0

0101000
+327 10 -294 10 *
Wi

0101100
-326 7 +267 0 -273 0 +293 12 *
Fa
0  1e-07 13 0

0111000
+266 3 *
Ed
 1e-07 1 1 0
1  38 0 -0 10
2  24 8 0 -0 10
4 G1 14 2 8 0
0

0101000
+325 10 -292 10 *
Wi

0101100
-324 7 +270 0 -264 0 +291 12 *
Fa
0  1e-07 14 0

0111000
+263 3 *
Ed
 1e-07 1 1 0
1  39 0 -0 10
2  25 7 0 -0 10
4 G1 7 0 15 2
0

0101000
+323 10 -290 10 *
Wi

0101100
+322 0 -261 0 +267 0 -289 0 *
Fa
0  1e-07 7 0

0111000
+260 0 *
Ed
 1e-07 1 1 0
1  40 0 -0 10
2  26 8 0 -0 10
4 G1 8 0 16 2
0

0101000
+321 10 -288 10 *
Wi

0101100
+320 0 -264 0 +258 0 -287 0 *
Fa
0  1e-07 8 0

0111000
+257 0 *
Ed
 1e-07 1 1 0
1  41 0 -0 10
2  27 9 0 -0 10
4 G1 15 2 9 0
0

0101000
+319 10 -286 10 *
Wi

0101100
-318 7 +255 0 -261 0 +285 12 *
Fa
0  1e-07 15 0

0111000
+254 3 *
Ed
 1e-07 1 1 0
1  42 0 -0 10
2  28 9 0 -0 10
4 G1 16 2 9 0
0

0101000
+317 10 -284 10 *
Wi

0101100
-316 7 +258 0 -252 0 +283 12 *
Fa
0  1e-07 16 0

0111000
+251 3 *
Wi

0101100
+315 0 -252 0 +255 0 -282 0 *
Fa
0  1e-07 9 0

0111000
+249 0 *
Sh

0101100
-340 2 +313 14 -308 0 +303 0 -280 16 -277 2 -274 2 +271 0 +268 0 -265 2 
-262 2 +259 0 +256 0 -253 2 -250 2 +248 0 *
So

0100000
+247 0 *
Ve
1e-07
-10.9498743710662 -25 0
0 0

0101101
*
Ve
1e-07
-7.92820323027551 -25 0
0 0

0101101
*
Ed
 1e-07 1 1 0
1  43 0 1.0501256289338 4.07179676972449
0

0101000
+245 26 -244 26 *
Ve
1e-07
-10.9498743710662 -25 -10
0 0

0101101
*
Ed
 1e-07 1 1 0
1  44 0 -0 10
2  29 18 0 -0 10
4 G1 17 19 18 0
0

0101000
+245 27 -242 27 *
Ve
1e-07
-7.92820323027551 -25 -10
0 0

0101101
*
Ed
 1e-07 1 1 0
1  45 0 -0 10
2  30 19 0 -0 10
4 G1 17 19 19 0
0

0101000
+244 27 -240 27 *
Ed
 1e-07 1 1 0
1  46 0 1.0501256289338 4.07179676972449
0

0101000
+242 30 -240 30 *
Wi

0101100
-243 24 +241 0 -239 0 +238 29 *
Fa
0  1e-07 17 0

0111000
+237 20 *
Ve
1e-07
-11.9448618081728 -26.1 0
0 0

0101101
*
Ed
 1e-07 1 1 0
1  47 0 0 1.67096374795644
2  31 18 0 0 1.67096374795644
0

0101000
+245 27 -235 27 *
Ve
1e-07
-6.93845991166473 -25.8571428571429 0
0 0

0101101
*
Ed
 1e-07 1 1 0
1  48 0 0 1.42744875788952
2  32 19 0 0 1.42744875788952
0

0101000
+244 27 -233 27 *
Ve
1.00000004e-07
6.90594514399223 -17.3517301708043 0
0 0

0101101
*
Ed
 1e-07 1 1 0
1  49 0 5.51435189789372 9.32461053960782
2  33 21 33 5.51435189789372 9.32461053960782
0

0101000
-235 26 +231 26 *
Ve
1.00000004e-07
3.31233371490485 -20.8282164568023 0
0 0

0101101
*
Ed
 1e-07 1 1 0
1  50 0 5.51435189789372 9.28143039186402
2  34 22 33 5.51435189789372 9.28143039186402
0

0101000
-233 26 +229 26 *
Ve
1e-07
-3.4031669046672 -6.69529725719962 0
0 0

0101101
*
Ed
 1e-07 1 1 0
1  51 0 0 14.8269131539229
0

0101000
-227 26 +231 26 *
Ve
1e-07
-11.7187222858175 -5.29075414809056 0
0 0

0101101
*
Ed
 1e-07 1 1 0
1  52 0 0 21.6181724364362
0

0101000
-225 26 +229 26 *
Ve
1e-07
-2.68444461884972 -5 0
0 0

0101101
*
Ed
 1e-07 1 1 0
1  53 0 0 2.33962973608077
2  35 23 0 0 2.33962973608077
0

0101000
+223 27 -227 27 *
Ve
1e-07
-12 -4.59545689089095 0
0 0

0101101
*
Ed
 1e-07 1 1 0
1  54 0 3.94355557109882 4.71238898038469
2  36 24 0 3.94355557109882 4.71238898038469
0

0101000
+225 27 -221 27 *
Ve
1e-07
9 -5 0
0 0

0101101
*
Ed
 1e-07 1 1 0
1  55 0 1 12.6844446188497
0

0101000
+219 26 -223 26 *
Ve
1e-07
-12 -1 0
0 0

0101101
*
Ed
 1e-07 1 1 0
1  56 0 0.404543109109052 4
0

0101000
+221 26 -217 26 *
Ve
1e-07
10 -4 0
0 0

0101101
*
Ed
 1e-07 1 1 0
1  57 0 1.5707963267949 3.14159265358979
2  37 25 0 1.5707963267949 3.14159265358979
0

0101000
+215 27 -219 27 *
Ve
1e-07
-11 0 -0
0 0

0101101
*
Ed
 1e-07 1 1 0
1  58 0 4.71238898038469 6.28318530717959
2  38 26 0 4.71238898038469 6.28318530717959
0

0101000
+217 27 -213 27 *
Ve
1e-07
10 -1 0
0 0

0101101
*
Ed
 1e-07 1 1 0
1  59 0 1 4
0

0101000
+211 26 -215 26 *
Ve
1e-07
9 0 -0
0 0

0101101
*
Ed
 1e-07 1 1 0
1  60 0 1 21
0

0101000
+213 26 -209 26 *
Ed
 1e-07 1 1 0
1  61 0 0 1.5707963267949
2  39 27 0 0 1.5707963267949
0

0101000
+209 27 -211 27 *
Wi

0101100
-243 24 +234 0 -232 0 -230 24 +228 24 +226 24 -224 24 -222 0 -220 0 -218 24 
-216 24 -214 0 -212 0 -210 24 -208 24 -207 0 *
Fa
0  1e-07 20 0

0111000
+206 32 *
Ve
1e-07
-11.9448618081728 -26.1 -10
0 0

0101101
*
Ed
 1e-07 1 1 0
1  62 0 -0 10
2  40 18 0 -0 10
2  41 21 19 -0 10
4 G1 18 0 21 19
0

0101000
+235 27 -204 27 *
Ed
 1e-07 1 1 0
1  63 0 0 1.67096374795644
2  42 18 0 0 1.67096374795644
0

0101000
+242 27 -204 27 *
Wi

0101100
+234 0 -241 0 +203 0 -202 0 *
Fa
0  1e-07 18 0

0111000
+201 0 *
Ve
1e-07
-6.93845991166473 -25.8571428571429 -10
0 0

0101101
*
Ed
 1e-07 1 1 0
1  64 0 -0 10
2  43 19 0 -0 10
2  44 22 19 -0 10
4 G1 19 0 22 19
0

0101000
+233 27 -199 27 *
Ed
 1e-07 1 1 0
1  65 0 0 1.42744875788952
2  45 19 0 0 1.42744875788952
0

0101000
+240 27 -199 27 *
Wi

0101100
+232 0 -239 0 +198 0 -197 0 *
Fa
0  1e-07 19 0

0111000
+196 0 *
Ve
1.00000004e-07
6.90594514399223 -17.3517301708043 -10
0 0

0101101
*
Ed
 1e-07 1 1 0
1  66 0 5.51435189789372 9.32461053960782
2  46 21 36 5.51435189789372 9.32461053960782
0

0101000
-204 30 +194 30 *
Ve
1.00000004e-07
3.31233371490485 -20.8282164568023 -10
0 0

0101101
*
Ed
 1e-07 1 1 0
1  67 0 5.51435189789372 9.28143039186402
2  47 22 36 5.51435189789372 9.28143039186402
0

0101000
-199 30 +192 30 *
Ve
1e-07
-3.4031669046672 -6.69529725719962 -10
0 0

0101101
*
Ed
 1e-07 1 1 0
1  68 0 0 14.8269131539229
0

0101000
-190 30 +194 30 *
Ve
1e-07
-11.7187222858175 -5.29075414809056 -10
0 0

0101101
*
Ed
 1e-07 1 1 0
1  69 0 0 21.6181724364362
0

0101000
-188 30 +192 30 *
Ve
1e-07
-2.68444461884972 -5 -10
0 0

0101101
*
Ed
 1e-07 1 1 0
1  70 0 0 2.33962973608077
2  48 23 0 0 2.33962973608077
0

0101000
+186 27 -190 27 *
Ve
1e-07
-12 -4.59545689089095 -10
0 0

0101101
*
Ed
 1e-07 1 1 0
1  71 0 3.94355557109882 4.71238898038469
2  49 24 0 3.94355557109882 4.71238898038469
0

0101000
+188 27 -184 27 *
Ve
1e-07
9 -5 -10
0 0

0101101
*
Ed
 1e-07 1 1 0
1  72 0 1 12.6844446188497
0

0101000
+182 30 -186 30 *
Ve
1e-07
-12 -1 -10
0 0

0101101
*
Ed
 1e-07 1 1 0
1  73 0 0.404543109109052 4
0

0101000
+184 30 -180 30 *
Ve
1e-07
10 -4 -10
0 0

0101101
*
Ed
 1e-07 1 1 0
1  74 0 1.5707963267949 3.14159265358979
2  50 25 0 1.5707963267949 3.14159265358979
0

0101000
+178 27 -182 27 *
Ve
1e-07
-11 0 -10
0 0

0101101
*
Ed
 1e-07 1 1 0
1  75 0 4.71238898038469 6.28318530717959
2  51 26 0 4.71238898038469 6.28318530717959
0

0101000
+180 27 -176 27 *
Ve
1e-07
10 -1 -10
0 0

0101101
*
Ed
 1e-07 1 1 0
1  76 0 1 4
0

0101000
+174 30 -178 30 *
Ve
1e-07
9 0 -10
0 0

0101101
*
Ed
 1e-07 1 1 0
1  77 0 1 21
0

0101000
+176 30 -172 30 *
Ed
 1e-07 1 1 0
1  78 0 0 1.5707963267949
2  52 27 0 0 1.5707963267949
0

0101000
+172 27 -174 27 *
Wi

0101100
-238 29 +202 0 -197 0 -193 29 +191 29 +189 29 -187 29 -185 0 -183 0 -181 29 
-179 29 -177 0 -175 0 -173 29 -171 29 -170 0 *
Fa
0  1e-07 28 0

0111000
+169 35 *
Ed
 1.00000004e-07 1 1 0
1  79 0 0 10
2  53 21 0 0 10
4 G1 21 0 29 0
0

0101000
+231 37 -194 37 *
Wi

0101100
-230 24 -203 0 +167 19 +193 29 *
Fa
0  1e-07 21 0

0111000
+166 20 *
Ed
 1.00000004e-07 1 1 0
1  80 0 0 10
2  54 22 0 0 10
4 G1 22 0 30 0
0

0101000
+229 37 -192 37 *
Wi

0101100
-228 24 -198 0 +164 19 +191 29 *
Fa
0  1e-07 22 0

0111000
+163 20 *
Ed
 1e-07 1 1 0
1  81 0 -0 10
2  55 23 0 -0 10
4 G1 29 19 23 0
0

0101000
+227 27 -190 27 *
Wi

0101100
-226 24 -161 0 +167 19 +189 29 *
Fa
0  1e-07 29 0

0111000
+160 20 *
Ed
 1e-07 1 1 0
1  82 0 -0 10
2  56 24 0 -0 10
4 G1 30 19 24 0
0

0101000
+225 27 -188 27 *
Wi

0101100
-224 24 -158 0 +164 19 +187 29 *
Fa
0  1e-07 30 0

0111000
+157 20 *
Ed
 1e-07 1 1 0
1  83 0 -0 10
2  57 23 0 -0 10
4 G1 23 0 31 19
0

0101000
+223 27 -186 27 *
Wi

0101100
+222 0 -155 0 +161 0 -185 0 *
Fa
0  1e-07 23 0

0111000
+154 0 *
Ed
 1e-07 1 1 0
1  84 0 -0 10
2  58 24 0 -0 10
4 G1 24 0 32 19
0

0101000
+221 27 -184 27 *
Wi

0101100
+220 0 -158 0 +152 0 -183 0 *
Fa
0  1e-07 24 0

0111000
+151 0 *
Ed
 1e-07 1 1 0
1  85 0 -0 10
2  59 25 0 -0 10
4 G1 31 19 25 0
0

0101000
+219 27 -182 27 *
Wi

0101100
-218 24 +149 0 -155 0 +181 29 *
Fa
0  1e-07 31 0

0111000
+148 20 *
Ed
 1e-07 1 1 0
1  86 0 -0 10
2  60 26 0 -0 10
4 G1 32 19 26 0
0

0101000
+217 27 -180 27 *
Wi

0101100
-216 24 +152 0 -146 0 +179 29 *
Fa
0  1e-07 32 0

0111000
+145 20 *
Ed
 1e-07 1 1 0
1  87 0 -0 10
2  61 25 0 -0 10
4 G1 25 0 33 19
0

0101000
+215 27 -178 27 *
Wi

0101100
+214 0 -143 0 +149 0 -177 0 *
Fa
0  1e-07 25 0

0111000
+142 0 *
Ed
 1e-07 1 1 0
1  88 0 -0 10
2  62 26 0 -0 10
4 G1 26 0 34 19
0

0101000
+213 27 -176 27 *
Wi

0101100
+212 0 -146 0 +140 0 -175 0 *
Fa
0  1e-07 26 0

0111000
+139 0 *
Ed
 1e-07 1 1 0
1  89 0 -0 10
2  63 27 0 -0 10
4 G1 33 19 27 0
0

0101000
+211 27 -174 27 *
Wi

0101100
-210 24 +137 0 -143 0 +173 29 *
Fa
0  1e-07 33 0

0111000
+136 20 *
Ed
 1e-07 1 1 0
1  90 0 -0 10
2  64 27 0 -0 10
4 G1 34 19 27 0
0

0101000
+209 27 -172 27 *
Wi

0101100
-208 24 +140 0 -134 0 +171 29 *
Fa
0  1e-07 34 0

0111000
+133 20 *
Wi

0101100
+207 0 -134 0 +137 0 -170 0 *
Fa
0  1e-07 27 0

0111000
+131 0 *
Sh

0101100
-236 19 +205 31 -200 0 +195 0 -168 34 -165 19 +162 19 +159 19 -156 19 +153 0 
+150 0 -147 19 -144 19 +141 0 +138 0 -135 19 -132 19 +130 0 *
So

0100000
+129 0 *
Ve
1e-07
14.5 4.44089209850063e-16 1.97215226305253e-31
0 0

0101101
*
Ve
1e-07
15.5 4.44089209850063e-16 1.97215226305253e-31
0 0

0101101
*
Ed
 1e-07 1 1 0
1  91 0 2 3
0

0101000
+127 46 -126 46 *
Ve
1e-07
14.5 4.88498130835069e-15 -10
0 0

0101101
*
Ed
 1e-07 1 1 0
1  92 0 -0 10
2  65 36 0 -0 10
4 G1 35 39 36 0
0

0101000
+127 47 -124 47 *
Ve
1e-07
15.5 4.88498130835069e-15 -10
0 0

0101101
*
Ed
 1e-07 1 1 0
1  93 0 -0 10
2  66 37 0 -0 10
4 G1 35 39 37 0
0

0101000
+126 47 -122 47 *
Ed
 1e-07 1 1 0
1  94 0 2 3
0

0101000
+124 50 -122 50 *
Wi

0101100
-125 44 +123 0 -121 0 +120 49 *
Fa
0  1e-07 35 0

0111000
+119 40 *
Ve
1e-07
12.5 -2 -8.88178419700125e-16
0 0

0101101
*
Ed
 1e-07 1 1 0
1  95 0 0 1.5707963267949
2  67 36 0 0 1.5707963267949
0

0101000
+127 47 -117 47 *
Ve
1e-07
17.5 -2 -8.88178419700125e-16
0 0

0101101
*
Ed
 1e-07 1 1 0
1  96 0 0 1.5707963267949
2  68 37 0 0 1.5707963267949
0

0101000
+126 47 -115 47 *
Ve
1e-07
12.5 -3 -1.33226762955019e-15
0 0

0101101
*
Ed
 1e-07 1 1 0
1  97 0 2 3
0

0101000
+113 46 -117 46 *
Ve
1e-07
17.5 -3 -1.33226762955019e-15
0 0

0101101
*
Ed
 1e-07 1 1 0
1  98 0 2 3
0

0101000
+115 46 -111 46 *
Ve
1e-07
14.5 -5 -2.22044604925031e-15
0 0

0101101
*
Ed
 1e-07 1 1 0
1  99 0 3.14159265358979 4.71238898038469
2  69 39 0 3.14159265358979 4.71238898038469
0

0101000
+109 47 -113 47 *
Ve
1e-07
15.5 -5 -2.22044604925031e-15
0 0

0101101
*
Ed
 1e-07 1 1 0
1  100 0 1.5707963267949 3.14159265358979
2  70 40 0 1.5707963267949 3.14159265358979
0

0101000
+111 47 -107 47 *
Ed
 1e-07 1 1 0
1  101 0 2 3
0

0101000
+107 46 -109 46 *
Wi

0101100
-125 44 +116 0 -114 0 -112 44 -110 44 -108 0 -106 0 -105 44 *
Fa
0  1e-07 38 0

0111000
+104 52 *
Ve
1e-07
12.5 -1.99999999999999 -10
0 0

0101101
*
Ed
 1e-07 1 1 0
1  102 0 -0 10
2  71 36 0 -0 10
4 G1 36 0 41 39
0

0101000
+117 47 -102 47 *
Ed
 1e-07 1 1 0
1  103 0 0 1.5707963267949
2  72 36 0 0 1.5707963267949
0

0101000
+124 47 -102 47 *
Wi

0101100
+116 0 -123 0 +101 0 -100 0 *
Fa
0  1e-07 36 0

0111000
+99 0 *
Ve
1e-07
17.5 -1.99999999999999 -10
0 0

0101101
*
Ed
 1e-07 1 1 0
1  104 0 -0 10
2  73 37 0 -0 10
4 G1 37 0 42 39
0

0101000
+115 47 -97 47 *
Ed
 1e-07 1 1 0
1  105 0 0 1.5707963267949
2  74 37 0 0 1.5707963267949
0

0101000
+122 47 -97 47 *
Wi

0101100
+114 0 -121 0 +96 0 -95 0 *
Fa
0  1e-07 37 0

0111000
+94 0 *
Ve
1e-07
12.5 -3 -10
0 0

0101101
*
Ed
 1e-07 1 1 0
1  106 0 2 3
0

0101000
+92 50 -102 50 *
Ve
1e-07
17.5 -3 -10
0 0

0101101
*
Ed
 1e-07 1 1 0
1  107 0 2 3
0

0101000
+97 50 -90 50 *
Ve
1e-07
14.5 -5 -10
0 0

0101101
*
Ed
 1e-07 1 1 0
1  108 0 3.14159265358979 4.71238898038469
2  75 39 0 3.14159265358979 4.71238898038469
0

0101000
+88 47 -92 47 *
Ve
1e-07
15.5 -5 -10
0 0

0101101
*
Ed
 1e-07 1 1 0
1  109 0 1.5707963267949 3.14159265358979
2  76 40 0 1.5707963267949 3.14159265358979
0

0101000
+90 47 -86 47 *
Ed
 1e-07 1 1 0
1  110 0 2 3
0

0101000
+86 50 -88 50 *
Wi

0101100
-120 49 +100 0 -95 0 -91 49 -89 49 -87 0 -85 0 -84 49 *
Fa
0  1e-07 43 0

0111000
+83 54 *
Ed
 1e-07 1 1 0
1  111 0 -0 10
2  77 39 0 -0 10
4 G1 41 39 39 0
0

0101000
+113 47 -92 47 *
Wi

0101100
-112 44 +81 0 -101 0 +91 49 *
Fa
0  1e-07 41 0

0111000
+80 40 *
Ed
 1e-07 1 1 0
1  112 0 -0 10
2  78 40 0 -0 10
4 G1 42 39 40 0
0

0101000
+111 47 -90 47 *
Wi

0101100
-110 44 +96 0 -78 0 +89 49 *
Fa
0  1e-07 42 0

0111000
+77 40 *
Ed
 1e-07 1 1 0
1  113 0 -0 10
2  79 39 0 -0 10
4 G1 39 0 44 39
0

0101000
+109 47 -88 47 *
Wi

0101100
+108 0 -75 0 +81 0 -87 0 *
Fa
0  1e-07 39 0

0111000
+74 0 *
Ed
 1e-07 1 1 0
1  114 0 -0 10
2  80 40 0 -0 10
4 G1 40 0 44 39
0

0101000
+107 47 -86 47 *
Wi

0101100
+106 0 -78 0 +72 0 -85 0 *
Fa
0  1e-07 40 0

0111000
+71 0 *
Wi

0101100
-105 44 +72 0 -75 0 +84 49 *
Fa
0  1e-07 44 0

0111000
+69 40 *
Sh

0101100
-118 39 +103 51 -98 0 +93 0 -82 53 -79 39 -76 39 +73 0 +70 0 -68 39 
*
So

0100000
+67 0 *
Ve
1e-07
18 -12 0
0 0

0101101
*
Ve
1e-07
18 -12 -10
0 0

0101101
*
Ed
 1e-07 1 1 0
1  115 0 0 10
2  81 45 0 0 10
4 G1 45 0 46 0
0

0101000
+65 60 -64 60 *
Ve
1e-07
42 -12 0
0 0

0101101
*
Ve
1e-07
42 -12 -10
0 0

0101101
*
Ed
 1e-07 1 1 0
1  116 0 0 10
2  82 45 0 0 10
4 G1 45 0 47 0
0

0101000
+62 60 -61 60 *
Ed
 1e-07 1 1 0
1  117 0 3.14159265358979 6.28318530717959
2  83 45 65 3.14159265358979 6.28318530717959
0

0101000
+65 66 -62 66 *
Ed
 1e-07 1 1 0
1  118 0 3.14159265358979 6.28318530717959
2  84 45 69 3.14159265358979 6.28318530717959
0

0101000
+64 70 -61 70 *
Wi

0101100
+63 0 -60 0 -59 64 +58 68 *
Fa
0  1e-07 45 0

0111000
+57 0 *
Ve
1e-07
18 -24 0
0 0

0101101
*
Ve
1e-07
18 -24 -10
0 0

0101101
*
Ed
 1e-07 1 1 0
1  119 0 0 10
2  85 48 0 0 10
4 G1 46 0 48 0
0

0101000
+55 60 -54 60 *
Ed
 1e-07 1 1 0
1  120 0 0 12
0

0101000
+55 66 -65 66 *
Ed
 1e-07 1 1 0
1  121 0 0 12
0

0101000
+54 70 -64 70 *
Wi

0101100
+53 0 -63 0 -52 64 +51 68 *
Fa
0  1e-07 46 0

0111000
+50 0 *
Ve
1e-07
42 -24 0
0 0

0101101
*
Ve
1e-07
42 -24 -10
0 0

0101101
*
Ed
 1e-07 1 1 0
1  122 0 0 10
2  86 48 0 0 10
4 G1 47 0 48 0
0

0101000
+48 60 -47 60 *
Ed
 1e-07 1 1 0
1  123 0 0 12
0

0101000
+62 66 -48 66 *
Ed
 1e-07 1 1 0
1  124 0 0 12
0

0101000
+61 70 -47 70 *
Wi

0101100
+60 0 -46 0 -45 64 +44 68 *
Fa
0  1e-07 47 0

0111000
+43 0 *
Ed
 1e-07 1 1 0
1  125 0 0 3.14159265358979
2  87 48 65 0 3.14159265358979
0

0101000
+48 66 -55 66 *
Wi

0101100
-59 72 -52 72 -45 72 -41 72 *
Ve
1.50000001e-07
36 -25 -0
0 0

0101101
*
Ve
1.5e-07
36 -10 1e-15
0 0

0101101
*
Ed
 1.5e-07 1 1 0
1  126 0 -11 4
0

0101000
+39 73 -38 73 *
Ve
1.50000001e-07
24 -10 1e-15
0 0

0101101
*
Ed
 1e-07 1 1 0
1  127 0 3.14159265358979 6.28318530717959
2  88 50 0 3.14159265358979 6.28318530717959
0

0101000
+36 73 -38 73 *
Ve
1.5e-07
24 -25 -0
0 0

0101101
*
Ed
 1.5e-07 1 1 0
1  128 0 -11.5 3.5
0

0101000
+36 73 -34 73 *
Ed
 1e-07 1 1 0
1  129 0 0 3.14159265358979
2  89 51 0 0 3.14159265358979
0

0101000
+39 73 -34 73 *
Wi

0101100
-37 0 +35 0 -33 0 +32 0 *
Fa
0  1e-07 49 71

0111000
+40 0 +31 0 *
Ed
 1e-07 1 1 0
1  130 0 0 3.14159265358979
2  90 48 69 0 3.14159265358979
0

0101000
+47 70 -54 70 *
Wi

0101100
-58 75 -51 75 -44 75 -29 75 *
Ve
1e-07
36 -10 -10
0 0

0101101
*
Ve
1.00000002e-07
36 -25 -10
0 0

0101101
*
Ed
 1e-07 1 1 0
1  131 0 0 15
0

0101000
+27 79 -26 79 *
Ve
1.00000002e-07
24 -10 -10
0 0

0101101
*
Ed
 1e-07 1 1 0
1  132 0 3.14159265358979 6.28318530717959
2  91 50 80 3.14159265358979 6.28318530717959
0

0101000
+24 79 -27 79 *
Ve
1.00000002e-07
24 -25 -10
0 0

0101101
*
Ed
 1.00000002e-07 1 1 0
1  133 0 0 15
0

0101000
+22 79 -24 79 *
Ed
 1.00000002e-07 1 1 0
1  134 0 0 3.14159265358979
2  92 51 80 0 3.14159265358979
0

0101000
+26 79 -22 79 *
Wi

0101100
+25 78 +23 78 +21 78 +20 78 *
Fa
0  1e-07 52 74

0111000
+28 0 +19 0 *
Wi

0101100
+46 0 -53 0 -41 64 +29 68 *
Fa
0  1e-07 48 0

0111000
+17 0 *
Ed
 1e-07 1 1 0
1  135 0 0 10
2  93 51 0 0 10
4 G1 53 0 51 0
0

0101000
+26 73 -39 73 *
Ed
 1e-07 1 1 0
1  136 0 0 10
2  94 50 0 0 10
4 G1 53 0 50 0
0

0101000
+27 73 -38 73 *
Wi

0101100
-25 78 -15 0 -37 0 +14 0 *
Fa
0  1e-07 53 0

0111000
+13 0 *
Ed
 1e-07 1 1 0
1  137 0 0 10
2  95 50 0 0 10
4 G1 50 0 54 0
0

0101000
+24 73 -36 73 *
Wi

0101100
-23 78 -14 0 +35 0 +11 0 *
Fa
0  1e-07 50 0

0111000
+10 0 *
Ed
 1e-07 1 1 0
1  138 0 0 10
2  96 51 0 0 10
4 G1 54 0 51 0
0

0101000
+22 73 -34 73 *
Wi

0101100
-21 78 -11 0 -33 0 +8 0 *
Fa
0  1e-07 54 0

0111000
+7 0 *
Wi

0101100
-20 78 -8 0 +32 0 +15 0 *
Fa
0  1e-07 51 0

0111000
+5 0 *
Sh

0101100
-56 58 -49 58 -42 58 +30 0 -18 0 -16 58 -12 0 -9 0 -6 0 -4 0 
*
So

0100000
+3 0 *
Co

1100000
+246 1 +128 18 +66 38 +2 55 *

+1 0 